<ttFont>
    <TTGlyph name="A" xMin="-5" yMin="0" xMax="645" yMax="670">
      <contour>
        <pt x="-5" y="0" on="1"/>
        <pt x="143" y="670" on="1"/>
        <pt x="494" y="670" on="1"/>
        <pt x="645" y="0" on="1"/>
        <pt x="411" y="0" on="1"/>
        <pt x="392" y="77" on="1"/>
        <pt x="239" y="77" on="1"/>
        <pt x="223" y="0" on="1"/>
      </contour>
      <contour>
        <pt x="307" y="488" on="1"/>
        <pt x="269" y="254" on="1"/>
        <pt x="368" y="254" on="1"/>
        <pt x="332" y="488" on="1"/>
      </contour>
    </TTGlyph>
    <TTGlyph name="AE" xMin="-5" yMin="0" xMax="865" yMax="670">
      <contour>
        <pt x="366" y="0" on="1"/>
        <pt x="366" y="77" on="1"/>
        <pt x="239" y="77" on="1"/>
        <pt x="223" y="0" on="1"/>
        <pt x="-5" y="0" on="1"/>
        <pt x="143" y="670" on="1"/>
        <pt x="865" y="670" on="1"/>
        <pt x="865" y="485" on="1"/>
        <pt x="592" y="485" on="1"/>
        <pt x="592" y="425" on="1"/>
        <pt x="805" y="425" on="1"/>
        <pt x="805" y="248" on="1"/>
        <pt x="592" y="248" on="1"/>
        <pt x="592" y="185" on="1"/>
        <pt x="865" y="185" on="1"/>
        <pt x="865" y="0" on="1"/>
      </contour>
      <contour>
        <pt x="366" y="256" on="1"/>
        <pt x="366" y="485" on="1"/>
        <pt x="307" y="485" on="1"/>
        <pt x="270" y="256" on="1"/>
      </contour>
    </TTGlyph>
    <TTGlyph name="AEacute" xMin="-5" yMin="0" xMax="865" yMax="849">
      <contour>
        <pt x="366" y="0" on="1"/>
        <pt x="366" y="77" on="1"/>
        <pt x="239" y="77" on="1"/>
        <pt x="223" y="0" on="1"/>
        <pt x="-5" y="0" on="1"/>
        <pt x="143" y="670" on="1"/>
        <pt x="865" y="670" on="1"/>
        <pt x="865" y="485" on="1"/>
        <pt x="592" y="485" on="1"/>
        <pt x="592" y="425" on="1"/>
        <pt x="805" y="425" on="1"/>
        <pt x="805" y="248" on="1"/>
        <pt x="592" y="248" on="1"/>
        <pt x="592" y="185" on="1"/>
        <pt x="865" y="185" on="1"/>
        <pt x="865" y="0" on="1"/>
      </contour>
      <contour>
        <pt x="366" y="256" on="1"/>
        <pt x="366" y="485" on="1"/>
        <pt x="307" y="485" on="1"/>
        <pt x="270" y="256" on="1"/>
      </contour>
      <contour>
        <pt x="391" y="849" on="1"/>
        <pt x="633" y="849" on="1"/>
        <pt x="524" y="713" on="1"/>
        <pt x="348" y="713" on="1"/>
      </contour>
    </TTGlyph>
    <TTGlyph name="Aacute" xMin="-5" yMin="0" xMax="645" yMax="849">
      <contour>
        <pt x="-5" y="0" on="1"/>
        <pt x="143" y="670" on="1"/>
        <pt x="494" y="670" on="1"/>
        <pt x="645" y="0" on="1"/>
        <pt x="411" y="0" on="1"/>
        <pt x="392" y="77" on="1"/>
        <pt x="239" y="77" on="1"/>
        <pt x="223" y="0" on="1"/>
      </contour>
      <contour>
        <pt x="307" y="488" on="1"/>
        <pt x="269" y="254" on="1"/>
        <pt x="368" y="254" on="1"/>
        <pt x="332" y="488" on="1"/>
      </contour>
      <contour>
        <pt x="227" y="849" on="1"/>
        <pt x="469" y="849" on="1"/>
        <pt x="360" y="713" on="1"/>
        <pt x="184" y="713" on="1"/>
      </contour>
    </TTGlyph>
    <TTGlyph name="Abreve" xMin="-5" yMin="0" xMax="645" yMax="872">
      <contour>
        <pt x="-5" y="0" on="1"/>
        <pt x="143" y="670" on="1"/>
        <pt x="494" y="670" on="1"/>
        <pt x="645" y="0" on="1"/>
        <pt x="411" y="0" on="1"/>
        <pt x="392" y="77" on="1"/>
        <pt x="239" y="77" on="1"/>
        <pt x="223" y="0" on="1"/>
      </contour>
      <contour>
        <pt x="307" y="488" on="1"/>
        <pt x="269" y="254" on="1"/>
        <pt x="368" y="254" on="1"/>
        <pt x="332" y="488" on="1"/>
      </contour>
      <contour>
        <pt x="406" y="712" on="0"/>
        <pt x="234" y="712" on="0"/>
        <pt x="160" y="797" on="0"/>
        <pt x="160" y="862" on="1"/>
        <pt x="276" y="872" on="1"/>
        <pt x="281" y="827" on="0"/>
        <pt x="359" y="827" on="0"/>
        <pt x="364" y="872" on="1"/>
        <pt x="480" y="862" on="1"/>
        <pt x="480" y="797" on="0"/>
      </contour>
    </TTGlyph>
    <TTGlyph name="Acircumflex" xMin="-5" yMin="0" xMax="645" yMax="849">
      <contour>
        <pt x="-5" y="0" on="1"/>
        <pt x="143" y="670" on="1"/>
        <pt x="494" y="670" on="1"/>
        <pt x="645" y="0" on="1"/>
        <pt x="411" y="0" on="1"/>
        <pt x="392" y="77" on="1"/>
        <pt x="239" y="77" on="1"/>
        <pt x="223" y="0" on="1"/>
      </contour>
      <contour>
        <pt x="307" y="488" on="1"/>
        <pt x="269" y="254" on="1"/>
        <pt x="368" y="254" on="1"/>
        <pt x="332" y="488" on="1"/>
      </contour>
      <contour>
        <pt x="138" y="713" on="1"/>
        <pt x="239" y="849" on="1"/>
        <pt x="391" y="849" on="1"/>
        <pt x="503" y="713" on="1"/>
        <pt x="334" y="713" on="1"/>
        <pt x="319" y="775" on="1"/>
        <pt x="307" y="713" on="1"/>
      </contour>
    </TTGlyph>
    <TTGlyph name="Adieresis" xMin="-5" yMin="0" xMax="645" yMax="857">
      <contour>
        <pt x="-5" y="0" on="1"/>
        <pt x="143" y="670" on="1"/>
        <pt x="494" y="670" on="1"/>
        <pt x="645" y="0" on="1"/>
        <pt x="411" y="0" on="1"/>
        <pt x="392" y="77" on="1"/>
        <pt x="239" y="77" on="1"/>
        <pt x="223" y="0" on="1"/>
      </contour>
      <contour>
        <pt x="307" y="488" on="1"/>
        <pt x="269" y="254" on="1"/>
        <pt x="368" y="254" on="1"/>
        <pt x="332" y="488" on="1"/>
      </contour>
      <contour>
        <pt x="343" y="713" on="1"/>
        <pt x="343" y="857" on="1"/>
        <pt x="504" y="857" on="1"/>
        <pt x="504" y="713" on="1"/>
      </contour>
      <contour>
        <pt x="136" y="713" on="1"/>
        <pt x="136" y="857" on="1"/>
        <pt x="297" y="857" on="1"/>
        <pt x="297" y="713" on="1"/>
      </contour>
    </TTGlyph>
    <TTGlyph name="Agrave" xMin="-5" yMin="0" xMax="645" yMax="849">
      <contour>
        <pt x="147" y="849" on="1"/>
        <pt x="389" y="849" on="1"/>
        <pt x="423" y="713" on="1"/>
        <pt x="251" y="713" on="1"/>
      </contour>
      <contour>
        <pt x="-5" y="0" on="1"/>
        <pt x="143" y="670" on="1"/>
        <pt x="494" y="670" on="1"/>
        <pt x="645" y="0" on="1"/>
        <pt x="411" y="0" on="1"/>
        <pt x="392" y="77" on="1"/>
        <pt x="239" y="77" on="1"/>
        <pt x="223" y="0" on="1"/>
      </contour>
      <contour>
        <pt x="307" y="488" on="1"/>
        <pt x="269" y="254" on="1"/>
        <pt x="368" y="254" on="1"/>
        <pt x="332" y="488" on="1"/>
      </contour>
    </TTGlyph>
    <TTGlyph name="Amacron" xMin="-5" yMin="0" xMax="645" yMax="849">
      <contour>
        <pt x="-5" y="0" on="1"/>
        <pt x="143" y="670" on="1"/>
        <pt x="494" y="670" on="1"/>
        <pt x="645" y="0" on="1"/>
        <pt x="411" y="0" on="1"/>
        <pt x="392" y="77" on="1"/>
        <pt x="239" y="77" on="1"/>
        <pt x="223" y="0" on="1"/>
      </contour>
      <contour>
        <pt x="307" y="488" on="1"/>
        <pt x="269" y="254" on="1"/>
        <pt x="368" y="254" on="1"/>
        <pt x="332" y="488" on="1"/>
      </contour>
      <contour>
        <pt x="159" y="713" on="1"/>
        <pt x="159" y="849" on="1"/>
        <pt x="480" y="849" on="1"/>
        <pt x="480" y="713" on="1"/>
      </contour>
    </TTGlyph>
    <TTGlyph name="Aogonek" xMin="-5" yMin="-219" xMax="645" yMax="670">
      <contour>
        <pt x="508" y="-219" on="1"/>
        <pt x="353" y="-219" on="0"/>
        <pt x="353" y="-103" on="1"/>
        <pt x="353" y="-39" on="0"/>
        <pt x="411" y="0" on="1"/>
        <pt x="392" y="77" on="1"/>
        <pt x="239" y="77" on="1"/>
        <pt x="223" y="0" on="1"/>
        <pt x="-5" y="0" on="1"/>
        <pt x="143" y="670" on="1"/>
        <pt x="494" y="670" on="1"/>
        <pt x="645" y="1" on="1"/>
        <pt x="645" y="0" on="1"/>
        <pt x="643" y="0" on="1"/>
        <pt x="614" y="-14" on="0"/>
        <pt x="563" y="-67" on="0"/>
        <pt x="563" y="-82" on="1"/>
        <pt x="563" y="-104" on="0"/>
        <pt x="585" y="-104" on="1"/>
        <pt x="631" y="-100" on="1"/>
        <pt x="644" y="-204" on="1"/>
        <pt x="595" y="-219" on="0"/>
      </contour>
      <contour>
        <pt x="307" y="488" on="1"/>
        <pt x="269" y="254" on="1"/>
        <pt x="368" y="254" on="1"/>
        <pt x="332" y="488" on="1"/>
      </contour>
    </TTGlyph>
    <TTGlyph name="Aring" xMin="-5" yMin="0" xMax="645" yMax="818">
      <contour>
        <pt x="183" y="722" on="1"/>
        <pt x="183" y="818" on="0"/>
        <pt x="320" y="818" on="1"/>
        <pt x="382" y="818" on="0"/>
        <pt x="457" y="771" on="0"/>
        <pt x="457" y="722" on="1"/>
        <pt x="457" y="692" on="0"/>
        <pt x="441" y="670" on="1"/>
        <pt x="494" y="670" on="1"/>
        <pt x="645" y="0" on="1"/>
        <pt x="411" y="0" on="1"/>
        <pt x="392" y="77" on="1"/>
        <pt x="239" y="77" on="1"/>
        <pt x="223" y="0" on="1"/>
        <pt x="-5" y="0" on="1"/>
        <pt x="143" y="670" on="1"/>
        <pt x="198" y="670" on="1"/>
        <pt x="183" y="689" on="0"/>
      </contour>
      <contour>
        <pt x="307" y="488" on="1"/>
        <pt x="269" y="254" on="1"/>
        <pt x="368" y="254" on="1"/>
        <pt x="332" y="488" on="1"/>
      </contour>
      <contour>
        <pt x="290" y="743" on="0"/>
        <pt x="290" y="700" on="0"/>
        <pt x="351" y="700" on="0"/>
        <pt x="351" y="743" on="0"/>
      </contour>
    </TTGlyph>
    <TTGlyph name="Aringacute" xMin="-5" yMin="0" xMax="645" yMax="984">
      <contour>
        <pt x="183" y="722" on="1"/>
        <pt x="183" y="818" on="0"/>
        <pt x="320" y="818" on="1"/>
        <pt x="382" y="818" on="0"/>
        <pt x="457" y="771" on="0"/>
        <pt x="457" y="722" on="1"/>
        <pt x="457" y="692" on="0"/>
        <pt x="441" y="670" on="1"/>
        <pt x="494" y="670" on="1"/>
        <pt x="645" y="0" on="1"/>
        <pt x="411" y="0" on="1"/>
        <pt x="392" y="77" on="1"/>
        <pt x="239" y="77" on="1"/>
        <pt x="223" y="0" on="1"/>
        <pt x="-5" y="0" on="1"/>
        <pt x="143" y="670" on="1"/>
        <pt x="198" y="670" on="1"/>
        <pt x="183" y="689" on="0"/>
      </contour>
      <contour>
        <pt x="241" y="984" on="1"/>
        <pt x="483" y="984" on="1"/>
        <pt x="374" y="848" on="1"/>
        <pt x="198" y="848" on="1"/>
      </contour>
      <contour>
        <pt x="307" y="488" on="1"/>
        <pt x="269" y="254" on="1"/>
        <pt x="368" y="254" on="1"/>
        <pt x="332" y="488" on="1"/>
      </contour>
      <contour>
        <pt x="290" y="743" on="0"/>
        <pt x="290" y="700" on="0"/>
        <pt x="351" y="700" on="0"/>
        <pt x="351" y="743" on="0"/>
      </contour>
    </TTGlyph>
    <TTGlyph name="Atilde" xMin="-5" yMin="0" xMax="645" yMax="886">
      <contour>
        <pt x="-5" y="0" on="1"/>
        <pt x="143" y="670" on="1"/>
        <pt x="494" y="670" on="1"/>
        <pt x="645" y="0" on="1"/>
        <pt x="411" y="0" on="1"/>
        <pt x="392" y="77" on="1"/>
        <pt x="239" y="77" on="1"/>
        <pt x="223" y="0" on="1"/>
      </contour>
      <contour>
        <pt x="307" y="488" on="1"/>
        <pt x="269" y="254" on="1"/>
        <pt x="368" y="254" on="1"/>
        <pt x="332" y="488" on="1"/>
      </contour>
      <contour>
        <pt x="475" y="744" on="0"/>
        <pt x="419" y="712" on="0"/>
        <pt x="367" y="712" on="0"/>
        <pt x="260" y="746" on="0"/>
        <pt x="247" y="746" on="1"/>
        <pt x="220" y="746" on="0"/>
        <pt x="180" y="728" on="1"/>
        <pt x="166" y="721" on="1"/>
        <pt x="137" y="827" on="1"/>
        <pt x="154" y="847" on="0"/>
        <pt x="220" y="886" on="0"/>
        <pt x="279" y="886" on="0"/>
        <pt x="381" y="854" on="0"/>
        <pt x="392" y="854" on="1"/>
        <pt x="412" y="854" on="0"/>
        <pt x="458" y="872" on="1"/>
        <pt x="473" y="877" on="1"/>
        <pt x="502" y="770" on="1"/>
        <pt x="496" y="764" on="0"/>
      </contour>
    </TTGlyph>
    <TTGlyph name="B" xMin="30" yMin="0" xMax="595" yMax="670">
      <contour>
        <pt x="30" y="670" on="1"/>
        <pt x="333" y="670" on="1"/>
        <pt x="578" y="670" on="0"/>
        <pt x="578" y="504" on="1"/>
        <pt x="578" y="441" on="0"/>
        <pt x="551" y="373" on="0"/>
        <pt x="509" y="343" on="1"/>
        <pt x="558" y="322" on="0"/>
        <pt x="595" y="261" on="0"/>
        <pt x="595" y="190" on="1"/>
        <pt x="595" y="0" on="0"/>
        <pt x="337" y="0" on="1"/>
        <pt x="30" y="0" on="1"/>
      </contour>
      <contour>
        <pt x="316" y="265" on="1"/>
        <pt x="262" y="265" on="1"/>
        <pt x="262" y="155" on="1"/>
        <pt x="316" y="155" on="1"/>
        <pt x="351" y="155" on="0"/>
        <pt x="375" y="178" on="0"/>
        <pt x="375" y="241" on="0"/>
        <pt x="349" y="265" on="0"/>
      </contour>
      <contour>
        <pt x="313" y="517" on="1"/>
        <pt x="262" y="517" on="1"/>
        <pt x="262" y="410" on="1"/>
        <pt x="314" y="410" on="1"/>
        <pt x="344" y="410" on="0"/>
        <pt x="368" y="436" on="0"/>
        <pt x="368" y="493" on="0"/>
        <pt x="342" y="517" on="0"/>
      </contour>
    </TTGlyph>
    <TTGlyph name="C" xMin="18" yMin="-13" xMax="519" yMax="683">
      <contour>
        <pt x="519" y="13" on="1"/>
        <pt x="413" y="-13" on="0"/>
        <pt x="191" y="-13" on="0"/>
        <pt x="71" y="50" on="0"/>
        <pt x="18" y="198" on="0"/>
        <pt x="18" y="337" on="1"/>
        <pt x="18" y="536" on="0"/>
        <pt x="141" y="683" on="0"/>
        <pt x="314" y="683" on="1"/>
        <pt x="386" y="683" on="0"/>
        <pt x="484" y="663" on="1"/>
        <pt x="519" y="656" on="1"/>
        <pt x="513" y="477" on="1"/>
        <pt x="431" y="487" on="0"/>
        <pt x="292" y="487" on="0"/>
        <pt x="252" y="434" on="0"/>
        <pt x="252" y="268" on="0"/>
        <pt x="271" y="204" on="0"/>
        <pt x="313" y="183" on="0"/>
        <pt x="360" y="183" on="1"/>
        <pt x="516" y="189" on="1"/>
      </contour>
    </TTGlyph>
    <TTGlyph name="Cacute" xMin="18" yMin="-13" xMax="519" yMax="849">
      <contour>
        <pt x="519" y="13" on="1"/>
        <pt x="413" y="-13" on="0"/>
        <pt x="191" y="-13" on="0"/>
        <pt x="71" y="50" on="0"/>
        <pt x="18" y="198" on="0"/>
        <pt x="18" y="337" on="1"/>
        <pt x="18" y="536" on="0"/>
        <pt x="141" y="683" on="0"/>
        <pt x="314" y="683" on="1"/>
        <pt x="386" y="683" on="0"/>
        <pt x="484" y="663" on="1"/>
        <pt x="519" y="656" on="1"/>
        <pt x="513" y="477" on="1"/>
        <pt x="431" y="487" on="0"/>
        <pt x="292" y="487" on="0"/>
        <pt x="252" y="434" on="0"/>
        <pt x="252" y="268" on="0"/>
        <pt x="271" y="204" on="0"/>
        <pt x="313" y="183" on="0"/>
        <pt x="360" y="183" on="1"/>
        <pt x="516" y="189" on="1"/>
      </contour>
      <contour>
        <pt x="221" y="849" on="1"/>
        <pt x="463" y="849" on="1"/>
        <pt x="354" y="713" on="1"/>
        <pt x="178" y="713" on="1"/>
      </contour>
    </TTGlyph>
    <TTGlyph name="Ccaron" xMin="18" yMin="-13" xMax="519" yMax="848">
      <contour>
        <pt x="519" y="13" on="1"/>
        <pt x="413" y="-13" on="0"/>
        <pt x="191" y="-13" on="0"/>
        <pt x="71" y="50" on="0"/>
        <pt x="18" y="198" on="0"/>
        <pt x="18" y="337" on="1"/>
        <pt x="18" y="536" on="0"/>
        <pt x="141" y="683" on="0"/>
        <pt x="314" y="683" on="1"/>
        <pt x="386" y="683" on="0"/>
        <pt x="484" y="663" on="1"/>
        <pt x="519" y="656" on="1"/>
        <pt x="513" y="477" on="1"/>
        <pt x="431" y="487" on="0"/>
        <pt x="292" y="487" on="0"/>
        <pt x="252" y="434" on="0"/>
        <pt x="252" y="268" on="0"/>
        <pt x="271" y="204" on="0"/>
        <pt x="313" y="183" on="0"/>
        <pt x="360" y="183" on="1"/>
        <pt x="516" y="189" on="1"/>
      </contour>
      <contour>
        <pt x="197" y="712" on="1"/>
        <pt x="96" y="848" on="1"/>
        <pt x="265" y="848" on="1"/>
        <pt x="279" y="786" on="1"/>
        <pt x="292" y="848" on="1"/>
        <pt x="461" y="848" on="1"/>
        <pt x="349" y="712" on="1"/>
      </contour>
    </TTGlyph>
    <TTGlyph name="Ccedilla" xMin="18" yMin="-220" xMax="519" yMax="683">
      <contour>
        <pt x="409" y="-23" on="0"/>
        <pt x="468" y="-58" on="0"/>
        <pt x="468" y="-168" on="0"/>
        <pt x="405" y="-220" on="0"/>
        <pt x="341" y="-220" on="1"/>
        <pt x="289" y="-220" on="0"/>
        <pt x="231" y="-212" on="1"/>
        <pt x="214" y="-209" on="1"/>
        <pt x="218" y="-131" on="1"/>
        <pt x="249" y="-132" on="0"/>
        <pt x="266" y="-132" on="1"/>
        <pt x="304" y="-132" on="0"/>
        <pt x="304" y="-110" on="1"/>
        <pt x="304" y="-98" on="0"/>
        <pt x="288" y="-90" on="0"/>
        <pt x="266" y="-90" on="1"/>
        <pt x="257" y="-90" on="1"/>
        <pt x="257" y="-11" on="1"/>
        <pt x="120" y="-3" on="0"/>
        <pt x="18" y="147" on="0"/>
        <pt x="18" y="536" on="0"/>
        <pt x="141" y="683" on="0"/>
        <pt x="314" y="683" on="1"/>
        <pt x="386" y="683" on="0"/>
        <pt x="484" y="663" on="1"/>
        <pt x="519" y="656" on="1"/>
        <pt x="513" y="477" on="1"/>
        <pt x="431" y="487" on="0"/>
        <pt x="292" y="487" on="0"/>
        <pt x="252" y="434" on="0"/>
        <pt x="252" y="268" on="0"/>
        <pt x="271" y="204" on="0"/>
        <pt x="313" y="183" on="0"/>
        <pt x="360" y="183" on="1"/>
        <pt x="516" y="189" on="1"/>
        <pt x="519" y="13" on="1"/>
        <pt x="429" y="-9" on="0"/>
        <pt x="330" y="-12" on="1"/>
        <pt x="330" y="-22" on="1"/>
      </contour>
    </TTGlyph>
    <TTGlyph name="Ccircumflex" xMin="18" yMin="-13" xMax="519" yMax="849">
      <contour>
        <pt x="519" y="13" on="1"/>
        <pt x="413" y="-13" on="0"/>
        <pt x="191" y="-13" on="0"/>
        <pt x="71" y="50" on="0"/>
        <pt x="18" y="198" on="0"/>
        <pt x="18" y="337" on="1"/>
        <pt x="18" y="536" on="0"/>
        <pt x="141" y="683" on="0"/>
        <pt x="314" y="683" on="1"/>
        <pt x="386" y="683" on="0"/>
        <pt x="484" y="663" on="1"/>
        <pt x="519" y="656" on="1"/>
        <pt x="513" y="477" on="1"/>
        <pt x="431" y="487" on="0"/>
        <pt x="292" y="487" on="0"/>
        <pt x="252" y="434" on="0"/>
        <pt x="252" y="268" on="0"/>
        <pt x="271" y="204" on="0"/>
        <pt x="313" y="183" on="0"/>
        <pt x="360" y="183" on="1"/>
        <pt x="516" y="189" on="1"/>
      </contour>
      <contour>
        <pt x="106" y="713" on="1"/>
        <pt x="207" y="849" on="1"/>
        <pt x="359" y="849" on="1"/>
        <pt x="471" y="713" on="1"/>
        <pt x="302" y="713" on="1"/>
        <pt x="287" y="775" on="1"/>
        <pt x="275" y="713" on="1"/>
      </contour>
    </TTGlyph>
    <TTGlyph name="Cdotaccent" xMin="18" yMin="-13" xMax="519" yMax="856">
      <contour>
        <pt x="519" y="13" on="1"/>
        <pt x="413" y="-13" on="0"/>
        <pt x="191" y="-13" on="0"/>
        <pt x="71" y="50" on="0"/>
        <pt x="18" y="198" on="0"/>
        <pt x="18" y="337" on="1"/>
        <pt x="18" y="536" on="0"/>
        <pt x="141" y="683" on="0"/>
        <pt x="314" y="683" on="1"/>
        <pt x="386" y="683" on="0"/>
        <pt x="484" y="663" on="1"/>
        <pt x="519" y="656" on="1"/>
        <pt x="513" y="477" on="1"/>
        <pt x="431" y="487" on="0"/>
        <pt x="292" y="487" on="0"/>
        <pt x="252" y="434" on="0"/>
        <pt x="252" y="268" on="0"/>
        <pt x="271" y="204" on="0"/>
        <pt x="313" y="183" on="0"/>
        <pt x="360" y="183" on="1"/>
        <pt x="516" y="189" on="1"/>
      </contour>
      <contour>
        <pt x="188" y="713" on="1"/>
        <pt x="188" y="856" on="1"/>
        <pt x="368" y="856" on="1"/>
        <pt x="368" y="713" on="1"/>
      </contour>
    </TTGlyph>
    <TTGlyph name="D" xMin="30" yMin="0" xMax="638" yMax="670">
      <contour>
        <pt x="323" y="0" on="1"/>
        <pt x="30" y="0" on="1"/>
        <pt x="30" y="670" on="1"/>
        <pt x="313" y="670" on="1"/>
        <pt x="486" y="670" on="0"/>
        <pt x="638" y="514" on="0"/>
        <pt x="638" y="171" on="0"/>
        <pt x="492" y="0" on="0"/>
      </contour>
      <contour>
        <pt x="404" y="421" on="0"/>
        <pt x="367" y="481" on="0"/>
        <pt x="303" y="481" on="1"/>
        <pt x="262" y="481" on="1"/>
        <pt x="262" y="189" on="1"/>
        <pt x="303" y="189" on="1"/>
        <pt x="355" y="189" on="0"/>
        <pt x="380" y="215" on="1"/>
        <pt x="404" y="241" on="0"/>
      </contour>
    </TTGlyph>
    <TTGlyph name="Dcaron" xMin="30" yMin="0" xMax="638" yMax="848">
      <contour>
        <pt x="323" y="0" on="1"/>
        <pt x="30" y="0" on="1"/>
        <pt x="30" y="670" on="1"/>
        <pt x="313" y="670" on="1"/>
        <pt x="486" y="670" on="0"/>
        <pt x="638" y="514" on="0"/>
        <pt x="638" y="171" on="0"/>
        <pt x="492" y="0" on="0"/>
      </contour>
      <contour>
        <pt x="404" y="421" on="0"/>
        <pt x="367" y="481" on="0"/>
        <pt x="303" y="481" on="1"/>
        <pt x="262" y="481" on="1"/>
        <pt x="262" y="189" on="1"/>
        <pt x="303" y="189" on="1"/>
        <pt x="355" y="189" on="0"/>
        <pt x="380" y="215" on="1"/>
        <pt x="404" y="241" on="0"/>
      </contour>
      <contour>
        <pt x="222" y="712" on="1"/>
        <pt x="121" y="848" on="1"/>
        <pt x="290" y="848" on="1"/>
        <pt x="304" y="786" on="1"/>
        <pt x="317" y="848" on="1"/>
        <pt x="486" y="848" on="1"/>
        <pt x="374" y="712" on="1"/>
      </contour>
    </TTGlyph>
    <TTGlyph name="Dcroat" xMin="-1" yMin="0" xMax="645" yMax="670">
      <contour>
        <pt x="-1" y="270" on="1"/>
        <pt x="-1" y="407" on="1"/>
        <pt x="37" y="407" on="1"/>
        <pt x="37" y="670" on="1"/>
        <pt x="320" y="670" on="1"/>
        <pt x="493" y="670" on="0"/>
        <pt x="645" y="514" on="0"/>
        <pt x="645" y="171" on="0"/>
        <pt x="499" y="0" on="0"/>
        <pt x="330" y="0" on="1"/>
        <pt x="37" y="0" on="1"/>
        <pt x="37" y="270" on="1"/>
      </contour>
      <contour>
        <pt x="411" y="421" on="0"/>
        <pt x="374" y="481" on="0"/>
        <pt x="310" y="481" on="1"/>
        <pt x="269" y="481" on="1"/>
        <pt x="269" y="407" on="1"/>
        <pt x="324" y="407" on="1"/>
        <pt x="324" y="270" on="1"/>
        <pt x="269" y="270" on="1"/>
        <pt x="269" y="189" on="1"/>
        <pt x="310" y="189" on="1"/>
        <pt x="362" y="189" on="0"/>
        <pt x="386" y="215" on="1"/>
        <pt x="411" y="241" on="0"/>
      </contour>
    </TTGlyph>
    <TTGlyph name="Delta" xMin="12" yMin="0" xMax="542" yMax="659">
      <contour>
        <pt x="12" y="0" on="1"/>
        <pt x="109" y="659" on="1"/>
        <pt x="432" y="659" on="1"/>
        <pt x="542" y="0" on="1"/>
      </contour>
      <contour>
        <pt x="263" y="477" on="1"/>
        <pt x="256" y="179" on="1"/>
        <pt x="295" y="179" on="1"/>
        <pt x="280" y="477" on="1"/>
      </contour>
    </TTGlyph>
    <TTGlyph name="E" xMin="30" yMin="0" xMax="532" yMax="670">
      <contour>
        <pt x="30" y="0" on="1"/>
        <pt x="30" y="670" on="1"/>
        <pt x="532" y="670" on="1"/>
        <pt x="532" y="485" on="1"/>
        <pt x="262" y="485" on="1"/>
        <pt x="262" y="428" on="1"/>
        <pt x="472" y="428" on="1"/>
        <pt x="472" y="245" on="1"/>
        <pt x="262" y="245" on="1"/>
        <pt x="262" y="185" on="1"/>
        <pt x="532" y="185" on="1"/>
        <pt x="532" y="0" on="1"/>
      </contour>
    </TTGlyph>
    <TTGlyph name="Eacute" xMin="30" yMin="0" xMax="532" yMax="849">
      <contour>
        <pt x="30" y="0" on="1"/>
        <pt x="30" y="670" on="1"/>
        <pt x="532" y="670" on="1"/>
        <pt x="532" y="485" on="1"/>
        <pt x="262" y="485" on="1"/>
        <pt x="262" y="428" on="1"/>
        <pt x="472" y="428" on="1"/>
        <pt x="472" y="245" on="1"/>
        <pt x="262" y="245" on="1"/>
        <pt x="262" y="185" on="1"/>
        <pt x="532" y="185" on="1"/>
        <pt x="532" y="0" on="1"/>
      </contour>
      <contour>
        <pt x="188" y="849" on="1"/>
        <pt x="430" y="849" on="1"/>
        <pt x="321" y="713" on="1"/>
        <pt x="145" y="713" on="1"/>
      </contour>
    </TTGlyph>
    <TTGlyph name="Ebreve" xMin="30" yMin="0" xMax="532" yMax="872">
      <contour>
        <pt x="30" y="0" on="1"/>
        <pt x="30" y="670" on="1"/>
        <pt x="532" y="670" on="1"/>
        <pt x="532" y="485" on="1"/>
        <pt x="262" y="485" on="1"/>
        <pt x="262" y="428" on="1"/>
        <pt x="472" y="428" on="1"/>
        <pt x="472" y="245" on="1"/>
        <pt x="262" y="245" on="1"/>
        <pt x="262" y="185" on="1"/>
        <pt x="532" y="185" on="1"/>
        <pt x="532" y="0" on="1"/>
      </contour>
      <contour>
        <pt x="357" y="712" on="0"/>
        <pt x="185" y="712" on="0"/>
        <pt x="111" y="797" on="0"/>
        <pt x="111" y="862" on="1"/>
        <pt x="227" y="872" on="1"/>
        <pt x="232" y="827" on="0"/>
        <pt x="310" y="827" on="0"/>
        <pt x="315" y="872" on="1"/>
        <pt x="431" y="862" on="1"/>
        <pt x="431" y="797" on="0"/>
      </contour>
    </TTGlyph>
    <TTGlyph name="Ecaron" xMin="30" yMin="0" xMax="532" yMax="848">
      <contour>
        <pt x="30" y="0" on="1"/>
        <pt x="30" y="670" on="1"/>
        <pt x="532" y="670" on="1"/>
        <pt x="532" y="485" on="1"/>
        <pt x="262" y="485" on="1"/>
        <pt x="262" y="428" on="1"/>
        <pt x="472" y="428" on="1"/>
        <pt x="472" y="245" on="1"/>
        <pt x="262" y="245" on="1"/>
        <pt x="262" y="185" on="1"/>
        <pt x="532" y="185" on="1"/>
        <pt x="532" y="0" on="1"/>
      </contour>
      <contour>
        <pt x="190" y="712" on="1"/>
        <pt x="89" y="848" on="1"/>
        <pt x="258" y="848" on="1"/>
        <pt x="272" y="786" on="1"/>
        <pt x="285" y="848" on="1"/>
        <pt x="454" y="848" on="1"/>
        <pt x="342" y="712" on="1"/>
      </contour>
    </TTGlyph>
    <TTGlyph name="Ecircumflex" xMin="30" yMin="0" xMax="532" yMax="849">
      <contour>
        <pt x="30" y="0" on="1"/>
        <pt x="30" y="670" on="1"/>
        <pt x="532" y="670" on="1"/>
        <pt x="532" y="485" on="1"/>
        <pt x="262" y="485" on="1"/>
        <pt x="262" y="428" on="1"/>
        <pt x="472" y="428" on="1"/>
        <pt x="472" y="245" on="1"/>
        <pt x="262" y="245" on="1"/>
        <pt x="262" y="185" on="1"/>
        <pt x="532" y="185" on="1"/>
        <pt x="532" y="0" on="1"/>
      </contour>
      <contour>
        <pt x="94" y="713" on="1"/>
        <pt x="195" y="849" on="1"/>
        <pt x="347" y="849" on="1"/>
        <pt x="459" y="713" on="1"/>
        <pt x="290" y="713" on="1"/>
        <pt x="275" y="775" on="1"/>
        <pt x="263" y="713" on="1"/>
      </contour>
    </TTGlyph>
    <TTGlyph name="Edieresis" xMin="30" yMin="0" xMax="532" yMax="857">
      <contour>
        <pt x="30" y="0" on="1"/>
        <pt x="30" y="670" on="1"/>
        <pt x="532" y="670" on="1"/>
        <pt x="532" y="485" on="1"/>
        <pt x="262" y="485" on="1"/>
        <pt x="262" y="428" on="1"/>
        <pt x="472" y="428" on="1"/>
        <pt x="472" y="245" on="1"/>
        <pt x="262" y="245" on="1"/>
        <pt x="262" y="185" on="1"/>
        <pt x="532" y="185" on="1"/>
        <pt x="532" y="0" on="1"/>
      </contour>
      <contour>
        <pt x="304" y="713" on="1"/>
        <pt x="304" y="857" on="1"/>
        <pt x="465" y="857" on="1"/>
        <pt x="465" y="713" on="1"/>
      </contour>
      <contour>
        <pt x="97" y="713" on="1"/>
        <pt x="97" y="857" on="1"/>
        <pt x="258" y="857" on="1"/>
        <pt x="258" y="713" on="1"/>
      </contour>
    </TTGlyph>
    <TTGlyph name="Edotaccent" xMin="30" yMin="0" xMax="532" yMax="856">
      <contour>
        <pt x="30" y="0" on="1"/>
        <pt x="30" y="670" on="1"/>
        <pt x="532" y="670" on="1"/>
        <pt x="532" y="485" on="1"/>
        <pt x="262" y="485" on="1"/>
        <pt x="262" y="428" on="1"/>
        <pt x="472" y="428" on="1"/>
        <pt x="472" y="245" on="1"/>
        <pt x="262" y="245" on="1"/>
        <pt x="262" y="185" on="1"/>
        <pt x="532" y="185" on="1"/>
        <pt x="532" y="0" on="1"/>
      </contour>
      <contour>
        <pt x="191" y="713" on="1"/>
        <pt x="191" y="856" on="1"/>
        <pt x="371" y="856" on="1"/>
        <pt x="371" y="713" on="1"/>
      </contour>
    </TTGlyph>
    <TTGlyph name="Egrave" xMin="30" yMin="0" xMax="532" yMax="849">
      <contour>
        <pt x="30" y="0" on="1"/>
        <pt x="30" y="670" on="1"/>
        <pt x="532" y="670" on="1"/>
        <pt x="532" y="485" on="1"/>
        <pt x="262" y="485" on="1"/>
        <pt x="262" y="428" on="1"/>
        <pt x="472" y="428" on="1"/>
        <pt x="472" y="245" on="1"/>
        <pt x="262" y="245" on="1"/>
        <pt x="262" y="185" on="1"/>
        <pt x="532" y="185" on="1"/>
        <pt x="532" y="0" on="1"/>
      </contour>
      <contour>
        <pt x="113" y="849" on="1"/>
        <pt x="355" y="849" on="1"/>
        <pt x="389" y="713" on="1"/>
        <pt x="217" y="713" on="1"/>
      </contour>
    </TTGlyph>
    <TTGlyph name="Emacron" xMin="30" yMin="0" xMax="532" yMax="849">
      <contour>
        <pt x="30" y="0" on="1"/>
        <pt x="30" y="670" on="1"/>
        <pt x="532" y="670" on="1"/>
        <pt x="532" y="485" on="1"/>
        <pt x="262" y="485" on="1"/>
        <pt x="262" y="428" on="1"/>
        <pt x="472" y="428" on="1"/>
        <pt x="472" y="245" on="1"/>
        <pt x="262" y="245" on="1"/>
        <pt x="262" y="185" on="1"/>
        <pt x="532" y="185" on="1"/>
        <pt x="532" y="0" on="1"/>
      </contour>
      <contour>
        <pt x="121" y="713" on="1"/>
        <pt x="121" y="849" on="1"/>
        <pt x="442" y="849" on="1"/>
        <pt x="442" y="713" on="1"/>
      </contour>
    </TTGlyph>
    <TTGlyph name="Eng" xMin="30" yMin="-286" xMax="658" yMax="670">
      <contour>
        <pt x="30" y="0" on="1"/>
        <pt x="30" y="670" on="1"/>
        <pt x="258" y="670" on="1"/>
        <pt x="412" y="416" on="1"/>
        <pt x="426" y="416" on="1"/>
        <pt x="426" y="670" on="1"/>
        <pt x="658" y="670" on="1"/>
        <pt x="658" y="0" on="1"/>
        <pt x="658" y="-103" on="0"/>
        <pt x="637" y="-148" on="1"/>
        <pt x="624" y="-176" on="0"/>
        <pt x="595" y="-211" on="0"/>
        <pt x="563" y="-228" on="1"/>
        <pt x="518" y="-252" on="0"/>
        <pt x="412" y="-286" on="1"/>
        <pt x="340" y="-116" on="1"/>
        <pt x="402" y="-87" on="0"/>
        <pt x="429" y="-53" on="0"/>
        <pt x="429" y="0" on="1"/>
        <pt x="277" y="273" on="1"/>
        <pt x="262" y="273" on="1"/>
        <pt x="262" y="0" on="1"/>
      </contour>
    </TTGlyph>
    <TTGlyph name="Eogonek" xMin="30" yMin="-220" xMax="533" yMax="670">
      <contour>
        <pt x="30" y="0" on="1"/>
        <pt x="30" y="670" on="1"/>
        <pt x="532" y="670" on="1"/>
        <pt x="532" y="485" on="1"/>
        <pt x="262" y="485" on="1"/>
        <pt x="262" y="428" on="1"/>
        <pt x="472" y="428" on="1"/>
        <pt x="472" y="245" on="1"/>
        <pt x="262" y="245" on="1"/>
        <pt x="262" y="185" on="1"/>
        <pt x="532" y="185" on="1"/>
        <pt x="532" y="0" on="1"/>
        <pt x="508" y="0" on="1"/>
        <pt x="452" y="-56" on="0"/>
        <pt x="452" y="-105" on="0"/>
        <pt x="474" y="-105" on="1"/>
        <pt x="520" y="-101" on="1"/>
        <pt x="533" y="-205" on="1"/>
        <pt x="484" y="-220" on="0"/>
        <pt x="397" y="-220" on="1"/>
        <pt x="242" y="-220" on="0"/>
        <pt x="242" y="-104" on="1"/>
        <pt x="242" y="-42" on="0"/>
        <pt x="300" y="0" on="1"/>
      </contour>
    </TTGlyph>
    <TTGlyph name="Eth" xMin="-1" yMin="0" xMax="645" yMax="670">
      <contour>
        <pt x="-1" y="270" on="1"/>
        <pt x="-1" y="407" on="1"/>
        <pt x="37" y="407" on="1"/>
        <pt x="37" y="670" on="1"/>
        <pt x="320" y="670" on="1"/>
        <pt x="493" y="670" on="0"/>
        <pt x="645" y="514" on="0"/>
        <pt x="645" y="171" on="0"/>
        <pt x="499" y="0" on="0"/>
        <pt x="330" y="0" on="1"/>
        <pt x="37" y="0" on="1"/>
        <pt x="37" y="270" on="1"/>
      </contour>
      <contour>
        <pt x="411" y="421" on="0"/>
        <pt x="374" y="481" on="0"/>
        <pt x="310" y="481" on="1"/>
        <pt x="269" y="481" on="1"/>
        <pt x="269" y="407" on="1"/>
        <pt x="324" y="407" on="1"/>
        <pt x="324" y="270" on="1"/>
        <pt x="269" y="270" on="1"/>
        <pt x="269" y="189" on="1"/>
        <pt x="310" y="189" on="1"/>
        <pt x="362" y="189" on="0"/>
        <pt x="386" y="215" on="1"/>
        <pt x="411" y="241" on="0"/>
      </contour>
    </TTGlyph>
    <TTGlyph name="Euro" xMin="15" yMin="-13" xMax="531" yMax="670">
      <contour>
        <pt x="15" y="367" on="1"/>
        <pt x="15" y="427" on="1"/>
        <pt x="43" y="427" on="1"/>
        <pt x="55" y="564" on="0"/>
        <pt x="182" y="670" on="0"/>
        <pt x="330" y="670" on="1"/>
        <pt x="395" y="670" on="0"/>
        <pt x="497" y="650" on="1"/>
        <pt x="531" y="644" on="1"/>
        <pt x="525" y="468" on="1"/>
        <pt x="444" y="478" on="0"/>
        <pt x="329" y="478" on="0"/>
        <pt x="286" y="458" on="0"/>
        <pt x="277" y="427" on="1"/>
        <pt x="495" y="427" on="1"/>
        <pt x="495" y="367" on="1"/>
        <pt x="269" y="367" on="1"/>
        <pt x="269" y="305" on="1"/>
        <pt x="495" y="305" on="1"/>
        <pt x="495" y="245" on="1"/>
        <pt x="274" y="245" on="1"/>
        <pt x="282" y="205" on="0"/>
        <pt x="325" y="180" on="0"/>
        <pt x="375" y="180" on="1"/>
        <pt x="528" y="185" on="1"/>
        <pt x="531" y="13" on="1"/>
        <pt x="427" y="-13" on="0"/>
        <pt x="320" y="-13" on="1"/>
        <pt x="175" y="-13" on="0"/>
        <pt x="53" y="98" on="0"/>
        <pt x="42" y="245" on="1"/>
        <pt x="15" y="245" on="1"/>
        <pt x="15" y="305" on="1"/>
        <pt x="40" y="305" on="1"/>
        <pt x="40" y="367" on="1"/>
      </contour>
    </TTGlyph>
    <TTGlyph name="F" xMin="30" yMin="0" xMax="513" yMax="670">
      <contour>
        <pt x="30" y="0" on="1"/>
        <pt x="30" y="670" on="1"/>
        <pt x="513" y="670" on="1"/>
        <pt x="513" y="481" on="1"/>
        <pt x="262" y="481" on="1"/>
        <pt x="262" y="373" on="1"/>
        <pt x="453" y="373" on="1"/>
        <pt x="453" y="184" on="1"/>
        <pt x="262" y="184" on="1"/>
        <pt x="262" y="0" on="1"/>
      </contour>
    </TTGlyph>
    <TTGlyph name="G" xMin="17" yMin="-9" xMax="592" yMax="683">
      <contour>
        <pt x="592" y="394" on="1"/>
        <pt x="592" y="20" on="1"/>
        <pt x="411" y="-9" on="0"/>
        <pt x="237" y="-9" on="0"/>
        <pt x="114" y="30" on="0"/>
        <pt x="44" y="120" on="0"/>
        <pt x="17" y="242" on="0"/>
        <pt x="17" y="336" on="1"/>
        <pt x="17" y="529" on="0"/>
        <pt x="161" y="683" on="0"/>
        <pt x="332" y="683" on="1"/>
        <pt x="383" y="683" on="0"/>
        <pt x="511" y="666" on="0"/>
        <pt x="549" y="658" on="1"/>
        <pt x="587" y="649" on="1"/>
        <pt x="587" y="474" on="1"/>
        <pt x="443" y="487" on="0"/>
        <pt x="322" y="487" on="0"/>
        <pt x="285" y="476" on="0"/>
        <pt x="263" y="461" on="0"/>
        <pt x="258" y="439" on="1"/>
        <pt x="251" y="408" on="0"/>
        <pt x="251" y="252" on="0"/>
        <pt x="287" y="181" on="0"/>
        <pt x="342" y="181" on="1"/>
        <pt x="376" y="182" on="1"/>
        <pt x="376" y="232" on="1"/>
        <pt x="346" y="232" on="1"/>
        <pt x="345" y="394" on="1"/>
      </contour>
    </TTGlyph>
    <TTGlyph name="Gbreve" xMin="17" yMin="-9" xMax="592" yMax="872">
      <contour>
        <pt x="592" y="394" on="1"/>
        <pt x="592" y="20" on="1"/>
        <pt x="411" y="-9" on="0"/>
        <pt x="237" y="-9" on="0"/>
        <pt x="114" y="30" on="0"/>
        <pt x="44" y="120" on="0"/>
        <pt x="17" y="242" on="0"/>
        <pt x="17" y="336" on="1"/>
        <pt x="17" y="529" on="0"/>
        <pt x="161" y="683" on="0"/>
        <pt x="332" y="683" on="1"/>
        <pt x="383" y="683" on="0"/>
        <pt x="511" y="666" on="0"/>
        <pt x="549" y="658" on="1"/>
        <pt x="587" y="649" on="1"/>
        <pt x="587" y="474" on="1"/>
        <pt x="443" y="487" on="0"/>
        <pt x="322" y="487" on="0"/>
        <pt x="285" y="476" on="0"/>
        <pt x="263" y="461" on="0"/>
        <pt x="258" y="439" on="1"/>
        <pt x="251" y="408" on="0"/>
        <pt x="251" y="252" on="0"/>
        <pt x="287" y="181" on="0"/>
        <pt x="342" y="181" on="1"/>
        <pt x="376" y="182" on="1"/>
        <pt x="376" y="232" on="1"/>
        <pt x="346" y="232" on="1"/>
        <pt x="345" y="394" on="1"/>
      </contour>
      <contour>
        <pt x="410" y="712" on="0"/>
        <pt x="238" y="712" on="0"/>
        <pt x="164" y="797" on="0"/>
        <pt x="164" y="862" on="1"/>
        <pt x="280" y="872" on="1"/>
        <pt x="285" y="827" on="0"/>
        <pt x="363" y="827" on="0"/>
        <pt x="368" y="872" on="1"/>
        <pt x="484" y="862" on="1"/>
        <pt x="484" y="797" on="0"/>
      </contour>
    </TTGlyph>
    <TTGlyph name="Gcircumflex" xMin="17" yMin="-9" xMax="592" yMax="849">
      <contour>
        <pt x="592" y="394" on="1"/>
        <pt x="592" y="20" on="1"/>
        <pt x="411" y="-9" on="0"/>
        <pt x="237" y="-9" on="0"/>
        <pt x="114" y="30" on="0"/>
        <pt x="44" y="120" on="0"/>
        <pt x="17" y="242" on="0"/>
        <pt x="17" y="336" on="1"/>
        <pt x="17" y="529" on="0"/>
        <pt x="161" y="683" on="0"/>
        <pt x="332" y="683" on="1"/>
        <pt x="383" y="683" on="0"/>
        <pt x="511" y="666" on="0"/>
        <pt x="549" y="658" on="1"/>
        <pt x="587" y="649" on="1"/>
        <pt x="587" y="474" on="1"/>
        <pt x="443" y="487" on="0"/>
        <pt x="322" y="487" on="0"/>
        <pt x="285" y="476" on="0"/>
        <pt x="263" y="461" on="0"/>
        <pt x="258" y="439" on="1"/>
        <pt x="251" y="408" on="0"/>
        <pt x="251" y="252" on="0"/>
        <pt x="287" y="181" on="0"/>
        <pt x="342" y="181" on="1"/>
        <pt x="376" y="182" on="1"/>
        <pt x="376" y="232" on="1"/>
        <pt x="346" y="232" on="1"/>
        <pt x="345" y="394" on="1"/>
      </contour>
      <contour>
        <pt x="142" y="713" on="1"/>
        <pt x="243" y="849" on="1"/>
        <pt x="395" y="849" on="1"/>
        <pt x="507" y="713" on="1"/>
        <pt x="338" y="713" on="1"/>
        <pt x="323" y="775" on="1"/>
        <pt x="311" y="713" on="1"/>
      </contour>
    </TTGlyph>
    <TTGlyph name="Gcommaaccent" xMin="17" yMin="-260" xMax="592" yMax="683">
      <contour>
        <pt x="202" y="-260" on="1"/>
        <pt x="222" y="-45" on="1"/>
        <pt x="426" y="-45" on="1"/>
        <pt x="364" y="-260" on="1"/>
      </contour>
      <contour>
        <pt x="592" y="394" on="1"/>
        <pt x="592" y="20" on="1"/>
        <pt x="411" y="-9" on="0"/>
        <pt x="237" y="-9" on="0"/>
        <pt x="114" y="30" on="0"/>
        <pt x="44" y="120" on="0"/>
        <pt x="17" y="242" on="0"/>
        <pt x="17" y="336" on="1"/>
        <pt x="17" y="529" on="0"/>
        <pt x="161" y="683" on="0"/>
        <pt x="332" y="683" on="1"/>
        <pt x="383" y="683" on="0"/>
        <pt x="511" y="666" on="0"/>
        <pt x="549" y="658" on="1"/>
        <pt x="587" y="649" on="1"/>
        <pt x="587" y="474" on="1"/>
        <pt x="443" y="487" on="0"/>
        <pt x="322" y="487" on="0"/>
        <pt x="285" y="476" on="0"/>
        <pt x="263" y="461" on="0"/>
        <pt x="258" y="439" on="1"/>
        <pt x="251" y="408" on="0"/>
        <pt x="251" y="252" on="0"/>
        <pt x="287" y="181" on="0"/>
        <pt x="342" y="181" on="1"/>
        <pt x="376" y="182" on="1"/>
        <pt x="376" y="232" on="1"/>
        <pt x="346" y="232" on="1"/>
        <pt x="345" y="394" on="1"/>
      </contour>
    </TTGlyph>
    <TTGlyph name="Gdotaccent" xMin="17" yMin="-9" xMax="592" yMax="859">
      <contour>
        <pt x="592" y="394" on="1"/>
        <pt x="592" y="20" on="1"/>
        <pt x="411" y="-9" on="0"/>
        <pt x="237" y="-9" on="0"/>
        <pt x="114" y="30" on="0"/>
        <pt x="44" y="120" on="0"/>
        <pt x="17" y="242" on="0"/>
        <pt x="17" y="336" on="1"/>
        <pt x="17" y="529" on="0"/>
        <pt x="161" y="683" on="0"/>
        <pt x="332" y="683" on="1"/>
        <pt x="383" y="683" on="0"/>
        <pt x="511" y="666" on="0"/>
        <pt x="549" y="658" on="1"/>
        <pt x="587" y="649" on="1"/>
        <pt x="587" y="474" on="1"/>
        <pt x="443" y="487" on="0"/>
        <pt x="322" y="487" on="0"/>
        <pt x="285" y="476" on="0"/>
        <pt x="263" y="461" on="0"/>
        <pt x="258" y="439" on="1"/>
        <pt x="251" y="408" on="0"/>
        <pt x="251" y="252" on="0"/>
        <pt x="287" y="181" on="0"/>
        <pt x="342" y="181" on="1"/>
        <pt x="376" y="182" on="1"/>
        <pt x="376" y="232" on="1"/>
        <pt x="346" y="232" on="1"/>
        <pt x="345" y="394" on="1"/>
      </contour>
      <contour>
        <pt x="211" y="706" on="1"/>
        <pt x="211" y="859" on="1"/>
        <pt x="397" y="859" on="1"/>
        <pt x="397" y="706" on="1"/>
      </contour>
    </TTGlyph>
    <TTGlyph name="H" xMin="30" yMin="0" xMax="625" yMax="670">
      <contour>
        <pt x="393" y="0" on="1"/>
        <pt x="393" y="234" on="1"/>
        <pt x="262" y="234" on="1"/>
        <pt x="262" y="0" on="1"/>
        <pt x="30" y="0" on="1"/>
        <pt x="30" y="670" on="1"/>
        <pt x="262" y="670" on="1"/>
        <pt x="262" y="423" on="1"/>
        <pt x="393" y="423" on="1"/>
        <pt x="393" y="670" on="1"/>
        <pt x="625" y="670" on="1"/>
        <pt x="625" y="0" on="1"/>
      </contour>
    </TTGlyph>
    <TTGlyph name="Hbar" xMin="4" yMin="0" xMax="655" yMax="670">
      <contour>
        <pt x="4" y="473" on="1"/>
        <pt x="4" y="605" on="1"/>
        <pt x="32" y="605" on="1"/>
        <pt x="32" y="670" on="1"/>
        <pt x="264" y="670" on="1"/>
        <pt x="264" y="605" on="1"/>
        <pt x="395" y="605" on="1"/>
        <pt x="395" y="670" on="1"/>
        <pt x="627" y="670" on="1"/>
        <pt x="627" y="605" on="1"/>
        <pt x="655" y="605" on="1"/>
        <pt x="655" y="473" on="1"/>
        <pt x="627" y="473" on="1"/>
        <pt x="627" y="0" on="1"/>
        <pt x="395" y="0" on="1"/>
        <pt x="395" y="234" on="1"/>
        <pt x="264" y="234" on="1"/>
        <pt x="264" y="0" on="1"/>
        <pt x="32" y="0" on="1"/>
        <pt x="32" y="473" on="1"/>
      </contour>
      <contour>
        <pt x="264" y="423" on="1"/>
        <pt x="395" y="423" on="1"/>
        <pt x="395" y="473" on="1"/>
        <pt x="264" y="473" on="1"/>
      </contour>
    </TTGlyph>
    <TTGlyph name="Hcircumflex" xMin="30" yMin="0" xMax="625" yMax="849">
      <contour>
        <pt x="393" y="0" on="1"/>
        <pt x="393" y="234" on="1"/>
        <pt x="262" y="234" on="1"/>
        <pt x="262" y="0" on="1"/>
        <pt x="30" y="0" on="1"/>
        <pt x="30" y="670" on="1"/>
        <pt x="262" y="670" on="1"/>
        <pt x="262" y="423" on="1"/>
        <pt x="393" y="423" on="1"/>
        <pt x="393" y="670" on="1"/>
        <pt x="625" y="670" on="1"/>
        <pt x="625" y="0" on="1"/>
      </contour>
      <contour>
        <pt x="145" y="713" on="1"/>
        <pt x="246" y="849" on="1"/>
        <pt x="398" y="849" on="1"/>
        <pt x="510" y="713" on="1"/>
        <pt x="341" y="713" on="1"/>
        <pt x="326" y="775" on="1"/>
        <pt x="314" y="713" on="1"/>
      </contour>
    </TTGlyph>
    <TTGlyph name="I" xMin="30" yMin="0" xMax="262" yMax="670">
      <contour>
        <pt x="30" y="0" on="1"/>
        <pt x="30" y="670" on="1"/>
        <pt x="262" y="670" on="1"/>
        <pt x="262" y="0" on="1"/>
      </contour>
    </TTGlyph>
    <TTGlyph name="Iacute" xMin="30" yMin="0" xMax="325" yMax="849">
      <contour>
        <pt x="30" y="0" on="1"/>
        <pt x="30" y="670" on="1"/>
        <pt x="262" y="670" on="1"/>
        <pt x="262" y="0" on="1"/>
      </contour>
      <contour>
        <pt x="83" y="849" on="1"/>
        <pt x="325" y="849" on="1"/>
        <pt x="216" y="713" on="1"/>
        <pt x="40" y="713" on="1"/>
      </contour>
    </TTGlyph>
    <TTGlyph name="Ibreve" xMin="-14" yMin="0" xMax="306" yMax="872">
      <contour>
        <pt x="30" y="0" on="1"/>
        <pt x="30" y="670" on="1"/>
        <pt x="262" y="670" on="1"/>
        <pt x="262" y="0" on="1"/>
      </contour>
      <contour>
        <pt x="232" y="712" on="0"/>
        <pt x="60" y="712" on="0"/>
        <pt x="-14" y="797" on="0"/>
        <pt x="-14" y="862" on="1"/>
        <pt x="102" y="872" on="1"/>
        <pt x="107" y="827" on="0"/>
        <pt x="185" y="827" on="0"/>
        <pt x="190" y="872" on="1"/>
        <pt x="306" y="862" on="1"/>
        <pt x="306" y="797" on="0"/>
      </contour>
    </TTGlyph>
    <TTGlyph name="Icircumflex" xMin="-39" yMin="0" xMax="326" yMax="849">
      <contour>
        <pt x="30" y="0" on="1"/>
        <pt x="30" y="670" on="1"/>
        <pt x="256" y="670" on="1"/>
        <pt x="256" y="0" on="1"/>
      </contour>
      <contour>
        <pt x="-39" y="713" on="1"/>
        <pt x="62" y="849" on="1"/>
        <pt x="214" y="849" on="1"/>
        <pt x="326" y="713" on="1"/>
        <pt x="157" y="713" on="1"/>
        <pt x="142" y="775" on="1"/>
        <pt x="130" y="713" on="1"/>
      </contour>
    </TTGlyph>
    <TTGlyph name="Idieresis" xMin="-38" yMin="0" xMax="330" yMax="857">
      <contour>
        <pt x="30" y="0" on="1"/>
        <pt x="30" y="670" on="1"/>
        <pt x="262" y="670" on="1"/>
        <pt x="262" y="0" on="1"/>
      </contour>
      <contour>
        <pt x="169" y="713" on="1"/>
        <pt x="169" y="857" on="1"/>
        <pt x="330" y="857" on="1"/>
        <pt x="330" y="713" on="1"/>
      </contour>
      <contour>
        <pt x="-38" y="713" on="1"/>
        <pt x="-38" y="857" on="1"/>
        <pt x="123" y="857" on="1"/>
        <pt x="123" y="713" on="1"/>
      </contour>
    </TTGlyph>
    <TTGlyph name="Idotaccent" xMin="30" yMin="0" xMax="262" yMax="859">
      <contour>
        <pt x="30" y="0" on="1"/>
        <pt x="30" y="670" on="1"/>
        <pt x="262" y="670" on="1"/>
        <pt x="262" y="0" on="1"/>
      </contour>
      <contour>
        <pt x="53" y="706" on="1"/>
        <pt x="53" y="859" on="1"/>
        <pt x="239" y="859" on="1"/>
        <pt x="239" y="706" on="1"/>
      </contour>
    </TTGlyph>
    <TTGlyph name="Igrave" xMin="-30" yMin="0" xMax="256" yMax="849">
      <contour>
        <pt x="30" y="0" on="1"/>
        <pt x="30" y="670" on="1"/>
        <pt x="256" y="670" on="1"/>
        <pt x="256" y="0" on="1"/>
      </contour>
      <contour>
        <pt x="-30" y="849" on="1"/>
        <pt x="212" y="849" on="1"/>
        <pt x="246" y="713" on="1"/>
        <pt x="74" y="713" on="1"/>
      </contour>
    </TTGlyph>
    <TTGlyph name="Imacron" xMin="-14" yMin="0" xMax="307" yMax="849">
      <contour>
        <pt x="30" y="0" on="1"/>
        <pt x="30" y="670" on="1"/>
        <pt x="262" y="670" on="1"/>
        <pt x="262" y="0" on="1"/>
      </contour>
      <contour>
        <pt x="-14" y="713" on="1"/>
        <pt x="-14" y="849" on="1"/>
        <pt x="307" y="849" on="1"/>
        <pt x="307" y="713" on="1"/>
      </contour>
    </TTGlyph>
    <TTGlyph name="Iogonek" xMin="-29" yMin="-221" xMax="262" yMax="670">
      <contour>
        <pt x="30" y="0" on="1"/>
        <pt x="30" y="670" on="1"/>
        <pt x="262" y="670" on="1"/>
        <pt x="262" y="0" on="1"/>
        <pt x="238" y="0" on="1"/>
        <pt x="181" y="-54" on="0"/>
        <pt x="181" y="-106" on="0"/>
        <pt x="203" y="-106" on="1"/>
        <pt x="249" y="-102" on="1"/>
        <pt x="262" y="-206" on="1"/>
        <pt x="213" y="-221" on="0"/>
        <pt x="126" y="-221" on="1"/>
        <pt x="-29" y="-221" on="0"/>
        <pt x="-29" y="-105" on="1"/>
        <pt x="-29" y="-42" on="0"/>
        <pt x="31" y="0" on="1"/>
      </contour>
    </TTGlyph>
    <TTGlyph name="Itilde" xMin="-36" yMin="0" xMax="329" yMax="886">
      <contour>
        <pt x="30" y="0" on="1"/>
        <pt x="30" y="670" on="1"/>
        <pt x="262" y="670" on="1"/>
        <pt x="262" y="0" on="1"/>
      </contour>
      <contour>
        <pt x="302" y="744" on="0"/>
        <pt x="246" y="712" on="0"/>
        <pt x="194" y="712" on="0"/>
        <pt x="87" y="746" on="0"/>
        <pt x="74" y="746" on="1"/>
        <pt x="47" y="746" on="0"/>
        <pt x="7" y="728" on="1"/>
        <pt x="-7" y="721" on="1"/>
        <pt x="-36" y="827" on="1"/>
        <pt x="-19" y="847" on="0"/>
        <pt x="47" y="886" on="0"/>
        <pt x="106" y="886" on="0"/>
        <pt x="208" y="854" on="0"/>
        <pt x="219" y="854" on="1"/>
        <pt x="239" y="854" on="0"/>
        <pt x="286" y="872" on="1"/>
        <pt x="300" y="877" on="1"/>
        <pt x="329" y="770" on="1"/>
        <pt x="323" y="764" on="0"/>
      </contour>
    </TTGlyph>
    <TTGlyph name="J" xMin="15" yMin="-13" xMax="294" yMax="670">
      <contour>
        <pt x="294" y="670" on="1"/>
        <pt x="294" y="177" on="1"/>
        <pt x="294" y="79" on="0"/>
        <pt x="246" y="33" on="1"/>
        <pt x="209" y="-4" on="0"/>
        <pt x="112" y="-10" on="1"/>
        <pt x="75" y="-13" on="0"/>
        <pt x="15" y="-13" on="1"/>
        <pt x="15" y="178" on="1"/>
        <pt x="28" y="178" on="0"/>
        <pt x="40" y="179" on="0"/>
        <pt x="53" y="190" on="0"/>
        <pt x="57" y="204" on="0"/>
        <pt x="59" y="222" on="1"/>
        <pt x="62" y="250" on="0"/>
        <pt x="62" y="322" on="1"/>
        <pt x="62" y="670" on="1"/>
      </contour>
    </TTGlyph>
    <TTGlyph name="Jcircumflex" xMin="2" yMin="-13" xMax="367" yMax="849">
      <contour>
        <pt x="294" y="670" on="1"/>
        <pt x="294" y="177" on="1"/>
        <pt x="294" y="79" on="0"/>
        <pt x="246" y="33" on="1"/>
        <pt x="209" y="-4" on="0"/>
        <pt x="112" y="-10" on="1"/>
        <pt x="75" y="-13" on="0"/>
        <pt x="15" y="-13" on="1"/>
        <pt x="15" y="178" on="1"/>
        <pt x="28" y="178" on="0"/>
        <pt x="40" y="179" on="0"/>
        <pt x="53" y="190" on="0"/>
        <pt x="57" y="204" on="0"/>
        <pt x="59" y="222" on="1"/>
        <pt x="62" y="250" on="0"/>
        <pt x="62" y="322" on="1"/>
        <pt x="62" y="670" on="1"/>
      </contour>
      <contour>
        <pt x="2" y="713" on="1"/>
        <pt x="103" y="849" on="1"/>
        <pt x="255" y="849" on="1"/>
        <pt x="367" y="713" on="1"/>
        <pt x="198" y="713" on="1"/>
        <pt x="183" y="775" on="1"/>
        <pt x="171" y="713" on="1"/>
      </contour>
    </TTGlyph>
    <TTGlyph name="K" xMin="30" yMin="0" xMax="617" yMax="670">
      <contour>
        <pt x="262" y="223" on="1"/>
        <pt x="262" y="0" on="1"/>
        <pt x="30" y="0" on="1"/>
        <pt x="30" y="670" on="1"/>
        <pt x="262" y="670" on="1"/>
        <pt x="262" y="433" on="1"/>
        <pt x="302" y="433" on="1"/>
        <pt x="377" y="670" on="1"/>
        <pt x="607" y="670" on="1"/>
        <pt x="500" y="346" on="1"/>
        <pt x="617" y="0" on="1"/>
        <pt x="384" y="0" on="1"/>
        <pt x="303" y="223" on="1"/>
      </contour>
    </TTGlyph>
    <TTGlyph name="Kcommaaccent" xMin="30" yMin="-260" xMax="617" yMax="670">
      <contour>
        <pt x="174" y="-260" on="1"/>
        <pt x="194" y="-45" on="1"/>
        <pt x="398" y="-45" on="1"/>
        <pt x="336" y="-260" on="1"/>
      </contour>
      <contour>
        <pt x="262" y="223" on="1"/>
        <pt x="262" y="0" on="1"/>
        <pt x="30" y="0" on="1"/>
        <pt x="30" y="670" on="1"/>
        <pt x="262" y="670" on="1"/>
        <pt x="262" y="433" on="1"/>
        <pt x="302" y="433" on="1"/>
        <pt x="377" y="670" on="1"/>
        <pt x="607" y="670" on="1"/>
        <pt x="500" y="346" on="1"/>
        <pt x="617" y="0" on="1"/>
        <pt x="384" y="0" on="1"/>
        <pt x="303" y="223" on="1"/>
      </contour>
    </TTGlyph>
    <TTGlyph name="L" xMin="30" yMin="0" xMax="480" yMax="670">
      <contour>
        <pt x="480" y="0" on="1"/>
        <pt x="30" y="0" on="1"/>
        <pt x="30" y="670" on="1"/>
        <pt x="262" y="670" on="1"/>
        <pt x="262" y="189" on="1"/>
        <pt x="480" y="189" on="1"/>
      </contour>
    </TTGlyph>
    <TTGlyph name="Lacute" xMin="30" yMin="0" xMax="480" yMax="849">
      <contour>
        <pt x="480" y="0" on="1"/>
        <pt x="30" y="0" on="1"/>
        <pt x="30" y="670" on="1"/>
        <pt x="262" y="670" on="1"/>
        <pt x="262" y="189" on="1"/>
        <pt x="480" y="189" on="1"/>
      </contour>
      <contour>
        <pt x="83" y="849" on="1"/>
        <pt x="325" y="849" on="1"/>
        <pt x="216" y="713" on="1"/>
        <pt x="40" y="713" on="1"/>
      </contour>
    </TTGlyph>
    <TTGlyph name="Lcaron" xMin="30" yMin="0" xMax="542" yMax="703">
      <contour>
        <pt x="318" y="488" on="1"/>
        <pt x="338" y="703" on="1"/>
        <pt x="542" y="703" on="1"/>
        <pt x="480" y="488" on="1"/>
      </contour>
      <contour>
        <pt x="480" y="0" on="1"/>
        <pt x="30" y="0" on="1"/>
        <pt x="30" y="670" on="1"/>
        <pt x="262" y="670" on="1"/>
        <pt x="262" y="189" on="1"/>
        <pt x="480" y="189" on="1"/>
      </contour>
    </TTGlyph>
    <TTGlyph name="Lcommaaccent" xMin="30" yMin="-260" xMax="480" yMax="670">
      <contour>
        <pt x="135" y="-260" on="1"/>
        <pt x="155" y="-45" on="1"/>
        <pt x="359" y="-45" on="1"/>
        <pt x="297" y="-260" on="1"/>
      </contour>
      <contour>
        <pt x="480" y="0" on="1"/>
        <pt x="30" y="0" on="1"/>
        <pt x="30" y="670" on="1"/>
        <pt x="262" y="670" on="1"/>
        <pt x="262" y="189" on="1"/>
        <pt x="480" y="189" on="1"/>
      </contour>
    </TTGlyph>
    <TTGlyph name="Lslash" xMin="3" yMin="0" xMax="484" yMax="670">
      <contour>
        <pt x="34" y="670" on="1"/>
        <pt x="266" y="670" on="1"/>
        <pt x="266" y="469" on="1"/>
        <pt x="340" y="506" on="1"/>
        <pt x="340" y="319" on="1"/>
        <pt x="266" y="282" on="1"/>
        <pt x="266" y="189" on="1"/>
        <pt x="484" y="189" on="1"/>
        <pt x="484" y="0" on="1"/>
        <pt x="34" y="0" on="1"/>
        <pt x="34" y="166" on="1"/>
        <pt x="3" y="151" on="1"/>
        <pt x="3" y="338" on="1"/>
        <pt x="34" y="353" on="1"/>
      </contour>
    </TTGlyph>
    <TTGlyph name="M" xMin="30" yMin="0" xMax="825" yMax="670">
      <contour>
        <pt x="30" y="0" on="1"/>
        <pt x="30" y="670" on="1"/>
        <pt x="375" y="670" on="1"/>
        <pt x="427" y="414" on="1"/>
        <pt x="470" y="670" on="1"/>
        <pt x="825" y="670" on="1"/>
        <pt x="825" y="0" on="1"/>
        <pt x="593" y="0" on="1"/>
        <pt x="593" y="345" on="1"/>
        <pt x="582" y="345" on="1"/>
        <pt x="524" y="7" on="1"/>
        <pt x="330" y="7" on="1"/>
        <pt x="273" y="345" on="1"/>
        <pt x="262" y="345" on="1"/>
        <pt x="262" y="0" on="1"/>
      </contour>
    </TTGlyph>
    <TTGlyph name="N" xMin="30" yMin="0" xMax="658" yMax="670">
      <contour>
        <pt x="30" y="0" on="1"/>
        <pt x="30" y="670" on="1"/>
        <pt x="258" y="670" on="1"/>
        <pt x="412" y="416" on="1"/>
        <pt x="426" y="416" on="1"/>
        <pt x="426" y="670" on="1"/>
        <pt x="658" y="670" on="1"/>
        <pt x="658" y="0" on="1"/>
        <pt x="429" y="0" on="1"/>
        <pt x="277" y="273" on="1"/>
        <pt x="262" y="273" on="1"/>
        <pt x="262" y="0" on="1"/>
      </contour>
    </TTGlyph>
    <TTGlyph name="Nacute" xMin="30" yMin="0" xMax="658" yMax="849">
      <contour>
        <pt x="30" y="0" on="1"/>
        <pt x="30" y="670" on="1"/>
        <pt x="258" y="670" on="1"/>
        <pt x="412" y="416" on="1"/>
        <pt x="426" y="416" on="1"/>
        <pt x="426" y="670" on="1"/>
        <pt x="658" y="670" on="1"/>
        <pt x="658" y="0" on="1"/>
        <pt x="429" y="0" on="1"/>
        <pt x="277" y="273" on="1"/>
        <pt x="262" y="273" on="1"/>
        <pt x="262" y="0" on="1"/>
      </contour>
      <contour>
        <pt x="255" y="849" on="1"/>
        <pt x="497" y="849" on="1"/>
        <pt x="388" y="713" on="1"/>
        <pt x="212" y="713" on="1"/>
      </contour>
    </TTGlyph>
    <TTGlyph name="Ncaron" xMin="30" yMin="0" xMax="658" yMax="848">
      <contour>
        <pt x="30" y="0" on="1"/>
        <pt x="30" y="670" on="1"/>
        <pt x="258" y="670" on="1"/>
        <pt x="412" y="416" on="1"/>
        <pt x="426" y="416" on="1"/>
        <pt x="426" y="670" on="1"/>
        <pt x="658" y="670" on="1"/>
        <pt x="658" y="0" on="1"/>
        <pt x="429" y="0" on="1"/>
        <pt x="277" y="273" on="1"/>
        <pt x="262" y="273" on="1"/>
        <pt x="262" y="0" on="1"/>
      </contour>
      <contour>
        <pt x="263" y="712" on="1"/>
        <pt x="162" y="848" on="1"/>
        <pt x="331" y="848" on="1"/>
        <pt x="345" y="786" on="1"/>
        <pt x="358" y="848" on="1"/>
        <pt x="527" y="848" on="1"/>
        <pt x="415" y="712" on="1"/>
      </contour>
    </TTGlyph>
    <TTGlyph name="Ncommaaccent" xMin="30" yMin="-260" xMax="658" yMax="670">
      <contour>
        <pt x="242" y="-260" on="1"/>
        <pt x="262" y="-45" on="1"/>
        <pt x="466" y="-45" on="1"/>
        <pt x="404" y="-260" on="1"/>
      </contour>
      <contour>
        <pt x="30" y="0" on="1"/>
        <pt x="30" y="670" on="1"/>
        <pt x="258" y="670" on="1"/>
        <pt x="412" y="416" on="1"/>
        <pt x="426" y="416" on="1"/>
        <pt x="426" y="670" on="1"/>
        <pt x="658" y="670" on="1"/>
        <pt x="658" y="0" on="1"/>
        <pt x="429" y="0" on="1"/>
        <pt x="277" y="273" on="1"/>
        <pt x="262" y="273" on="1"/>
        <pt x="262" y="0" on="1"/>
      </contour>
    </TTGlyph>
    <TTGlyph name="Ntilde" xMin="30" yMin="0" xMax="658" yMax="886">
      <contour>
        <pt x="30" y="0" on="1"/>
        <pt x="30" y="670" on="1"/>
        <pt x="258" y="670" on="1"/>
        <pt x="412" y="416" on="1"/>
        <pt x="426" y="416" on="1"/>
        <pt x="426" y="670" on="1"/>
        <pt x="658" y="670" on="1"/>
        <pt x="658" y="0" on="1"/>
        <pt x="429" y="0" on="1"/>
        <pt x="277" y="273" on="1"/>
        <pt x="262" y="273" on="1"/>
        <pt x="262" y="0" on="1"/>
      </contour>
      <contour>
        <pt x="499" y="744" on="0"/>
        <pt x="443" y="712" on="0"/>
        <pt x="391" y="712" on="0"/>
        <pt x="284" y="746" on="0"/>
        <pt x="271" y="746" on="1"/>
        <pt x="244" y="746" on="0"/>
        <pt x="204" y="728" on="1"/>
        <pt x="190" y="721" on="1"/>
        <pt x="161" y="827" on="1"/>
        <pt x="178" y="847" on="0"/>
        <pt x="244" y="886" on="0"/>
        <pt x="303" y="886" on="0"/>
        <pt x="405" y="854" on="0"/>
        <pt x="416" y="854" on="1"/>
        <pt x="436" y="854" on="0"/>
        <pt x="482" y="872" on="1"/>
        <pt x="497" y="877" on="1"/>
        <pt x="526" y="770" on="1"/>
        <pt x="520" y="764" on="0"/>
      </contour>
    </TTGlyph>
    <TTGlyph name="O" xMin="16" yMin="-13" xMax="654" yMax="683">
      <contour>
        <pt x="250" y="250" on="0"/>
        <pt x="283" y="175" on="0"/>
        <pt x="388" y="175" on="0"/>
        <pt x="420" y="249" on="0"/>
        <pt x="420" y="422" on="0"/>
        <pt x="389" y="495" on="0"/>
        <pt x="283" y="495" on="0"/>
        <pt x="250" y="420" on="0"/>
      </contour>
      <contour>
        <pt x="654" y="152" on="0"/>
        <pt x="502" y="-13" on="0"/>
        <pt x="169" y="-13" on="0"/>
        <pt x="16" y="153" on="0"/>
        <pt x="16" y="518" on="0"/>
        <pt x="168" y="683" on="0"/>
        <pt x="502" y="683" on="0"/>
        <pt x="654" y="518" on="0"/>
      </contour>
    </TTGlyph>
    <TTGlyph name="OE" xMin="18" yMin="-13" xMax="869" yMax="683">
      <contour>
        <pt x="869" y="670" on="1"/>
        <pt x="869" y="485" on="1"/>
        <pt x="630" y="485" on="1"/>
        <pt x="630" y="427" on="1"/>
        <pt x="809" y="427" on="1"/>
        <pt x="809" y="246" on="1"/>
        <pt x="630" y="246" on="1"/>
        <pt x="630" y="185" on="1"/>
        <pt x="869" y="185" on="1"/>
        <pt x="869" y="0" on="1"/>
        <pt x="484" y="0" on="1"/>
        <pt x="370" y="-13" on="0"/>
        <pt x="291" y="-13" on="1"/>
        <pt x="135" y="-13" on="0"/>
        <pt x="18" y="149" on="0"/>
        <pt x="18" y="531" on="0"/>
        <pt x="140" y="683" on="0"/>
        <pt x="301" y="683" on="1"/>
        <pt x="484" y="670" on="1"/>
      </contour>
      <contour>
        <pt x="357" y="175" on="1"/>
        <pt x="398" y="175" on="1"/>
        <pt x="398" y="493" on="1"/>
        <pt x="370" y="495" on="0"/>
        <pt x="357" y="495" on="1"/>
        <pt x="286" y="495" on="0"/>
        <pt x="246" y="434" on="0"/>
        <pt x="246" y="340" on="1"/>
        <pt x="246" y="266" on="0"/>
        <pt x="259" y="209" on="0"/>
        <pt x="271" y="199" on="1"/>
        <pt x="300" y="175" on="0"/>
      </contour>
    </TTGlyph>
    <TTGlyph name="Oacute" xMin="16" yMin="-13" xMax="654" yMax="849">
      <contour>
        <pt x="250" y="250" on="0"/>
        <pt x="283" y="175" on="0"/>
        <pt x="388" y="175" on="0"/>
        <pt x="420" y="249" on="0"/>
        <pt x="420" y="422" on="0"/>
        <pt x="389" y="495" on="0"/>
        <pt x="283" y="495" on="0"/>
        <pt x="250" y="420" on="0"/>
      </contour>
      <contour>
        <pt x="654" y="152" on="0"/>
        <pt x="502" y="-13" on="0"/>
        <pt x="169" y="-13" on="0"/>
        <pt x="16" y="153" on="0"/>
        <pt x="16" y="518" on="0"/>
        <pt x="168" y="683" on="0"/>
        <pt x="502" y="683" on="0"/>
        <pt x="654" y="518" on="0"/>
      </contour>
      <contour>
        <pt x="246" y="849" on="1"/>
        <pt x="488" y="849" on="1"/>
        <pt x="379" y="713" on="1"/>
        <pt x="203" y="713" on="1"/>
      </contour>
    </TTGlyph>
    <TTGlyph name="Obreve" xMin="16" yMin="-13" xMax="654" yMax="872">
      <contour>
        <pt x="250" y="250" on="0"/>
        <pt x="283" y="175" on="0"/>
        <pt x="388" y="175" on="0"/>
        <pt x="420" y="249" on="0"/>
        <pt x="420" y="422" on="0"/>
        <pt x="389" y="495" on="0"/>
        <pt x="283" y="495" on="0"/>
        <pt x="250" y="420" on="0"/>
      </contour>
      <contour>
        <pt x="654" y="152" on="0"/>
        <pt x="502" y="-13" on="0"/>
        <pt x="169" y="-13" on="0"/>
        <pt x="16" y="153" on="0"/>
        <pt x="16" y="518" on="0"/>
        <pt x="168" y="683" on="0"/>
        <pt x="502" y="683" on="0"/>
        <pt x="654" y="518" on="0"/>
      </contour>
      <contour>
        <pt x="421" y="712" on="0"/>
        <pt x="249" y="712" on="0"/>
        <pt x="175" y="797" on="0"/>
        <pt x="175" y="862" on="1"/>
        <pt x="291" y="872" on="1"/>
        <pt x="296" y="827" on="0"/>
        <pt x="374" y="827" on="0"/>
        <pt x="379" y="872" on="1"/>
        <pt x="495" y="862" on="1"/>
        <pt x="495" y="797" on="0"/>
      </contour>
    </TTGlyph>
    <TTGlyph name="Ocircumflex" xMin="16" yMin="-13" xMax="654" yMax="849">
      <contour>
        <pt x="250" y="250" on="0"/>
        <pt x="283" y="175" on="0"/>
        <pt x="388" y="175" on="0"/>
        <pt x="420" y="249" on="0"/>
        <pt x="420" y="422" on="0"/>
        <pt x="389" y="495" on="0"/>
        <pt x="283" y="495" on="0"/>
        <pt x="250" y="420" on="0"/>
      </contour>
      <contour>
        <pt x="654" y="152" on="0"/>
        <pt x="502" y="-13" on="0"/>
        <pt x="169" y="-13" on="0"/>
        <pt x="16" y="153" on="0"/>
        <pt x="16" y="518" on="0"/>
        <pt x="168" y="683" on="0"/>
        <pt x="502" y="683" on="0"/>
        <pt x="654" y="518" on="0"/>
      </contour>
      <contour>
        <pt x="153" y="713" on="1"/>
        <pt x="254" y="849" on="1"/>
        <pt x="406" y="849" on="1"/>
        <pt x="518" y="713" on="1"/>
        <pt x="349" y="713" on="1"/>
        <pt x="334" y="775" on="1"/>
        <pt x="322" y="713" on="1"/>
      </contour>
    </TTGlyph>
    <TTGlyph name="Odieresis" xMin="16" yMin="-13" xMax="654" yMax="857">
      <contour>
        <pt x="250" y="250" on="0"/>
        <pt x="283" y="175" on="0"/>
        <pt x="388" y="175" on="0"/>
        <pt x="420" y="249" on="0"/>
        <pt x="420" y="422" on="0"/>
        <pt x="389" y="495" on="0"/>
        <pt x="283" y="495" on="0"/>
        <pt x="250" y="420" on="0"/>
      </contour>
      <contour>
        <pt x="654" y="152" on="0"/>
        <pt x="502" y="-13" on="0"/>
        <pt x="169" y="-13" on="0"/>
        <pt x="16" y="153" on="0"/>
        <pt x="16" y="518" on="0"/>
        <pt x="168" y="683" on="0"/>
        <pt x="502" y="683" on="0"/>
        <pt x="654" y="518" on="0"/>
      </contour>
      <contour>
        <pt x="358" y="713" on="1"/>
        <pt x="358" y="857" on="1"/>
        <pt x="519" y="857" on="1"/>
        <pt x="519" y="713" on="1"/>
      </contour>
      <contour>
        <pt x="151" y="713" on="1"/>
        <pt x="151" y="857" on="1"/>
        <pt x="312" y="857" on="1"/>
        <pt x="312" y="713" on="1"/>
      </contour>
    </TTGlyph>
    <TTGlyph name="Ograve" xMin="16" yMin="-13" xMax="654" yMax="849">
      <contour>
        <pt x="250" y="250" on="0"/>
        <pt x="283" y="175" on="0"/>
        <pt x="388" y="175" on="0"/>
        <pt x="420" y="249" on="0"/>
        <pt x="420" y="422" on="0"/>
        <pt x="389" y="495" on="0"/>
        <pt x="283" y="495" on="0"/>
        <pt x="250" y="420" on="0"/>
      </contour>
      <contour>
        <pt x="654" y="152" on="0"/>
        <pt x="502" y="-13" on="0"/>
        <pt x="169" y="-13" on="0"/>
        <pt x="16" y="153" on="0"/>
        <pt x="16" y="518" on="0"/>
        <pt x="168" y="683" on="0"/>
        <pt x="502" y="683" on="0"/>
        <pt x="654" y="518" on="0"/>
      </contour>
      <contour>
        <pt x="157" y="849" on="1"/>
        <pt x="399" y="849" on="1"/>
        <pt x="433" y="713" on="1"/>
        <pt x="261" y="713" on="1"/>
      </contour>
    </TTGlyph>
    <TTGlyph name="Ohungarumlaut" xMin="16" yMin="-13" xMax="654" yMax="849">
      <contour>
        <pt x="250" y="250" on="0"/>
        <pt x="283" y="175" on="0"/>
        <pt x="388" y="175" on="0"/>
        <pt x="420" y="249" on="0"/>
        <pt x="420" y="422" on="0"/>
        <pt x="389" y="495" on="0"/>
        <pt x="283" y="495" on="0"/>
        <pt x="250" y="420" on="0"/>
      </contour>
      <contour>
        <pt x="654" y="152" on="0"/>
        <pt x="502" y="-13" on="0"/>
        <pt x="169" y="-13" on="0"/>
        <pt x="16" y="153" on="0"/>
        <pt x="16" y="518" on="0"/>
        <pt x="168" y="683" on="0"/>
        <pt x="502" y="683" on="0"/>
        <pt x="654" y="518" on="0"/>
      </contour>
      <contour>
        <pt x="181" y="849" on="1"/>
        <pt x="368" y="849" on="1"/>
        <pt x="279" y="713" on="1"/>
        <pt x="148" y="713" on="1"/>
      </contour>
      <contour>
        <pt x="396" y="849" on="1"/>
        <pt x="583" y="849" on="1"/>
        <pt x="494" y="713" on="1"/>
        <pt x="363" y="713" on="1"/>
      </contour>
    </TTGlyph>
    <TTGlyph name="Omacron" xMin="16" yMin="-13" xMax="654" yMax="849">
      <contour>
        <pt x="250" y="250" on="0"/>
        <pt x="283" y="175" on="0"/>
        <pt x="388" y="175" on="0"/>
        <pt x="420" y="249" on="0"/>
        <pt x="420" y="422" on="0"/>
        <pt x="389" y="495" on="0"/>
        <pt x="283" y="495" on="0"/>
        <pt x="250" y="420" on="0"/>
      </contour>
      <contour>
        <pt x="654" y="152" on="0"/>
        <pt x="502" y="-13" on="0"/>
        <pt x="169" y="-13" on="0"/>
        <pt x="16" y="153" on="0"/>
        <pt x="16" y="518" on="0"/>
        <pt x="168" y="683" on="0"/>
        <pt x="502" y="683" on="0"/>
        <pt x="654" y="518" on="0"/>
      </contour>
      <contour>
        <pt x="175" y="713" on="1"/>
        <pt x="175" y="849" on="1"/>
        <pt x="496" y="849" on="1"/>
        <pt x="496" y="713" on="1"/>
      </contour>
    </TTGlyph>
    <TTGlyph name="Omega" xMin="40" yMin="0" xMax="510" yMax="670">
      <contour>
        <pt x="40" y="180" on="1"/>
        <pt x="108" y="180" on="1"/>
        <pt x="103" y="183" on="0"/>
        <pt x="85" y="205" on="0"/>
        <pt x="60" y="303" on="0"/>
        <pt x="60" y="376" on="1"/>
        <pt x="60" y="530" on="0"/>
        <pt x="148" y="670" on="0"/>
        <pt x="275" y="670" on="1"/>
        <pt x="406" y="670" on="0"/>
        <pt x="450" y="593" on="1"/>
        <pt x="472" y="553" on="0"/>
        <pt x="489" y="452" on="0"/>
        <pt x="489" y="304" on="0"/>
        <pt x="464" y="207" on="0"/>
        <pt x="447" y="184" on="0"/>
        <pt x="440" y="180" on="1"/>
        <pt x="510" y="180" on="1"/>
        <pt x="510" y="0" on="1"/>
        <pt x="304" y="0" on="1"/>
        <pt x="304" y="170" on="1"/>
        <pt x="309" y="176" on="0"/>
        <pt x="323" y="202" on="0"/>
        <pt x="346" y="303" on="0"/>
        <pt x="346" y="479" on="0"/>
        <pt x="324" y="537" on="0"/>
        <pt x="225" y="537" on="0"/>
        <pt x="203" y="479" on="0"/>
        <pt x="203" y="303" on="0"/>
        <pt x="224" y="205" on="0"/>
        <pt x="234" y="188" on="1"/>
        <pt x="245" y="170" on="1"/>
        <pt x="245" y="0" on="1"/>
        <pt x="40" y="0" on="1"/>
      </contour>
    </TTGlyph>
    <TTGlyph name="Oslash" xMin="16" yMin="-54" xMax="654" yMax="724">
      <contour>
        <pt x="83" y="-10" on="1"/>
        <pt x="86" y="-1" on="0"/>
        <pt x="109" y="53" on="1"/>
        <pt x="16" y="136" on="0"/>
        <pt x="16" y="518" on="0"/>
        <pt x="168" y="683" on="0"/>
        <pt x="335" y="683" on="1"/>
        <pt x="363" y="682" on="1"/>
        <pt x="381" y="724" on="1"/>
        <pt x="598" y="680" on="1"/>
        <pt x="569" y="609" on="1"/>
        <pt x="654" y="527" on="0"/>
        <pt x="654" y="152" on="0"/>
        <pt x="502" y="-13" on="0"/>
        <pt x="335" y="-13" on="1"/>
        <pt x="316" y="-13" on="1"/>
        <pt x="300" y="-54" on="1"/>
      </contour>
      <contour>
        <pt x="250" y="250" on="0"/>
        <pt x="283" y="175" on="0"/>
        <pt x="388" y="175" on="0"/>
        <pt x="420" y="249" on="0"/>
        <pt x="420" y="422" on="0"/>
        <pt x="389" y="495" on="0"/>
        <pt x="283" y="495" on="0"/>
        <pt x="250" y="420" on="0"/>
      </contour>
    </TTGlyph>
    <TTGlyph name="Oslashacute" xMin="16" yMin="-54" xMax="654" yMax="864">
      <contour>
        <pt x="83" y="-10" on="1"/>
        <pt x="86" y="-1" on="0"/>
        <pt x="109" y="53" on="1"/>
        <pt x="16" y="136" on="0"/>
        <pt x="16" y="518" on="0"/>
        <pt x="168" y="683" on="0"/>
        <pt x="335" y="683" on="1"/>
        <pt x="363" y="682" on="1"/>
        <pt x="381" y="724" on="1"/>
        <pt x="598" y="680" on="1"/>
        <pt x="569" y="609" on="1"/>
        <pt x="654" y="527" on="0"/>
        <pt x="654" y="152" on="0"/>
        <pt x="502" y="-13" on="0"/>
        <pt x="335" y="-13" on="1"/>
        <pt x="316" y="-13" on="1"/>
        <pt x="300" y="-54" on="1"/>
      </contour>
      <contour>
        <pt x="250" y="250" on="0"/>
        <pt x="283" y="175" on="0"/>
        <pt x="388" y="175" on="0"/>
        <pt x="420" y="249" on="0"/>
        <pt x="420" y="422" on="0"/>
        <pt x="389" y="495" on="0"/>
        <pt x="283" y="495" on="0"/>
        <pt x="250" y="420" on="0"/>
      </contour>
      <contour>
        <pt x="246" y="864" on="1"/>
        <pt x="488" y="864" on="1"/>
        <pt x="379" y="728" on="1"/>
        <pt x="203" y="728" on="1"/>
      </contour>
    </TTGlyph>
    <TTGlyph name="Otilde" xMin="16" yMin="-13" xMax="654" yMax="886">
      <contour>
        <pt x="250" y="250" on="0"/>
        <pt x="283" y="175" on="0"/>
        <pt x="388" y="175" on="0"/>
        <pt x="420" y="249" on="0"/>
        <pt x="420" y="422" on="0"/>
        <pt x="389" y="495" on="0"/>
        <pt x="283" y="495" on="0"/>
        <pt x="250" y="420" on="0"/>
      </contour>
      <contour>
        <pt x="654" y="152" on="0"/>
        <pt x="502" y="-13" on="0"/>
        <pt x="169" y="-13" on="0"/>
        <pt x="16" y="153" on="0"/>
        <pt x="16" y="518" on="0"/>
        <pt x="168" y="683" on="0"/>
        <pt x="502" y="683" on="0"/>
        <pt x="654" y="518" on="0"/>
      </contour>
      <contour>
        <pt x="491" y="744" on="0"/>
        <pt x="435" y="712" on="0"/>
        <pt x="383" y="712" on="0"/>
        <pt x="276" y="746" on="0"/>
        <pt x="263" y="746" on="1"/>
        <pt x="236" y="746" on="0"/>
        <pt x="196" y="728" on="1"/>
        <pt x="182" y="721" on="1"/>
        <pt x="153" y="827" on="1"/>
        <pt x="170" y="847" on="0"/>
        <pt x="236" y="886" on="0"/>
        <pt x="295" y="886" on="0"/>
        <pt x="397" y="854" on="0"/>
        <pt x="408" y="854" on="1"/>
        <pt x="428" y="854" on="0"/>
        <pt x="474" y="872" on="1"/>
        <pt x="489" y="877" on="1"/>
        <pt x="518" y="770" on="1"/>
        <pt x="512" y="764" on="0"/>
      </contour>
    </TTGlyph>
    <TTGlyph name="P" xMin="30" yMin="0" xMax="597" yMax="670">
      <contour>
        <pt x="293" y="142" on="1"/>
        <pt x="262" y="142" on="1"/>
        <pt x="262" y="0" on="1"/>
        <pt x="30" y="0" on="1"/>
        <pt x="30" y="670" on="1"/>
        <pt x="293" y="670" on="1"/>
        <pt x="452" y="670" on="0"/>
        <pt x="597" y="560" on="0"/>
        <pt x="597" y="257" on="0"/>
        <pt x="451" y="142" on="0"/>
      </contour>
      <contour>
        <pt x="262" y="325" on="1"/>
        <pt x="283" y="325" on="1"/>
        <pt x="326" y="325" on="0"/>
        <pt x="363" y="363" on="0"/>
        <pt x="363" y="455" on="0"/>
        <pt x="328" y="487" on="0"/>
        <pt x="283" y="487" on="1"/>
        <pt x="262" y="487" on="1"/>
      </contour>
    </TTGlyph>
    <TTGlyph name="Q" xMin="16" yMin="-158" xMax="651" yMax="683">
      <contour>
        <pt x="332" y="-13" on="1"/>
        <pt x="165" y="-13" on="0"/>
        <pt x="16" y="150" on="0"/>
        <pt x="16" y="520" on="0"/>
        <pt x="163" y="683" on="0"/>
        <pt x="501" y="683" on="0"/>
        <pt x="651" y="520" on="0"/>
        <pt x="651" y="128" on="0"/>
        <pt x="555" y="48" on="1"/>
        <pt x="635" y="-71" on="1"/>
        <pt x="459" y="-158" on="1"/>
        <pt x="361" y="-12" on="1"/>
        <pt x="352" y="-13" on="0"/>
      </contour>
      <contour>
        <pt x="244" y="252" on="0"/>
        <pt x="281" y="175" on="0"/>
        <pt x="384" y="175" on="0"/>
        <pt x="417" y="251" on="0"/>
        <pt x="417" y="420" on="0"/>
        <pt x="384" y="495" on="0"/>
        <pt x="281" y="495" on="0"/>
        <pt x="244" y="418" on="0"/>
      </contour>
    </TTGlyph>
    <TTGlyph name="R" xMin="30" yMin="0" xMax="601" yMax="670">
      <contour>
        <pt x="319" y="173" on="1"/>
        <pt x="262" y="173" on="1"/>
        <pt x="262" y="0" on="1"/>
        <pt x="30" y="0" on="1"/>
        <pt x="30" y="670" on="1"/>
        <pt x="312" y="670" on="1"/>
        <pt x="467" y="670" on="0"/>
        <pt x="601" y="567" on="0"/>
        <pt x="601" y="288" on="0"/>
        <pt x="527" y="228" on="1"/>
        <pt x="593" y="0" on="1"/>
        <pt x="357" y="0" on="1"/>
      </contour>
      <contour>
        <pt x="318" y="356" on="1"/>
        <pt x="367" y="356" on="0"/>
        <pt x="367" y="487" on="0"/>
        <pt x="312" y="487" on="1"/>
        <pt x="261" y="487" on="1"/>
        <pt x="261" y="356" on="1"/>
      </contour>
    </TTGlyph>
    <TTGlyph name="Racute" xMin="30" yMin="0" xMax="601" yMax="849">
      <contour>
        <pt x="319" y="173" on="1"/>
        <pt x="262" y="173" on="1"/>
        <pt x="262" y="0" on="1"/>
        <pt x="30" y="0" on="1"/>
        <pt x="30" y="670" on="1"/>
        <pt x="312" y="670" on="1"/>
        <pt x="467" y="670" on="0"/>
        <pt x="601" y="567" on="0"/>
        <pt x="601" y="288" on="0"/>
        <pt x="527" y="228" on="1"/>
        <pt x="593" y="0" on="1"/>
        <pt x="357" y="0" on="1"/>
      </contour>
      <contour>
        <pt x="226" y="849" on="1"/>
        <pt x="468" y="849" on="1"/>
        <pt x="359" y="713" on="1"/>
        <pt x="183" y="713" on="1"/>
      </contour>
      <contour>
        <pt x="318" y="356" on="1"/>
        <pt x="367" y="356" on="0"/>
        <pt x="367" y="487" on="0"/>
        <pt x="312" y="487" on="1"/>
        <pt x="261" y="487" on="1"/>
        <pt x="261" y="356" on="1"/>
      </contour>
    </TTGlyph>
    <TTGlyph name="Rcaron" xMin="30" yMin="0" xMax="601" yMax="848">
      <contour>
        <pt x="319" y="173" on="1"/>
        <pt x="262" y="173" on="1"/>
        <pt x="262" y="0" on="1"/>
        <pt x="30" y="0" on="1"/>
        <pt x="30" y="670" on="1"/>
        <pt x="312" y="670" on="1"/>
        <pt x="467" y="670" on="0"/>
        <pt x="601" y="567" on="0"/>
        <pt x="601" y="288" on="0"/>
        <pt x="527" y="228" on="1"/>
        <pt x="593" y="0" on="1"/>
        <pt x="357" y="0" on="1"/>
      </contour>
      <contour>
        <pt x="234" y="712" on="1"/>
        <pt x="133" y="848" on="1"/>
        <pt x="302" y="848" on="1"/>
        <pt x="316" y="786" on="1"/>
        <pt x="329" y="848" on="1"/>
        <pt x="498" y="848" on="1"/>
        <pt x="386" y="712" on="1"/>
      </contour>
      <contour>
        <pt x="318" y="356" on="1"/>
        <pt x="367" y="356" on="0"/>
        <pt x="367" y="487" on="0"/>
        <pt x="312" y="487" on="1"/>
        <pt x="261" y="487" on="1"/>
        <pt x="261" y="356" on="1"/>
      </contour>
    </TTGlyph>
    <TTGlyph name="Rcommaaccent" xMin="30" yMin="-260" xMax="601" yMax="670">
      <contour>
        <pt x="319" y="173" on="1"/>
        <pt x="262" y="173" on="1"/>
        <pt x="262" y="0" on="1"/>
        <pt x="30" y="0" on="1"/>
        <pt x="30" y="670" on="1"/>
        <pt x="312" y="670" on="1"/>
        <pt x="467" y="670" on="0"/>
        <pt x="601" y="567" on="0"/>
        <pt x="601" y="288" on="0"/>
        <pt x="527" y="228" on="1"/>
        <pt x="593" y="0" on="1"/>
        <pt x="357" y="0" on="1"/>
      </contour>
      <contour>
        <pt x="193" y="-260" on="1"/>
        <pt x="213" y="-45" on="1"/>
        <pt x="417" y="-45" on="1"/>
        <pt x="355" y="-260" on="1"/>
      </contour>
      <contour>
        <pt x="318" y="356" on="1"/>
        <pt x="367" y="356" on="0"/>
        <pt x="367" y="487" on="0"/>
        <pt x="312" y="487" on="1"/>
        <pt x="261" y="487" on="1"/>
        <pt x="261" y="356" on="1"/>
      </contour>
    </TTGlyph>
    <TTGlyph name="S" xMin="16" yMin="-14" xMax="568" yMax="683">
      <contour>
        <pt x="540" y="477" on="1"/>
        <pt x="399" y="492" on="0"/>
        <pt x="271" y="492" on="0"/>
        <pt x="250" y="485" on="0"/>
        <pt x="250" y="463" on="0"/>
        <pt x="274" y="451" on="0"/>
        <pt x="401" y="423" on="0"/>
        <pt x="482" y="396" on="0"/>
        <pt x="547" y="347" on="0"/>
        <pt x="568" y="276" on="0"/>
        <pt x="568" y="216" on="1"/>
        <pt x="568" y="92" on="0"/>
        <pt x="436" y="-14" on="0"/>
        <pt x="303" y="-14" on="1"/>
        <pt x="239" y="-14" on="0"/>
        <pt x="98" y="4" on="0"/>
        <pt x="60" y="13" on="1"/>
        <pt x="21" y="22" on="1"/>
        <pt x="31" y="199" on="1"/>
        <pt x="184" y="177" on="0"/>
        <pt x="282" y="177" on="1"/>
        <pt x="334" y="177" on="0"/>
        <pt x="334" y="200" on="1"/>
        <pt x="334" y="210" on="0"/>
        <pt x="310" y="219" on="0"/>
        <pt x="257" y="227" on="1"/>
        <pt x="117" y="249" on="0"/>
        <pt x="16" y="342" on="0"/>
        <pt x="16" y="448" on="1"/>
        <pt x="16" y="583" on="0"/>
        <pt x="146" y="683" on="0"/>
        <pt x="281" y="683" on="1"/>
        <pt x="376" y="683" on="0"/>
        <pt x="504" y="664" on="1"/>
        <pt x="546" y="657" on="1"/>
      </contour>
    </TTGlyph>
    <TTGlyph name="Sacute" xMin="16" yMin="-14" xMax="568" yMax="849">
      <contour>
        <pt x="540" y="477" on="1"/>
        <pt x="399" y="492" on="0"/>
        <pt x="271" y="492" on="0"/>
        <pt x="250" y="485" on="0"/>
        <pt x="250" y="463" on="0"/>
        <pt x="274" y="451" on="0"/>
        <pt x="401" y="423" on="0"/>
        <pt x="482" y="396" on="0"/>
        <pt x="547" y="347" on="0"/>
        <pt x="568" y="276" on="0"/>
        <pt x="568" y="216" on="1"/>
        <pt x="568" y="92" on="0"/>
        <pt x="436" y="-14" on="0"/>
        <pt x="303" y="-14" on="1"/>
        <pt x="239" y="-14" on="0"/>
        <pt x="98" y="4" on="0"/>
        <pt x="60" y="13" on="1"/>
        <pt x="21" y="22" on="1"/>
        <pt x="31" y="199" on="1"/>
        <pt x="184" y="177" on="0"/>
        <pt x="282" y="177" on="1"/>
        <pt x="334" y="177" on="0"/>
        <pt x="334" y="200" on="1"/>
        <pt x="334" y="210" on="0"/>
        <pt x="310" y="219" on="0"/>
        <pt x="257" y="227" on="1"/>
        <pt x="117" y="249" on="0"/>
        <pt x="16" y="342" on="0"/>
        <pt x="16" y="448" on="1"/>
        <pt x="16" y="583" on="0"/>
        <pt x="146" y="683" on="0"/>
        <pt x="281" y="683" on="1"/>
        <pt x="376" y="683" on="0"/>
        <pt x="504" y="664" on="1"/>
        <pt x="546" y="657" on="1"/>
      </contour>
      <contour>
        <pt x="204" y="849" on="1"/>
        <pt x="446" y="849" on="1"/>
        <pt x="337" y="713" on="1"/>
        <pt x="161" y="713" on="1"/>
      </contour>
    </TTGlyph>
    <TTGlyph name="Scaron" xMin="16" yMin="-14" xMax="568" yMax="848">
      <contour>
        <pt x="540" y="477" on="1"/>
        <pt x="399" y="492" on="0"/>
        <pt x="271" y="492" on="0"/>
        <pt x="250" y="485" on="0"/>
        <pt x="250" y="463" on="0"/>
        <pt x="274" y="451" on="0"/>
        <pt x="401" y="423" on="0"/>
        <pt x="482" y="396" on="0"/>
        <pt x="547" y="347" on="0"/>
        <pt x="568" y="276" on="0"/>
        <pt x="568" y="216" on="1"/>
        <pt x="568" y="92" on="0"/>
        <pt x="436" y="-14" on="0"/>
        <pt x="303" y="-14" on="1"/>
        <pt x="239" y="-14" on="0"/>
        <pt x="98" y="4" on="0"/>
        <pt x="60" y="13" on="1"/>
        <pt x="21" y="22" on="1"/>
        <pt x="31" y="199" on="1"/>
        <pt x="184" y="177" on="0"/>
        <pt x="282" y="177" on="1"/>
        <pt x="334" y="177" on="0"/>
        <pt x="334" y="200" on="1"/>
        <pt x="334" y="210" on="0"/>
        <pt x="310" y="219" on="0"/>
        <pt x="257" y="227" on="1"/>
        <pt x="117" y="249" on="0"/>
        <pt x="16" y="342" on="0"/>
        <pt x="16" y="448" on="1"/>
        <pt x="16" y="583" on="0"/>
        <pt x="146" y="683" on="0"/>
        <pt x="281" y="683" on="1"/>
        <pt x="376" y="683" on="0"/>
        <pt x="504" y="664" on="1"/>
        <pt x="546" y="657" on="1"/>
      </contour>
      <contour>
        <pt x="211" y="712" on="1"/>
        <pt x="110" y="848" on="1"/>
        <pt x="279" y="848" on="1"/>
        <pt x="293" y="786" on="1"/>
        <pt x="306" y="848" on="1"/>
        <pt x="475" y="848" on="1"/>
        <pt x="363" y="712" on="1"/>
      </contour>
    </TTGlyph>
    <TTGlyph name="Scedilla" xMin="16" yMin="-231" xMax="568" yMax="683">
      <contour>
        <pt x="373" y="-34" on="0"/>
        <pt x="432" y="-69" on="0"/>
        <pt x="432" y="-179" on="0"/>
        <pt x="369" y="-231" on="0"/>
        <pt x="305" y="-231" on="1"/>
        <pt x="240" y="-231" on="0"/>
        <pt x="195" y="-223" on="1"/>
        <pt x="178" y="-220" on="1"/>
        <pt x="182" y="-142" on="1"/>
        <pt x="213" y="-143" on="0"/>
        <pt x="230" y="-143" on="1"/>
        <pt x="268" y="-143" on="0"/>
        <pt x="268" y="-121" on="1"/>
        <pt x="268" y="-109" on="0"/>
        <pt x="252" y="-101" on="0"/>
        <pt x="230" y="-101" on="1"/>
        <pt x="221" y="-101" on="1"/>
        <pt x="221" y="-10" on="1"/>
        <pt x="123" y="-2" on="0"/>
        <pt x="46" y="16" on="1"/>
        <pt x="21" y="22" on="1"/>
        <pt x="31" y="199" on="1"/>
        <pt x="184" y="177" on="0"/>
        <pt x="282" y="177" on="1"/>
        <pt x="334" y="177" on="0"/>
        <pt x="334" y="200" on="1"/>
        <pt x="334" y="210" on="0"/>
        <pt x="310" y="219" on="0"/>
        <pt x="257" y="227" on="1"/>
        <pt x="117" y="249" on="0"/>
        <pt x="16" y="342" on="0"/>
        <pt x="16" y="448" on="1"/>
        <pt x="16" y="583" on="0"/>
        <pt x="146" y="683" on="0"/>
        <pt x="281" y="683" on="1"/>
        <pt x="376" y="683" on="0"/>
        <pt x="504" y="664" on="1"/>
        <pt x="546" y="657" on="1"/>
        <pt x="540" y="477" on="1"/>
        <pt x="399" y="492" on="0"/>
        <pt x="271" y="492" on="0"/>
        <pt x="250" y="485" on="0"/>
        <pt x="250" y="463" on="0"/>
        <pt x="274" y="451" on="0"/>
        <pt x="401" y="423" on="0"/>
        <pt x="482" y="396" on="0"/>
        <pt x="547" y="347" on="0"/>
        <pt x="568" y="276" on="0"/>
        <pt x="568" y="216" on="1"/>
        <pt x="568" y="92" on="0"/>
        <pt x="436" y="-14" on="0"/>
        <pt x="303" y="-14" on="1"/>
        <pt x="294" y="-14" on="1"/>
        <pt x="294" y="-33" on="1"/>
      </contour>
    </TTGlyph>
    <TTGlyph name="Scircumflex" xMin="16" yMin="-14" xMax="568" yMax="849">
      <contour>
        <pt x="540" y="477" on="1"/>
        <pt x="399" y="492" on="0"/>
        <pt x="271" y="492" on="0"/>
        <pt x="250" y="485" on="0"/>
        <pt x="250" y="463" on="0"/>
        <pt x="274" y="451" on="0"/>
        <pt x="401" y="423" on="0"/>
        <pt x="482" y="396" on="0"/>
        <pt x="547" y="347" on="0"/>
        <pt x="568" y="276" on="0"/>
        <pt x="568" y="216" on="1"/>
        <pt x="568" y="92" on="0"/>
        <pt x="436" y="-14" on="0"/>
        <pt x="303" y="-14" on="1"/>
        <pt x="239" y="-14" on="0"/>
        <pt x="98" y="4" on="0"/>
        <pt x="60" y="13" on="1"/>
        <pt x="21" y="22" on="1"/>
        <pt x="31" y="199" on="1"/>
        <pt x="184" y="177" on="0"/>
        <pt x="282" y="177" on="1"/>
        <pt x="334" y="177" on="0"/>
        <pt x="334" y="200" on="1"/>
        <pt x="334" y="210" on="0"/>
        <pt x="310" y="219" on="0"/>
        <pt x="257" y="227" on="1"/>
        <pt x="117" y="249" on="0"/>
        <pt x="16" y="342" on="0"/>
        <pt x="16" y="448" on="1"/>
        <pt x="16" y="583" on="0"/>
        <pt x="146" y="683" on="0"/>
        <pt x="281" y="683" on="1"/>
        <pt x="376" y="683" on="0"/>
        <pt x="504" y="664" on="1"/>
        <pt x="546" y="657" on="1"/>
      </contour>
      <contour>
        <pt x="112" y="713" on="1"/>
        <pt x="213" y="849" on="1"/>
        <pt x="365" y="849" on="1"/>
        <pt x="477" y="713" on="1"/>
        <pt x="308" y="713" on="1"/>
        <pt x="293" y="775" on="1"/>
        <pt x="281" y="713" on="1"/>
      </contour>
    </TTGlyph>
    <TTGlyph name="Scommaaccent" xMin="16" yMin="-260" xMax="568" yMax="683">
      <contour>
        <pt x="180" y="-260" on="1"/>
        <pt x="200" y="-45" on="1"/>
        <pt x="404" y="-45" on="1"/>
        <pt x="342" y="-260" on="1"/>
      </contour>
      <contour>
        <pt x="540" y="477" on="1"/>
        <pt x="399" y="492" on="0"/>
        <pt x="271" y="492" on="0"/>
        <pt x="250" y="485" on="0"/>
        <pt x="250" y="463" on="0"/>
        <pt x="274" y="451" on="0"/>
        <pt x="401" y="423" on="0"/>
        <pt x="482" y="396" on="0"/>
        <pt x="547" y="347" on="0"/>
        <pt x="568" y="276" on="0"/>
        <pt x="568" y="216" on="1"/>
        <pt x="568" y="92" on="0"/>
        <pt x="436" y="-14" on="0"/>
        <pt x="303" y="-14" on="1"/>
        <pt x="239" y="-14" on="0"/>
        <pt x="98" y="4" on="0"/>
        <pt x="60" y="13" on="1"/>
        <pt x="21" y="22" on="1"/>
        <pt x="31" y="199" on="1"/>
        <pt x="184" y="177" on="0"/>
        <pt x="282" y="177" on="1"/>
        <pt x="334" y="177" on="0"/>
        <pt x="334" y="200" on="1"/>
        <pt x="334" y="210" on="0"/>
        <pt x="310" y="219" on="0"/>
        <pt x="257" y="227" on="1"/>
        <pt x="117" y="249" on="0"/>
        <pt x="16" y="342" on="0"/>
        <pt x="16" y="448" on="1"/>
        <pt x="16" y="583" on="0"/>
        <pt x="146" y="683" on="0"/>
        <pt x="281" y="683" on="1"/>
        <pt x="376" y="683" on="0"/>
        <pt x="504" y="664" on="1"/>
        <pt x="546" y="657" on="1"/>
      </contour>
    </TTGlyph>
    <TTGlyph name="T" xMin="9" yMin="0" xMax="509" yMax="670">
      <contour>
        <pt x="9" y="481" on="1"/>
        <pt x="9" y="670" on="1"/>
        <pt x="509" y="670" on="1"/>
        <pt x="509" y="481" on="1"/>
        <pt x="379" y="481" on="1"/>
        <pt x="379" y="0" on="1"/>
        <pt x="147" y="0" on="1"/>
        <pt x="147" y="481" on="1"/>
      </contour>
    </TTGlyph>
    <TTGlyph name="Tbar" xMin="9" yMin="0" xMax="509" yMax="670">
      <contour>
        <pt x="9" y="481" on="1"/>
        <pt x="9" y="670" on="1"/>
        <pt x="509" y="670" on="1"/>
        <pt x="509" y="481" on="1"/>
        <pt x="379" y="481" on="1"/>
        <pt x="379" y="327" on="1"/>
        <pt x="426" y="327" on="1"/>
        <pt x="426" y="190" on="1"/>
        <pt x="379" y="190" on="1"/>
        <pt x="379" y="0" on="1"/>
        <pt x="147" y="0" on="1"/>
        <pt x="147" y="190" on="1"/>
        <pt x="100" y="190" on="1"/>
        <pt x="100" y="327" on="1"/>
        <pt x="147" y="327" on="1"/>
        <pt x="147" y="481" on="1"/>
      </contour>
    </TTGlyph>
    <TTGlyph name="Tcaron" xMin="9" yMin="0" xMax="509" yMax="848">
      <contour>
        <pt x="9" y="481" on="1"/>
        <pt x="9" y="670" on="1"/>
        <pt x="509" y="670" on="1"/>
        <pt x="509" y="481" on="1"/>
        <pt x="379" y="481" on="1"/>
        <pt x="379" y="0" on="1"/>
        <pt x="147" y="0" on="1"/>
        <pt x="147" y="481" on="1"/>
      </contour>
      <contour>
        <pt x="178" y="712" on="1"/>
        <pt x="77" y="848" on="1"/>
        <pt x="246" y="848" on="1"/>
        <pt x="260" y="786" on="1"/>
        <pt x="273" y="848" on="1"/>
        <pt x="442" y="848" on="1"/>
        <pt x="330" y="712" on="1"/>
      </contour>
    </TTGlyph>
    <TTGlyph name="Tcedilla" xMin="9" yMin="-231" xMax="509" yMax="670">
      <contour>
        <pt x="378" y="-34" on="0"/>
        <pt x="437" y="-69" on="0"/>
        <pt x="437" y="-179" on="0"/>
        <pt x="374" y="-231" on="0"/>
        <pt x="310" y="-231" on="1"/>
        <pt x="245" y="-231" on="0"/>
        <pt x="200" y="-223" on="1"/>
        <pt x="183" y="-220" on="1"/>
        <pt x="187" y="-142" on="1"/>
        <pt x="218" y="-143" on="0"/>
        <pt x="235" y="-143" on="1"/>
        <pt x="273" y="-143" on="0"/>
        <pt x="273" y="-121" on="1"/>
        <pt x="273" y="-109" on="0"/>
        <pt x="257" y="-101" on="0"/>
        <pt x="235" y="-101" on="1"/>
        <pt x="226" y="-101" on="1"/>
        <pt x="226" y="0" on="1"/>
        <pt x="147" y="0" on="1"/>
        <pt x="147" y="481" on="1"/>
        <pt x="9" y="481" on="1"/>
        <pt x="9" y="670" on="1"/>
        <pt x="509" y="670" on="1"/>
        <pt x="509" y="481" on="1"/>
        <pt x="379" y="481" on="1"/>
        <pt x="379" y="0" on="1"/>
        <pt x="299" y="0" on="1"/>
        <pt x="299" y="-33" on="1"/>
      </contour>
    </TTGlyph>
    <TTGlyph name="Tcommaaccent" xMin="9" yMin="-260" xMax="509" yMax="670">
      <contour>
        <pt x="141" y="-260" on="1"/>
        <pt x="161" y="-45" on="1"/>
        <pt x="365" y="-45" on="1"/>
        <pt x="303" y="-260" on="1"/>
      </contour>
      <contour>
        <pt x="9" y="481" on="1"/>
        <pt x="9" y="670" on="1"/>
        <pt x="509" y="670" on="1"/>
        <pt x="509" y="481" on="1"/>
        <pt x="379" y="481" on="1"/>
        <pt x="379" y="0" on="1"/>
        <pt x="147" y="0" on="1"/>
        <pt x="147" y="481" on="1"/>
      </contour>
    </TTGlyph>
    <TTGlyph name="Thorn" xMin="30" yMin="0" xMax="591" yMax="670">
      <contour>
        <pt x="290" y="72" on="1"/>
        <pt x="256" y="72" on="1"/>
        <pt x="256" y="0" on="1"/>
        <pt x="30" y="0" on="1"/>
        <pt x="30" y="670" on="1"/>
        <pt x="256" y="670" on="1"/>
        <pt x="256" y="600" on="1"/>
        <pt x="290" y="600" on="1"/>
        <pt x="368" y="600" on="0"/>
        <pt x="474" y="577" on="0"/>
        <pt x="514" y="548" on="1"/>
        <pt x="591" y="494" on="0"/>
        <pt x="591" y="188" on="0"/>
        <pt x="446" y="72" on="0"/>
      </contour>
      <contour>
        <pt x="256" y="255" on="1"/>
        <pt x="280" y="255" on="1"/>
        <pt x="325" y="255" on="0"/>
        <pt x="363" y="292" on="0"/>
        <pt x="363" y="385" on="0"/>
        <pt x="327" y="417" on="0"/>
        <pt x="280" y="417" on="1"/>
        <pt x="256" y="417" on="1"/>
      </contour>
    </TTGlyph>
    <TTGlyph name="U" xMin="26" yMin="-13" xMax="615" yMax="670">
      <contour>
        <pt x="258" y="670" on="1"/>
        <pt x="258" y="231" on="1"/>
        <pt x="258" y="202" on="0"/>
        <pt x="287" y="178" on="0"/>
        <pt x="355" y="178" on="0"/>
        <pt x="383" y="202" on="0"/>
        <pt x="383" y="231" on="1"/>
        <pt x="383" y="670" on="1"/>
        <pt x="615" y="670" on="1"/>
        <pt x="615" y="244" on="1"/>
        <pt x="615" y="102" on="0"/>
        <pt x="473" y="-13" on="0"/>
        <pt x="168" y="-13" on="0"/>
        <pt x="26" y="99" on="0"/>
        <pt x="26" y="240" on="1"/>
        <pt x="26" y="670" on="1"/>
      </contour>
    </TTGlyph>
    <TTGlyph name="Uacute" xMin="26" yMin="-13" xMax="615" yMax="849">
      <contour>
        <pt x="258" y="670" on="1"/>
        <pt x="258" y="231" on="1"/>
        <pt x="258" y="202" on="0"/>
        <pt x="287" y="178" on="0"/>
        <pt x="355" y="178" on="0"/>
        <pt x="383" y="202" on="0"/>
        <pt x="383" y="231" on="1"/>
        <pt x="383" y="670" on="1"/>
        <pt x="615" y="670" on="1"/>
        <pt x="615" y="244" on="1"/>
        <pt x="615" y="102" on="0"/>
        <pt x="473" y="-13" on="0"/>
        <pt x="168" y="-13" on="0"/>
        <pt x="26" y="99" on="0"/>
        <pt x="26" y="240" on="1"/>
        <pt x="26" y="670" on="1"/>
      </contour>
      <contour>
        <pt x="229" y="849" on="1"/>
        <pt x="471" y="849" on="1"/>
        <pt x="362" y="713" on="1"/>
        <pt x="186" y="713" on="1"/>
      </contour>
    </TTGlyph>
    <TTGlyph name="Ubreve" xMin="26" yMin="-13" xMax="615" yMax="872">
      <contour>
        <pt x="258" y="670" on="1"/>
        <pt x="258" y="231" on="1"/>
        <pt x="258" y="202" on="0"/>
        <pt x="287" y="178" on="0"/>
        <pt x="355" y="178" on="0"/>
        <pt x="383" y="202" on="0"/>
        <pt x="383" y="231" on="1"/>
        <pt x="383" y="670" on="1"/>
        <pt x="615" y="670" on="1"/>
        <pt x="615" y="244" on="1"/>
        <pt x="615" y="102" on="0"/>
        <pt x="473" y="-13" on="0"/>
        <pt x="168" y="-13" on="0"/>
        <pt x="26" y="99" on="0"/>
        <pt x="26" y="240" on="1"/>
        <pt x="26" y="670" on="1"/>
      </contour>
      <contour>
        <pt x="406" y="712" on="0"/>
        <pt x="234" y="712" on="0"/>
        <pt x="160" y="797" on="0"/>
        <pt x="160" y="862" on="1"/>
        <pt x="276" y="872" on="1"/>
        <pt x="281" y="827" on="0"/>
        <pt x="359" y="827" on="0"/>
        <pt x="364" y="872" on="1"/>
        <pt x="480" y="862" on="1"/>
        <pt x="480" y="797" on="0"/>
      </contour>
    </TTGlyph>
    <TTGlyph name="Ucircumflex" xMin="26" yMin="-13" xMax="608" yMax="849">
      <contour>
        <pt x="252" y="670" on="1"/>
        <pt x="252" y="231" on="1"/>
        <pt x="252" y="202" on="0"/>
        <pt x="281" y="178" on="0"/>
        <pt x="353" y="178" on="0"/>
        <pt x="382" y="202" on="0"/>
        <pt x="382" y="231" on="1"/>
        <pt x="382" y="670" on="1"/>
        <pt x="608" y="670" on="1"/>
        <pt x="608" y="244" on="1"/>
        <pt x="608" y="103" on="0"/>
        <pt x="468" y="-13" on="0"/>
        <pt x="166" y="-13" on="0"/>
        <pt x="26" y="99" on="0"/>
        <pt x="26" y="240" on="1"/>
        <pt x="26" y="670" on="1"/>
      </contour>
      <contour>
        <pt x="135" y="713" on="1"/>
        <pt x="236" y="849" on="1"/>
        <pt x="388" y="849" on="1"/>
        <pt x="500" y="713" on="1"/>
        <pt x="331" y="713" on="1"/>
        <pt x="316" y="775" on="1"/>
        <pt x="304" y="713" on="1"/>
      </contour>
    </TTGlyph>
    <TTGlyph name="Udieresis" xMin="26" yMin="-13" xMax="615" yMax="857">
      <contour>
        <pt x="258" y="670" on="1"/>
        <pt x="258" y="231" on="1"/>
        <pt x="258" y="202" on="0"/>
        <pt x="287" y="178" on="0"/>
        <pt x="355" y="178" on="0"/>
        <pt x="383" y="202" on="0"/>
        <pt x="383" y="231" on="1"/>
        <pt x="383" y="670" on="1"/>
        <pt x="615" y="670" on="1"/>
        <pt x="615" y="244" on="1"/>
        <pt x="615" y="102" on="0"/>
        <pt x="473" y="-13" on="0"/>
        <pt x="168" y="-13" on="0"/>
        <pt x="26" y="99" on="0"/>
        <pt x="26" y="240" on="1"/>
        <pt x="26" y="670" on="1"/>
      </contour>
      <contour>
        <pt x="343" y="713" on="1"/>
        <pt x="343" y="857" on="1"/>
        <pt x="504" y="857" on="1"/>
        <pt x="504" y="713" on="1"/>
      </contour>
      <contour>
        <pt x="136" y="713" on="1"/>
        <pt x="136" y="857" on="1"/>
        <pt x="297" y="857" on="1"/>
        <pt x="297" y="713" on="1"/>
      </contour>
    </TTGlyph>
    <TTGlyph name="Ugrave" xMin="26" yMin="-13" xMax="608" yMax="849">
      <contour>
        <pt x="252" y="670" on="1"/>
        <pt x="252" y="231" on="1"/>
        <pt x="252" y="202" on="0"/>
        <pt x="281" y="178" on="0"/>
        <pt x="353" y="178" on="0"/>
        <pt x="382" y="202" on="0"/>
        <pt x="382" y="231" on="1"/>
        <pt x="382" y="670" on="1"/>
        <pt x="608" y="670" on="1"/>
        <pt x="608" y="244" on="1"/>
        <pt x="608" y="103" on="0"/>
        <pt x="468" y="-13" on="0"/>
        <pt x="166" y="-13" on="0"/>
        <pt x="26" y="99" on="0"/>
        <pt x="26" y="240" on="1"/>
        <pt x="26" y="670" on="1"/>
      </contour>
      <contour>
        <pt x="170" y="849" on="1"/>
        <pt x="412" y="849" on="1"/>
        <pt x="446" y="713" on="1"/>
        <pt x="274" y="713" on="1"/>
      </contour>
    </TTGlyph>
    <TTGlyph name="Uhungarumlaut" xMin="26" yMin="-13" xMax="615" yMax="849">
      <contour>
        <pt x="258" y="670" on="1"/>
        <pt x="258" y="231" on="1"/>
        <pt x="258" y="202" on="0"/>
        <pt x="287" y="178" on="0"/>
        <pt x="355" y="178" on="0"/>
        <pt x="383" y="202" on="0"/>
        <pt x="383" y="231" on="1"/>
        <pt x="383" y="670" on="1"/>
        <pt x="615" y="670" on="1"/>
        <pt x="615" y="244" on="1"/>
        <pt x="615" y="102" on="0"/>
        <pt x="473" y="-13" on="0"/>
        <pt x="168" y="-13" on="0"/>
        <pt x="26" y="99" on="0"/>
        <pt x="26" y="240" on="1"/>
        <pt x="26" y="670" on="1"/>
      </contour>
      <contour>
        <pt x="146" y="849" on="1"/>
        <pt x="333" y="849" on="1"/>
        <pt x="244" y="713" on="1"/>
        <pt x="113" y="713" on="1"/>
      </contour>
      <contour>
        <pt x="361" y="849" on="1"/>
        <pt x="548" y="849" on="1"/>
        <pt x="459" y="713" on="1"/>
        <pt x="328" y="713" on="1"/>
      </contour>
    </TTGlyph>
    <TTGlyph name="Umacron" xMin="26" yMin="-13" xMax="615" yMax="849">
      <contour>
        <pt x="258" y="670" on="1"/>
        <pt x="258" y="231" on="1"/>
        <pt x="258" y="202" on="0"/>
        <pt x="287" y="178" on="0"/>
        <pt x="355" y="178" on="0"/>
        <pt x="383" y="202" on="0"/>
        <pt x="383" y="231" on="1"/>
        <pt x="383" y="670" on="1"/>
        <pt x="615" y="670" on="1"/>
        <pt x="615" y="244" on="1"/>
        <pt x="615" y="102" on="0"/>
        <pt x="473" y="-13" on="0"/>
        <pt x="168" y="-13" on="0"/>
        <pt x="26" y="99" on="0"/>
        <pt x="26" y="240" on="1"/>
        <pt x="26" y="670" on="1"/>
      </contour>
      <contour>
        <pt x="160" y="713" on="1"/>
        <pt x="160" y="849" on="1"/>
        <pt x="481" y="849" on="1"/>
        <pt x="481" y="713" on="1"/>
      </contour>
    </TTGlyph>
    <TTGlyph name="Uogonek" xMin="26" yMin="-220" xMax="615" yMax="670">
      <contour>
        <pt x="305" y="-220" on="1"/>
        <pt x="150" y="-220" on="0"/>
        <pt x="150" y="-104" on="1"/>
        <pt x="150" y="-45" on="0"/>
        <pt x="204" y="-3" on="1"/>
        <pt x="113" y="15" on="0"/>
        <pt x="26" y="129" on="0"/>
        <pt x="26" y="240" on="1"/>
        <pt x="26" y="670" on="1"/>
        <pt x="258" y="670" on="1"/>
        <pt x="258" y="231" on="1"/>
        <pt x="258" y="202" on="0"/>
        <pt x="287" y="178" on="0"/>
        <pt x="355" y="178" on="0"/>
        <pt x="383" y="202" on="0"/>
        <pt x="383" y="231" on="1"/>
        <pt x="383" y="670" on="1"/>
        <pt x="615" y="670" on="1"/>
        <pt x="615" y="244" on="1"/>
        <pt x="615" y="124" on="0"/>
        <pt x="514" y="7" on="0"/>
        <pt x="409" y="-7" on="1"/>
        <pt x="360" y="-56" on="0"/>
        <pt x="360" y="-105" on="0"/>
        <pt x="382" y="-105" on="1"/>
        <pt x="428" y="-101" on="1"/>
        <pt x="441" y="-205" on="1"/>
        <pt x="392" y="-220" on="0"/>
      </contour>
    </TTGlyph>
    <TTGlyph name="Uring" xMin="26" yMin="-13" xMax="615" yMax="894">
      <contour>
        <pt x="258" y="670" on="1"/>
        <pt x="258" y="231" on="1"/>
        <pt x="258" y="202" on="0"/>
        <pt x="287" y="178" on="0"/>
        <pt x="355" y="178" on="0"/>
        <pt x="383" y="202" on="0"/>
        <pt x="383" y="231" on="1"/>
        <pt x="383" y="670" on="1"/>
        <pt x="615" y="670" on="1"/>
        <pt x="615" y="244" on="1"/>
        <pt x="615" y="102" on="0"/>
        <pt x="473" y="-13" on="0"/>
        <pt x="168" y="-13" on="0"/>
        <pt x="26" y="99" on="0"/>
        <pt x="26" y="240" on="1"/>
        <pt x="26" y="670" on="1"/>
      </contour>
      <contour>
        <pt x="183" y="702" on="0"/>
        <pt x="183" y="894" on="0"/>
        <pt x="320" y="894" on="1"/>
        <pt x="382" y="894" on="0"/>
        <pt x="457" y="847" on="0"/>
        <pt x="457" y="751" on="0"/>
        <pt x="384" y="702" on="0"/>
        <pt x="320" y="702" on="1"/>
      </contour>
      <contour>
        <pt x="290" y="819" on="0"/>
        <pt x="290" y="776" on="0"/>
        <pt x="351" y="776" on="0"/>
        <pt x="351" y="819" on="0"/>
      </contour>
    </TTGlyph>
    <TTGlyph name="Utilde" xMin="26" yMin="-13" xMax="615" yMax="886">
      <contour>
        <pt x="258" y="670" on="1"/>
        <pt x="258" y="231" on="1"/>
        <pt x="258" y="202" on="0"/>
        <pt x="287" y="178" on="0"/>
        <pt x="355" y="178" on="0"/>
        <pt x="383" y="202" on="0"/>
        <pt x="383" y="231" on="1"/>
        <pt x="383" y="670" on="1"/>
        <pt x="615" y="670" on="1"/>
        <pt x="615" y="244" on="1"/>
        <pt x="615" y="102" on="0"/>
        <pt x="473" y="-13" on="0"/>
        <pt x="168" y="-13" on="0"/>
        <pt x="26" y="99" on="0"/>
        <pt x="26" y="240" on="1"/>
        <pt x="26" y="670" on="1"/>
      </contour>
      <contour>
        <pt x="476" y="744" on="0"/>
        <pt x="420" y="712" on="0"/>
        <pt x="368" y="712" on="0"/>
        <pt x="261" y="746" on="0"/>
        <pt x="248" y="746" on="1"/>
        <pt x="221" y="746" on="0"/>
        <pt x="181" y="728" on="1"/>
        <pt x="167" y="721" on="1"/>
        <pt x="138" y="827" on="1"/>
        <pt x="155" y="847" on="0"/>
        <pt x="221" y="886" on="0"/>
        <pt x="280" y="886" on="0"/>
        <pt x="382" y="854" on="0"/>
        <pt x="393" y="854" on="1"/>
        <pt x="413" y="854" on="0"/>
        <pt x="460" y="872" on="1"/>
        <pt x="474" y="877" on="1"/>
        <pt x="503" y="770" on="1"/>
        <pt x="497" y="764" on="0"/>
      </contour>
    </TTGlyph>
    <TTGlyph name="V" xMin="-7" yMin="0" xMax="602" yMax="670">
      <contour>
        <pt x="602" y="670" on="1"/>
        <pt x="471" y="0" on="1"/>
        <pt x="129" y="0" on="1"/>
        <pt x="-7" y="670" on="1"/>
        <pt x="239" y="670" on="1"/>
        <pt x="291" y="234" on="1"/>
        <pt x="309" y="234" on="1"/>
        <pt x="356" y="670" on="1"/>
      </contour>
    </TTGlyph>
    <TTGlyph name="W" xMin="6" yMin="0" xMax="906" yMax="670">
      <contour>
        <pt x="85" y="0" on="1"/>
        <pt x="6" y="670" on="1"/>
        <pt x="237" y="670" on="1"/>
        <pt x="269" y="234" on="1"/>
        <pt x="287" y="234" on="1"/>
        <pt x="332" y="660" on="1"/>
        <pt x="585" y="660" on="1"/>
        <pt x="635" y="234" on="1"/>
        <pt x="653" y="234" on="1"/>
        <pt x="673" y="670" on="1"/>
        <pt x="906" y="670" on="1"/>
        <pt x="832" y="0" on="1"/>
        <pt x="493" y="0" on="1"/>
        <pt x="460" y="412" on="1"/>
        <pt x="450" y="413" on="1"/>
        <pt x="416" y="0" on="1"/>
      </contour>
    </TTGlyph>
    <TTGlyph name="Wacute" xMin="6" yMin="0" xMax="906" yMax="849">
      <contour>
        <pt x="85" y="0" on="1"/>
        <pt x="6" y="670" on="1"/>
        <pt x="237" y="670" on="1"/>
        <pt x="269" y="234" on="1"/>
        <pt x="287" y="234" on="1"/>
        <pt x="332" y="660" on="1"/>
        <pt x="585" y="660" on="1"/>
        <pt x="635" y="234" on="1"/>
        <pt x="653" y="234" on="1"/>
        <pt x="673" y="670" on="1"/>
        <pt x="906" y="670" on="1"/>
        <pt x="832" y="0" on="1"/>
        <pt x="493" y="0" on="1"/>
        <pt x="460" y="412" on="1"/>
        <pt x="450" y="413" on="1"/>
        <pt x="416" y="0" on="1"/>
      </contour>
      <contour>
        <pt x="377" y="849" on="1"/>
        <pt x="619" y="849" on="1"/>
        <pt x="510" y="713" on="1"/>
        <pt x="334" y="713" on="1"/>
      </contour>
    </TTGlyph>
    <TTGlyph name="Wcircumflex" xMin="6" yMin="0" xMax="906" yMax="849">
      <contour>
        <pt x="85" y="0" on="1"/>
        <pt x="6" y="670" on="1"/>
        <pt x="237" y="670" on="1"/>
        <pt x="269" y="234" on="1"/>
        <pt x="287" y="234" on="1"/>
        <pt x="332" y="660" on="1"/>
        <pt x="585" y="660" on="1"/>
        <pt x="635" y="234" on="1"/>
        <pt x="653" y="234" on="1"/>
        <pt x="673" y="670" on="1"/>
        <pt x="906" y="670" on="1"/>
        <pt x="832" y="0" on="1"/>
        <pt x="493" y="0" on="1"/>
        <pt x="460" y="412" on="1"/>
        <pt x="450" y="413" on="1"/>
        <pt x="416" y="0" on="1"/>
      </contour>
      <contour>
        <pt x="274" y="713" on="1"/>
        <pt x="375" y="849" on="1"/>
        <pt x="527" y="849" on="1"/>
        <pt x="639" y="713" on="1"/>
        <pt x="470" y="713" on="1"/>
        <pt x="455" y="775" on="1"/>
        <pt x="443" y="713" on="1"/>
      </contour>
    </TTGlyph>
    <TTGlyph name="Wdieresis" xMin="6" yMin="0" xMax="906" yMax="857">
      <contour>
        <pt x="85" y="0" on="1"/>
        <pt x="6" y="670" on="1"/>
        <pt x="237" y="670" on="1"/>
        <pt x="269" y="234" on="1"/>
        <pt x="287" y="234" on="1"/>
        <pt x="332" y="660" on="1"/>
        <pt x="585" y="660" on="1"/>
        <pt x="635" y="234" on="1"/>
        <pt x="653" y="234" on="1"/>
        <pt x="673" y="670" on="1"/>
        <pt x="906" y="670" on="1"/>
        <pt x="832" y="0" on="1"/>
        <pt x="493" y="0" on="1"/>
        <pt x="460" y="412" on="1"/>
        <pt x="450" y="413" on="1"/>
        <pt x="416" y="0" on="1"/>
      </contour>
      <contour>
        <pt x="479" y="713" on="1"/>
        <pt x="479" y="857" on="1"/>
        <pt x="640" y="857" on="1"/>
        <pt x="640" y="713" on="1"/>
      </contour>
      <contour>
        <pt x="272" y="713" on="1"/>
        <pt x="272" y="857" on="1"/>
        <pt x="433" y="857" on="1"/>
        <pt x="433" y="713" on="1"/>
      </contour>
    </TTGlyph>
    <TTGlyph name="Wgrave" xMin="6" yMin="0" xMax="906" yMax="849">
      <contour>
        <pt x="85" y="0" on="1"/>
        <pt x="6" y="670" on="1"/>
        <pt x="237" y="670" on="1"/>
        <pt x="269" y="234" on="1"/>
        <pt x="287" y="234" on="1"/>
        <pt x="332" y="660" on="1"/>
        <pt x="585" y="660" on="1"/>
        <pt x="635" y="234" on="1"/>
        <pt x="653" y="234" on="1"/>
        <pt x="673" y="670" on="1"/>
        <pt x="906" y="670" on="1"/>
        <pt x="832" y="0" on="1"/>
        <pt x="493" y="0" on="1"/>
        <pt x="460" y="412" on="1"/>
        <pt x="450" y="413" on="1"/>
        <pt x="416" y="0" on="1"/>
      </contour>
      <contour>
        <pt x="298" y="849" on="1"/>
        <pt x="540" y="849" on="1"/>
        <pt x="574" y="713" on="1"/>
        <pt x="402" y="713" on="1"/>
      </contour>
    </TTGlyph>
    <TTGlyph name="X" xMin="-8" yMin="0" xMax="595" yMax="670">
      <contour>
        <pt x="228" y="670" on="1"/>
        <pt x="289" y="486" on="1"/>
        <pt x="367" y="670" on="1"/>
        <pt x="595" y="670" on="1"/>
        <pt x="450" y="351" on="1"/>
        <pt x="586" y="0" on="1"/>
        <pt x="348" y="0" on="1"/>
        <pt x="289" y="178" on="1"/>
        <pt x="228" y="0" on="1"/>
        <pt x="-8" y="0" on="1"/>
        <pt x="135" y="321" on="1"/>
        <pt x="-8" y="670" on="1"/>
      </contour>
    </TTGlyph>
    <TTGlyph name="Y" xMin="-13" yMin="0" xMax="606" yMax="670">
      <contour>
        <pt x="410" y="0" on="1"/>
        <pt x="178" y="0" on="1"/>
        <pt x="178" y="210" on="1"/>
        <pt x="-13" y="670" on="1"/>
        <pt x="233" y="670" on="1"/>
        <pt x="296" y="473" on="1"/>
        <pt x="361" y="670" on="1"/>
        <pt x="606" y="670" on="1"/>
        <pt x="410" y="210" on="1"/>
      </contour>
    </TTGlyph>
    <TTGlyph name="Yacute" xMin="-13" yMin="0" xMax="606" yMax="849">
      <contour>
        <pt x="410" y="0" on="1"/>
        <pt x="178" y="0" on="1"/>
        <pt x="178" y="210" on="1"/>
        <pt x="-13" y="670" on="1"/>
        <pt x="233" y="670" on="1"/>
        <pt x="296" y="473" on="1"/>
        <pt x="361" y="670" on="1"/>
        <pt x="606" y="670" on="1"/>
        <pt x="410" y="210" on="1"/>
      </contour>
      <contour>
        <pt x="236" y="849" on="1"/>
        <pt x="478" y="849" on="1"/>
        <pt x="369" y="713" on="1"/>
        <pt x="193" y="713" on="1"/>
      </contour>
    </TTGlyph>
    <TTGlyph name="Ycircumflex" xMin="-13" yMin="0" xMax="606" yMax="849">
      <contour>
        <pt x="410" y="0" on="1"/>
        <pt x="178" y="0" on="1"/>
        <pt x="178" y="210" on="1"/>
        <pt x="-13" y="670" on="1"/>
        <pt x="233" y="670" on="1"/>
        <pt x="296" y="473" on="1"/>
        <pt x="361" y="670" on="1"/>
        <pt x="606" y="670" on="1"/>
        <pt x="410" y="210" on="1"/>
      </contour>
      <contour>
        <pt x="114" y="713" on="1"/>
        <pt x="215" y="849" on="1"/>
        <pt x="367" y="849" on="1"/>
        <pt x="479" y="713" on="1"/>
        <pt x="310" y="713" on="1"/>
        <pt x="295" y="775" on="1"/>
        <pt x="283" y="713" on="1"/>
      </contour>
    </TTGlyph>
    <TTGlyph name="Ydieresis" xMin="-13" yMin="0" xMax="606" yMax="857">
      <contour>
        <pt x="410" y="0" on="1"/>
        <pt x="178" y="0" on="1"/>
        <pt x="178" y="210" on="1"/>
        <pt x="-13" y="670" on="1"/>
        <pt x="233" y="670" on="1"/>
        <pt x="296" y="473" on="1"/>
        <pt x="361" y="670" on="1"/>
        <pt x="606" y="670" on="1"/>
        <pt x="410" y="210" on="1"/>
      </contour>
      <contour>
        <pt x="319" y="713" on="1"/>
        <pt x="319" y="857" on="1"/>
        <pt x="480" y="857" on="1"/>
        <pt x="480" y="713" on="1"/>
      </contour>
      <contour>
        <pt x="112" y="713" on="1"/>
        <pt x="112" y="857" on="1"/>
        <pt x="273" y="857" on="1"/>
        <pt x="273" y="713" on="1"/>
      </contour>
    </TTGlyph>
    <TTGlyph name="Ygrave" xMin="-13" yMin="0" xMax="606" yMax="849">
      <contour>
        <pt x="410" y="0" on="1"/>
        <pt x="178" y="0" on="1"/>
        <pt x="178" y="210" on="1"/>
        <pt x="-13" y="670" on="1"/>
        <pt x="233" y="670" on="1"/>
        <pt x="296" y="473" on="1"/>
        <pt x="361" y="670" on="1"/>
        <pt x="606" y="670" on="1"/>
        <pt x="410" y="210" on="1"/>
      </contour>
      <contour>
        <pt x="128" y="849" on="1"/>
        <pt x="370" y="849" on="1"/>
        <pt x="404" y="713" on="1"/>
        <pt x="232" y="713" on="1"/>
      </contour>
    </TTGlyph>
    <TTGlyph name="Z" xMin="19" yMin="0" xMax="549" yMax="670">
      <contour>
        <pt x="19" y="481" on="1"/>
        <pt x="19" y="670" on="1"/>
        <pt x="549" y="670" on="1"/>
        <pt x="549" y="481" on="1"/>
        <pt x="332" y="206" on="1"/>
        <pt x="332" y="189" on="1"/>
        <pt x="549" y="189" on="1"/>
        <pt x="549" y="0" on="1"/>
        <pt x="19" y="0" on="1"/>
        <pt x="19" y="180" on="1"/>
        <pt x="241" y="464" on="1"/>
        <pt x="241" y="481" on="1"/>
      </contour>
    </TTGlyph>
    <TTGlyph name="Zacute" xMin="19" yMin="0" xMax="549" yMax="849">
      <contour>
        <pt x="19" y="481" on="1"/>
        <pt x="19" y="670" on="1"/>
        <pt x="549" y="670" on="1"/>
        <pt x="549" y="481" on="1"/>
        <pt x="332" y="206" on="1"/>
        <pt x="332" y="189" on="1"/>
        <pt x="549" y="189" on="1"/>
        <pt x="549" y="0" on="1"/>
        <pt x="19" y="0" on="1"/>
        <pt x="19" y="180" on="1"/>
        <pt x="241" y="464" on="1"/>
        <pt x="241" y="481" on="1"/>
      </contour>
      <contour>
        <pt x="195" y="849" on="1"/>
        <pt x="437" y="849" on="1"/>
        <pt x="328" y="713" on="1"/>
        <pt x="152" y="713" on="1"/>
      </contour>
    </TTGlyph>
    <TTGlyph name="Zcaron" xMin="19" yMin="0" xMax="549" yMax="848">
      <contour>
        <pt x="19" y="481" on="1"/>
        <pt x="19" y="670" on="1"/>
        <pt x="549" y="670" on="1"/>
        <pt x="549" y="481" on="1"/>
        <pt x="332" y="206" on="1"/>
        <pt x="332" y="189" on="1"/>
        <pt x="549" y="189" on="1"/>
        <pt x="549" y="0" on="1"/>
        <pt x="19" y="0" on="1"/>
        <pt x="19" y="180" on="1"/>
        <pt x="241" y="464" on="1"/>
        <pt x="241" y="481" on="1"/>
      </contour>
      <contour>
        <pt x="203" y="712" on="1"/>
        <pt x="102" y="848" on="1"/>
        <pt x="271" y="848" on="1"/>
        <pt x="285" y="786" on="1"/>
        <pt x="298" y="848" on="1"/>
        <pt x="467" y="848" on="1"/>
        <pt x="355" y="712" on="1"/>
      </contour>
    </TTGlyph>
    <TTGlyph name="Zdotaccent" xMin="19" yMin="0" xMax="549" yMax="856">
      <contour>
        <pt x="19" y="481" on="1"/>
        <pt x="19" y="670" on="1"/>
        <pt x="549" y="670" on="1"/>
        <pt x="549" y="481" on="1"/>
        <pt x="332" y="206" on="1"/>
        <pt x="332" y="189" on="1"/>
        <pt x="549" y="189" on="1"/>
        <pt x="549" y="0" on="1"/>
        <pt x="19" y="0" on="1"/>
        <pt x="19" y="180" on="1"/>
        <pt x="241" y="464" on="1"/>
        <pt x="241" y="481" on="1"/>
      </contour>
      <contour>
        <pt x="194" y="713" on="1"/>
        <pt x="194" y="856" on="1"/>
        <pt x="374" y="856" on="1"/>
        <pt x="374" y="713" on="1"/>
      </contour>
    </TTGlyph>
    <TTGlyph name="a" xMin="10" yMin="-13" xMax="542" yMax="518">
      <contour>
        <pt x="518" y="342" on="1"/>
        <pt x="518" y="152" on="1"/>
        <pt x="527" y="145" on="0"/>
        <pt x="542" y="141" on="1"/>
        <pt x="539" y="-1" on="1"/>
        <pt x="461" y="-13" on="0"/>
        <pt x="403" y="-13" on="0"/>
        <pt x="355" y="4" on="0"/>
        <pt x="347" y="13" on="1"/>
        <pt x="339" y="22" on="1"/>
        <pt x="277" y="-13" on="0"/>
        <pt x="100" y="-13" on="0"/>
        <pt x="10" y="68" on="0"/>
        <pt x="10" y="248" on="0"/>
        <pt x="112" y="309" on="0"/>
        <pt x="222" y="313" on="1"/>
        <pt x="294" y="316" on="1"/>
        <pt x="294" y="325" on="1"/>
        <pt x="294" y="344" on="0"/>
        <pt x="252" y="344" on="1"/>
        <pt x="161" y="344" on="0"/>
        <pt x="70" y="334" on="1"/>
        <pt x="37" y="331" on="1"/>
        <pt x="32" y="483" on="1"/>
        <pt x="164" y="518" on="0"/>
        <pt x="273" y="518" on="1"/>
        <pt x="387" y="518" on="0"/>
        <pt x="450" y="484" on="1"/>
        <pt x="518" y="448" on="0"/>
      </contour>
      <contour>
        <pt x="256" y="141" on="1"/>
        <pt x="275" y="141" on="0"/>
        <pt x="294" y="156" on="1"/>
        <pt x="294" y="193" on="1"/>
        <pt x="260" y="191" on="1"/>
        <pt x="234" y="189" on="0"/>
        <pt x="234" y="141" on="0"/>
      </contour>
    </TTGlyph>
    <TTGlyph name="aacute" xMin="10" yMin="-13" xMax="542" yMax="723">
      <contour>
        <pt x="518" y="342" on="1"/>
        <pt x="518" y="152" on="1"/>
        <pt x="527" y="145" on="0"/>
        <pt x="542" y="141" on="1"/>
        <pt x="539" y="-1" on="1"/>
        <pt x="461" y="-13" on="0"/>
        <pt x="403" y="-13" on="0"/>
        <pt x="355" y="4" on="0"/>
        <pt x="347" y="13" on="1"/>
        <pt x="339" y="22" on="1"/>
        <pt x="277" y="-13" on="0"/>
        <pt x="100" y="-13" on="0"/>
        <pt x="10" y="68" on="0"/>
        <pt x="10" y="248" on="0"/>
        <pt x="112" y="309" on="0"/>
        <pt x="222" y="313" on="1"/>
        <pt x="294" y="316" on="1"/>
        <pt x="294" y="325" on="1"/>
        <pt x="294" y="344" on="0"/>
        <pt x="252" y="344" on="1"/>
        <pt x="161" y="344" on="0"/>
        <pt x="70" y="334" on="1"/>
        <pt x="37" y="331" on="1"/>
        <pt x="32" y="483" on="1"/>
        <pt x="164" y="518" on="0"/>
        <pt x="273" y="518" on="1"/>
        <pt x="387" y="518" on="0"/>
        <pt x="450" y="484" on="1"/>
        <pt x="518" y="448" on="0"/>
      </contour>
      <contour>
        <pt x="256" y="141" on="1"/>
        <pt x="275" y="141" on="0"/>
        <pt x="294" y="156" on="1"/>
        <pt x="294" y="193" on="1"/>
        <pt x="260" y="191" on="1"/>
        <pt x="234" y="189" on="0"/>
        <pt x="234" y="141" on="0"/>
      </contour>
      <contour>
        <pt x="221" y="723" on="1"/>
        <pt x="458" y="723" on="1"/>
        <pt x="349" y="557" on="1"/>
        <pt x="178" y="557" on="1"/>
      </contour>
    </TTGlyph>
    <TTGlyph name="abreve" xMin="10" yMin="-13" xMax="542" yMax="718">
      <contour>
        <pt x="518" y="342" on="1"/>
        <pt x="518" y="152" on="1"/>
        <pt x="527" y="145" on="0"/>
        <pt x="542" y="141" on="1"/>
        <pt x="539" y="-1" on="1"/>
        <pt x="461" y="-13" on="0"/>
        <pt x="403" y="-13" on="0"/>
        <pt x="355" y="4" on="0"/>
        <pt x="347" y="13" on="1"/>
        <pt x="339" y="22" on="1"/>
        <pt x="277" y="-13" on="0"/>
        <pt x="100" y="-13" on="0"/>
        <pt x="10" y="68" on="0"/>
        <pt x="10" y="248" on="0"/>
        <pt x="112" y="309" on="0"/>
        <pt x="222" y="313" on="1"/>
        <pt x="294" y="316" on="1"/>
        <pt x="294" y="325" on="1"/>
        <pt x="294" y="344" on="0"/>
        <pt x="252" y="344" on="1"/>
        <pt x="161" y="344" on="0"/>
        <pt x="70" y="334" on="1"/>
        <pt x="37" y="331" on="1"/>
        <pt x="32" y="483" on="1"/>
        <pt x="164" y="518" on="0"/>
        <pt x="273" y="518" on="1"/>
        <pt x="387" y="518" on="0"/>
        <pt x="450" y="484" on="1"/>
        <pt x="518" y="448" on="0"/>
      </contour>
      <contour>
        <pt x="256" y="141" on="1"/>
        <pt x="275" y="141" on="0"/>
        <pt x="294" y="156" on="1"/>
        <pt x="294" y="193" on="1"/>
        <pt x="260" y="191" on="1"/>
        <pt x="234" y="189" on="0"/>
        <pt x="234" y="141" on="0"/>
      </contour>
      <contour>
        <pt x="432" y="548" on="0"/>
        <pt x="112" y="548" on="0"/>
        <pt x="112" y="708" on="1"/>
        <pt x="228" y="718" on="1"/>
        <pt x="233" y="673" on="0"/>
        <pt x="311" y="673" on="0"/>
        <pt x="316" y="718" on="1"/>
        <pt x="432" y="708" on="1"/>
      </contour>
    </TTGlyph>
    <TTGlyph name="acircumflex" xMin="10" yMin="-13" xMax="542" yMax="723">
      <contour>
        <pt x="518" y="342" on="1"/>
        <pt x="518" y="152" on="1"/>
        <pt x="527" y="145" on="0"/>
        <pt x="542" y="141" on="1"/>
        <pt x="539" y="-1" on="1"/>
        <pt x="461" y="-13" on="0"/>
        <pt x="403" y="-13" on="0"/>
        <pt x="355" y="4" on="0"/>
        <pt x="347" y="13" on="1"/>
        <pt x="339" y="22" on="1"/>
        <pt x="277" y="-13" on="0"/>
        <pt x="100" y="-13" on="0"/>
        <pt x="10" y="68" on="0"/>
        <pt x="10" y="248" on="0"/>
        <pt x="112" y="309" on="0"/>
        <pt x="222" y="313" on="1"/>
        <pt x="294" y="316" on="1"/>
        <pt x="294" y="325" on="1"/>
        <pt x="294" y="344" on="0"/>
        <pt x="252" y="344" on="1"/>
        <pt x="161" y="344" on="0"/>
        <pt x="70" y="334" on="1"/>
        <pt x="37" y="331" on="1"/>
        <pt x="32" y="483" on="1"/>
        <pt x="164" y="518" on="0"/>
        <pt x="273" y="518" on="1"/>
        <pt x="387" y="518" on="0"/>
        <pt x="450" y="484" on="1"/>
        <pt x="518" y="448" on="0"/>
      </contour>
      <contour>
        <pt x="256" y="141" on="1"/>
        <pt x="275" y="141" on="0"/>
        <pt x="294" y="156" on="1"/>
        <pt x="294" y="193" on="1"/>
        <pt x="260" y="191" on="1"/>
        <pt x="234" y="189" on="0"/>
        <pt x="234" y="141" on="0"/>
      </contour>
      <contour>
        <pt x="101" y="557" on="1"/>
        <pt x="192" y="723" on="1"/>
        <pt x="350" y="723" on="1"/>
        <pt x="452" y="557" on="1"/>
        <pt x="290" y="557" on="1"/>
        <pt x="275" y="629" on="1"/>
        <pt x="263" y="557" on="1"/>
      </contour>
    </TTGlyph>
    <TTGlyph name="acute" xMin="176" yMin="557" xMax="456" yMax="723">
      <contour>
        <pt x="219" y="723" on="1"/>
        <pt x="456" y="723" on="1"/>
        <pt x="347" y="557" on="1"/>
        <pt x="176" y="557" on="1"/>
      </contour>
    </TTGlyph>
    <TTGlyph name="acute.cap" xMin="90" yMin="713" xMax="375" yMax="849">
      <contour>
        <pt x="133" y="849" on="1"/>
        <pt x="375" y="849" on="1"/>
        <pt x="266" y="713" on="1"/>
        <pt x="90" y="713" on="1"/>
      </contour>
    </TTGlyph>
    <TTGlyph name="adieresis" xMin="10" yMin="-13" xMax="542" yMax="713">
      <contour>
        <pt x="518" y="342" on="1"/>
        <pt x="518" y="152" on="1"/>
        <pt x="527" y="145" on="0"/>
        <pt x="542" y="141" on="1"/>
        <pt x="539" y="-1" on="1"/>
        <pt x="461" y="-13" on="0"/>
        <pt x="403" y="-13" on="0"/>
        <pt x="355" y="4" on="0"/>
        <pt x="347" y="13" on="1"/>
        <pt x="339" y="22" on="1"/>
        <pt x="277" y="-13" on="0"/>
        <pt x="100" y="-13" on="0"/>
        <pt x="10" y="68" on="0"/>
        <pt x="10" y="248" on="0"/>
        <pt x="112" y="309" on="0"/>
        <pt x="222" y="313" on="1"/>
        <pt x="294" y="316" on="1"/>
        <pt x="294" y="325" on="1"/>
        <pt x="294" y="344" on="0"/>
        <pt x="252" y="344" on="1"/>
        <pt x="161" y="344" on="0"/>
        <pt x="70" y="334" on="1"/>
        <pt x="37" y="331" on="1"/>
        <pt x="32" y="483" on="1"/>
        <pt x="164" y="518" on="0"/>
        <pt x="273" y="518" on="1"/>
        <pt x="387" y="518" on="0"/>
        <pt x="450" y="484" on="1"/>
        <pt x="518" y="448" on="0"/>
      </contour>
      <contour>
        <pt x="256" y="141" on="1"/>
        <pt x="275" y="141" on="0"/>
        <pt x="294" y="156" on="1"/>
        <pt x="294" y="193" on="1"/>
        <pt x="260" y="191" on="1"/>
        <pt x="234" y="189" on="0"/>
        <pt x="234" y="141" on="0"/>
      </contour>
      <contour>
        <pt x="299" y="559" on="1"/>
        <pt x="299" y="713" on="1"/>
        <pt x="463" y="713" on="1"/>
        <pt x="463" y="559" on="1"/>
      </contour>
      <contour>
        <pt x="89" y="559" on="1"/>
        <pt x="89" y="713" on="1"/>
        <pt x="253" y="713" on="1"/>
        <pt x="253" y="559" on="1"/>
      </contour>
    </TTGlyph>
    <TTGlyph name="ae" xMin="10" yMin="-13" xMax="793" yMax="518">
      <contour>
        <pt x="494" y="187" on="1"/>
        <pt x="495" y="152" on="0"/>
        <pt x="540" y="152" on="1"/>
        <pt x="639" y="152" on="0"/>
        <pt x="740" y="158" on="1"/>
        <pt x="778" y="161" on="1"/>
        <pt x="783" y="16" on="1"/>
        <pt x="650" y="-13" on="0"/>
        <pt x="429" y="-13" on="0"/>
        <pt x="383" y="21" on="1"/>
        <pt x="281" y="-13" on="0"/>
        <pt x="192" y="-13" on="1"/>
        <pt x="10" y="-13" on="0"/>
        <pt x="10" y="157" on="1"/>
        <pt x="10" y="232" on="0"/>
        <pt x="43" y="268" on="1"/>
        <pt x="78" y="307" on="0"/>
        <pt x="220" y="313" on="1"/>
        <pt x="288" y="316" on="1"/>
        <pt x="288" y="325" on="1"/>
        <pt x="288" y="344" on="0"/>
        <pt x="246" y="344" on="1"/>
        <pt x="156" y="344" on="0"/>
        <pt x="69" y="334" on="1"/>
        <pt x="37" y="331" on="1"/>
        <pt x="32" y="483" on="1"/>
        <pt x="158" y="518" on="0"/>
        <pt x="368" y="518" on="0"/>
        <pt x="408" y="492" on="1"/>
        <pt x="455" y="518" on="0"/>
        <pt x="532" y="518" on="1"/>
        <pt x="663" y="518" on="0"/>
        <pt x="793" y="404" on="0"/>
        <pt x="793" y="286" on="1"/>
        <pt x="783" y="187" on="1"/>
      </contour>
      <contour>
        <pt x="571" y="309" on="1"/>
        <pt x="571" y="338" on="0"/>
        <pt x="553" y="362" on="0"/>
        <pt x="510" y="362" on="0"/>
        <pt x="494" y="338" on="0"/>
        <pt x="493" y="309" on="1"/>
      </contour>
      <contour>
        <pt x="250" y="141" on="1"/>
        <pt x="269" y="141" on="0"/>
        <pt x="288" y="156" on="1"/>
        <pt x="288" y="193" on="1"/>
        <pt x="254" y="191" on="1"/>
        <pt x="228" y="189" on="0"/>
        <pt x="228" y="141" on="0"/>
      </contour>
    </TTGlyph>
    <TTGlyph name="aeacute" xMin="10" yMin="-13" xMax="813" yMax="723">
      <contour>
        <pt x="514" y="187" on="1"/>
        <pt x="515" y="152" on="0"/>
        <pt x="560" y="152" on="1"/>
        <pt x="659" y="152" on="0"/>
        <pt x="760" y="158" on="1"/>
        <pt x="798" y="161" on="1"/>
        <pt x="803" y="16" on="1"/>
        <pt x="670" y="-13" on="0"/>
        <pt x="447" y="-13" on="0"/>
        <pt x="386" y="22" on="1"/>
        <pt x="277" y="-13" on="0"/>
        <pt x="104" y="-13" on="0"/>
        <pt x="10" y="71" on="0"/>
        <pt x="10" y="157" on="1"/>
        <pt x="10" y="232" on="0"/>
        <pt x="43" y="268" on="1"/>
        <pt x="78" y="307" on="0"/>
        <pt x="220" y="313" on="1"/>
        <pt x="288" y="316" on="1"/>
        <pt x="288" y="325" on="1"/>
        <pt x="288" y="344" on="0"/>
        <pt x="246" y="344" on="1"/>
        <pt x="156" y="344" on="0"/>
        <pt x="69" y="334" on="1"/>
        <pt x="37" y="331" on="1"/>
        <pt x="32" y="483" on="1"/>
        <pt x="158" y="518" on="0"/>
        <pt x="369" y="518" on="0"/>
        <pt x="422" y="493" on="1"/>
        <pt x="478" y="518" on="0"/>
        <pt x="552" y="518" on="1"/>
        <pt x="683" y="518" on="0"/>
        <pt x="813" y="404" on="0"/>
        <pt x="813" y="286" on="1"/>
        <pt x="803" y="187" on="1"/>
      </contour>
      <contour>
        <pt x="362" y="723" on="1"/>
        <pt x="599" y="723" on="1"/>
        <pt x="490" y="557" on="1"/>
        <pt x="319" y="557" on="1"/>
      </contour>
      <contour>
        <pt x="591" y="309" on="1"/>
        <pt x="591" y="338" on="0"/>
        <pt x="573" y="362" on="0"/>
        <pt x="530" y="362" on="0"/>
        <pt x="514" y="338" on="0"/>
        <pt x="513" y="309" on="1"/>
      </contour>
      <contour>
        <pt x="250" y="141" on="1"/>
        <pt x="269" y="141" on="0"/>
        <pt x="288" y="156" on="1"/>
        <pt x="288" y="193" on="1"/>
        <pt x="254" y="191" on="1"/>
        <pt x="228" y="189" on="0"/>
        <pt x="228" y="141" on="0"/>
      </contour>
    </TTGlyph>
    <TTGlyph name="agrave" xMin="10" yMin="-13" xMax="542" yMax="723">
      <contour>
        <pt x="518" y="342" on="1"/>
        <pt x="518" y="152" on="1"/>
        <pt x="527" y="145" on="0"/>
        <pt x="542" y="141" on="1"/>
        <pt x="539" y="-1" on="1"/>
        <pt x="461" y="-13" on="0"/>
        <pt x="403" y="-13" on="0"/>
        <pt x="355" y="4" on="0"/>
        <pt x="347" y="13" on="1"/>
        <pt x="339" y="22" on="1"/>
        <pt x="277" y="-13" on="0"/>
        <pt x="100" y="-13" on="0"/>
        <pt x="10" y="68" on="0"/>
        <pt x="10" y="248" on="0"/>
        <pt x="112" y="309" on="0"/>
        <pt x="222" y="313" on="1"/>
        <pt x="294" y="316" on="1"/>
        <pt x="294" y="325" on="1"/>
        <pt x="294" y="344" on="0"/>
        <pt x="252" y="344" on="1"/>
        <pt x="161" y="344" on="0"/>
        <pt x="70" y="334" on="1"/>
        <pt x="37" y="331" on="1"/>
        <pt x="32" y="483" on="1"/>
        <pt x="164" y="518" on="0"/>
        <pt x="273" y="518" on="1"/>
        <pt x="387" y="518" on="0"/>
        <pt x="450" y="484" on="1"/>
        <pt x="518" y="448" on="0"/>
      </contour>
      <contour>
        <pt x="256" y="141" on="1"/>
        <pt x="275" y="141" on="0"/>
        <pt x="294" y="156" on="1"/>
        <pt x="294" y="193" on="1"/>
        <pt x="260" y="191" on="1"/>
        <pt x="234" y="189" on="0"/>
        <pt x="234" y="141" on="0"/>
      </contour>
      <contour>
        <pt x="94" y="723" on="1"/>
        <pt x="331" y="723" on="1"/>
        <pt x="374" y="557" on="1"/>
        <pt x="203" y="557" on="1"/>
      </contour>
    </TTGlyph>
    <TTGlyph name="amacron" xMin="10" yMin="-13" xMax="542" yMax="707">
      <contour>
        <pt x="518" y="342" on="1"/>
        <pt x="518" y="152" on="1"/>
        <pt x="527" y="145" on="0"/>
        <pt x="542" y="141" on="1"/>
        <pt x="539" y="-1" on="1"/>
        <pt x="461" y="-13" on="0"/>
        <pt x="403" y="-13" on="0"/>
        <pt x="355" y="4" on="0"/>
        <pt x="347" y="13" on="1"/>
        <pt x="339" y="22" on="1"/>
        <pt x="277" y="-13" on="0"/>
        <pt x="100" y="-13" on="0"/>
        <pt x="10" y="68" on="0"/>
        <pt x="10" y="248" on="0"/>
        <pt x="112" y="309" on="0"/>
        <pt x="222" y="313" on="1"/>
        <pt x="294" y="316" on="1"/>
        <pt x="294" y="325" on="1"/>
        <pt x="294" y="344" on="0"/>
        <pt x="252" y="344" on="1"/>
        <pt x="161" y="344" on="0"/>
        <pt x="70" y="334" on="1"/>
        <pt x="37" y="331" on="1"/>
        <pt x="32" y="483" on="1"/>
        <pt x="164" y="518" on="0"/>
        <pt x="273" y="518" on="1"/>
        <pt x="387" y="518" on="0"/>
        <pt x="450" y="484" on="1"/>
        <pt x="518" y="448" on="0"/>
      </contour>
      <contour>
        <pt x="256" y="141" on="1"/>
        <pt x="275" y="141" on="0"/>
        <pt x="294" y="156" on="1"/>
        <pt x="294" y="193" on="1"/>
        <pt x="260" y="191" on="1"/>
        <pt x="234" y="189" on="0"/>
        <pt x="234" y="141" on="0"/>
      </contour>
      <contour>
        <pt x="113" y="563" on="1"/>
        <pt x="113" y="707" on="1"/>
        <pt x="440" y="707" on="1"/>
        <pt x="440" y="563" on="1"/>
      </contour>
    </TTGlyph>
    <TTGlyph name="ampersand" xMin="6" yMin="-13" xMax="704" yMax="683">
      <contour>
        <pt x="337" y="683" on="1"/>
        <pt x="520" y="683" on="0"/>
        <pt x="566" y="590" on="1"/>
        <pt x="585" y="554" on="0"/>
        <pt x="585" y="430" on="0"/>
        <pt x="533" y="366" on="0"/>
        <pt x="440" y="342" on="1"/>
        <pt x="499" y="291" on="1"/>
        <pt x="510" y="312" on="0"/>
        <pt x="515" y="331" on="1"/>
        <pt x="697" y="324" on="1"/>
        <pt x="672" y="227" on="0"/>
        <pt x="639" y="168" on="1"/>
        <pt x="704" y="112" on="1"/>
        <pt x="658" y="-13" on="1"/>
        <pt x="523" y="42" on="1"/>
        <pt x="434" y="-13" on="0"/>
        <pt x="136" y="-13" on="0"/>
        <pt x="6" y="76" on="0"/>
        <pt x="6" y="190" on="1"/>
        <pt x="6" y="268" on="0"/>
        <pt x="60" y="354" on="0"/>
        <pt x="114" y="377" on="1"/>
        <pt x="87" y="418" on="0"/>
        <pt x="87" y="500" on="1"/>
        <pt x="87" y="683" on="0"/>
      </contour>
      <contour>
        <pt x="304" y="498" on="1"/>
        <pt x="304" y="465" on="0"/>
        <pt x="329" y="440" on="1"/>
        <pt x="365" y="465" on="0"/>
        <pt x="365" y="498" on="1"/>
        <pt x="365" y="543" on="0"/>
        <pt x="304" y="543" on="0"/>
      </contour>
      <contour>
        <pt x="308" y="168" on="1"/>
        <pt x="327" y="168" on="0"/>
        <pt x="343" y="172" on="1"/>
        <pt x="236" y="262" on="1"/>
        <pt x="232" y="249" on="0"/>
        <pt x="232" y="229" on="1"/>
        <pt x="232" y="168" on="0"/>
      </contour>
    </TTGlyph>
    <TTGlyph name="aogonek" xMin="10" yMin="-220" xMax="542" yMax="518">
      <contour>
        <pt x="406" y="-220" on="1"/>
        <pt x="251" y="-220" on="0"/>
        <pt x="251" y="-104" on="1"/>
        <pt x="251" y="-26" on="0"/>
        <pt x="341" y="19" on="1"/>
        <pt x="339" y="22" on="1"/>
        <pt x="277" y="-13" on="0"/>
        <pt x="100" y="-13" on="0"/>
        <pt x="10" y="68" on="0"/>
        <pt x="10" y="248" on="0"/>
        <pt x="112" y="309" on="0"/>
        <pt x="222" y="313" on="1"/>
        <pt x="294" y="316" on="1"/>
        <pt x="294" y="325" on="1"/>
        <pt x="294" y="344" on="0"/>
        <pt x="252" y="344" on="1"/>
        <pt x="161" y="344" on="0"/>
        <pt x="70" y="334" on="1"/>
        <pt x="37" y="331" on="1"/>
        <pt x="32" y="483" on="1"/>
        <pt x="164" y="518" on="0"/>
        <pt x="273" y="518" on="1"/>
        <pt x="387" y="518" on="0"/>
        <pt x="450" y="484" on="1"/>
        <pt x="518" y="448" on="0"/>
        <pt x="518" y="342" on="1"/>
        <pt x="518" y="152" on="1"/>
        <pt x="527" y="145" on="0"/>
        <pt x="542" y="141" on="1"/>
        <pt x="539" y="-1" on="1"/>
        <pt x="527" y="-3" on="0"/>
        <pt x="512" y="-5" on="1"/>
        <pt x="461" y="-54" on="0"/>
        <pt x="461" y="-105" on="0"/>
        <pt x="483" y="-105" on="1"/>
        <pt x="529" y="-101" on="1"/>
        <pt x="542" y="-205" on="1"/>
        <pt x="493" y="-220" on="0"/>
      </contour>
      <contour>
        <pt x="256" y="141" on="1"/>
        <pt x="275" y="141" on="0"/>
        <pt x="294" y="156" on="1"/>
        <pt x="294" y="193" on="1"/>
        <pt x="260" y="191" on="1"/>
        <pt x="234" y="189" on="0"/>
        <pt x="234" y="141" on="0"/>
      </contour>
    </TTGlyph>
    <TTGlyph name="approxequal" xMin="61" yMin="11" xMax="487" yMax="490">
      <contour>
        <pt x="401" y="11" on="0"/>
        <pt x="343" y="11" on="0"/>
        <pt x="197" y="55" on="0"/>
        <pt x="159" y="55" on="0"/>
        <pt x="104" y="35" on="0"/>
        <pt x="88" y="25" on="1"/>
        <pt x="71" y="15" on="1"/>
        <pt x="61" y="187" on="1"/>
        <pt x="82" y="208" on="0"/>
        <pt x="156" y="240" on="0"/>
        <pt x="214" y="240" on="0"/>
        <pt x="353" y="196" on="0"/>
        <pt x="374" y="196" on="1"/>
        <pt x="409" y="196" on="0"/>
        <pt x="462" y="226" on="1"/>
        <pt x="479" y="235" on="1"/>
        <pt x="487" y="64" on="1"/>
        <pt x="470" y="44" on="0"/>
      </contour>
      <contour>
        <pt x="401" y="261" on="0"/>
        <pt x="343" y="261" on="0"/>
        <pt x="197" y="305" on="0"/>
        <pt x="159" y="305" on="0"/>
        <pt x="104" y="285" on="0"/>
        <pt x="88" y="275" on="1"/>
        <pt x="71" y="265" on="1"/>
        <pt x="61" y="437" on="1"/>
        <pt x="82" y="458" on="0"/>
        <pt x="156" y="490" on="0"/>
        <pt x="214" y="490" on="0"/>
        <pt x="353" y="446" on="0"/>
        <pt x="374" y="446" on="1"/>
        <pt x="409" y="446" on="0"/>
        <pt x="462" y="476" on="1"/>
        <pt x="479" y="485" on="1"/>
        <pt x="487" y="314" on="1"/>
        <pt x="470" y="294" on="0"/>
      </contour>
    </TTGlyph>
    <TTGlyph name="aring" xMin="10" yMin="-13" xMax="542" yMax="741">
      <contour>
        <pt x="518" y="342" on="1"/>
        <pt x="518" y="152" on="1"/>
        <pt x="527" y="145" on="0"/>
        <pt x="542" y="141" on="1"/>
        <pt x="539" y="-1" on="1"/>
        <pt x="461" y="-13" on="0"/>
        <pt x="403" y="-13" on="0"/>
        <pt x="355" y="4" on="0"/>
        <pt x="347" y="13" on="1"/>
        <pt x="339" y="22" on="1"/>
        <pt x="277" y="-13" on="0"/>
        <pt x="100" y="-13" on="0"/>
        <pt x="10" y="68" on="0"/>
        <pt x="10" y="248" on="0"/>
        <pt x="112" y="309" on="0"/>
        <pt x="222" y="313" on="1"/>
        <pt x="294" y="316" on="1"/>
        <pt x="294" y="325" on="1"/>
        <pt x="294" y="344" on="0"/>
        <pt x="252" y="344" on="1"/>
        <pt x="161" y="344" on="0"/>
        <pt x="70" y="334" on="1"/>
        <pt x="37" y="331" on="1"/>
        <pt x="32" y="483" on="1"/>
        <pt x="164" y="518" on="0"/>
        <pt x="273" y="518" on="1"/>
        <pt x="387" y="518" on="0"/>
        <pt x="450" y="484" on="1"/>
        <pt x="518" y="448" on="0"/>
      </contour>
      <contour>
        <pt x="256" y="141" on="1"/>
        <pt x="275" y="141" on="0"/>
        <pt x="294" y="156" on="1"/>
        <pt x="294" y="193" on="1"/>
        <pt x="260" y="191" on="1"/>
        <pt x="234" y="189" on="0"/>
        <pt x="234" y="141" on="0"/>
      </contour>
      <contour>
        <pt x="142" y="592" on="0"/>
        <pt x="142" y="692" on="0"/>
        <pt x="214" y="741" on="0"/>
        <pt x="337" y="741" on="0"/>
        <pt x="410" y="692" on="0"/>
        <pt x="410" y="594" on="0"/>
        <pt x="339" y="543" on="0"/>
        <pt x="214" y="543" on="0"/>
      </contour>
      <contour>
        <pt x="246" y="663" on="0"/>
        <pt x="246" y="620" on="0"/>
        <pt x="307" y="620" on="0"/>
        <pt x="307" y="663" on="0"/>
      </contour>
    </TTGlyph>
    <TTGlyph name="aringacute" xMin="10" yMin="-13" xMax="542" yMax="922">
      <contour>
        <pt x="518" y="342" on="1"/>
        <pt x="518" y="152" on="1"/>
        <pt x="527" y="145" on="0"/>
        <pt x="542" y="141" on="1"/>
        <pt x="539" y="-1" on="1"/>
        <pt x="461" y="-13" on="0"/>
        <pt x="403" y="-13" on="0"/>
        <pt x="355" y="4" on="0"/>
        <pt x="347" y="13" on="1"/>
        <pt x="339" y="22" on="1"/>
        <pt x="277" y="-13" on="0"/>
        <pt x="100" y="-13" on="0"/>
        <pt x="10" y="68" on="0"/>
        <pt x="10" y="248" on="0"/>
        <pt x="112" y="309" on="0"/>
        <pt x="222" y="313" on="1"/>
        <pt x="294" y="316" on="1"/>
        <pt x="294" y="325" on="1"/>
        <pt x="294" y="344" on="0"/>
        <pt x="252" y="344" on="1"/>
        <pt x="161" y="344" on="0"/>
        <pt x="70" y="334" on="1"/>
        <pt x="37" y="331" on="1"/>
        <pt x="32" y="483" on="1"/>
        <pt x="164" y="518" on="0"/>
        <pt x="273" y="518" on="1"/>
        <pt x="387" y="518" on="0"/>
        <pt x="450" y="484" on="1"/>
        <pt x="518" y="448" on="0"/>
      </contour>
      <contour>
        <pt x="256" y="141" on="1"/>
        <pt x="275" y="141" on="0"/>
        <pt x="294" y="156" on="1"/>
        <pt x="294" y="193" on="1"/>
        <pt x="260" y="191" on="1"/>
        <pt x="234" y="189" on="0"/>
        <pt x="234" y="141" on="0"/>
      </contour>
      <contour>
        <pt x="138" y="587" on="0"/>
        <pt x="138" y="687" on="0"/>
        <pt x="210" y="736" on="0"/>
        <pt x="333" y="736" on="0"/>
        <pt x="406" y="687" on="0"/>
        <pt x="406" y="589" on="0"/>
        <pt x="335" y="538" on="0"/>
        <pt x="210" y="538" on="0"/>
      </contour>
      <contour>
        <pt x="242" y="658" on="0"/>
        <pt x="242" y="615" on="0"/>
        <pt x="303" y="615" on="0"/>
        <pt x="303" y="658" on="0"/>
      </contour>
      <contour>
        <pt x="214" y="922" on="1"/>
        <pt x="451" y="922" on="1"/>
        <pt x="342" y="756" on="1"/>
        <pt x="171" y="756" on="1"/>
      </contour>
    </TTGlyph>
    <TTGlyph name="asciicircum" xMin="46" yMin="313" xMax="588" yMax="670">
      <contour>
        <pt x="378" y="313" on="1"/>
        <pt x="319" y="530" on="1"/>
        <pt x="256" y="313" on="1"/>
        <pt x="46" y="313" on="1"/>
        <pt x="190" y="670" on="1"/>
        <pt x="444" y="670" on="1"/>
        <pt x="588" y="313" on="1"/>
      </contour>
    </TTGlyph>
    <TTGlyph name="asciitilde" xMin="61" yMin="136" xMax="487" yMax="365">
      <contour>
        <pt x="401" y="136" on="0"/>
        <pt x="343" y="136" on="0"/>
        <pt x="197" y="180" on="0"/>
        <pt x="159" y="180" on="0"/>
        <pt x="104" y="160" on="0"/>
        <pt x="88" y="150" on="1"/>
        <pt x="71" y="140" on="1"/>
        <pt x="61" y="312" on="1"/>
        <pt x="82" y="333" on="0"/>
        <pt x="156" y="365" on="0"/>
        <pt x="214" y="365" on="0"/>
        <pt x="353" y="321" on="0"/>
        <pt x="374" y="321" on="1"/>
        <pt x="413" y="321" on="0"/>
        <pt x="462" y="350" on="1"/>
        <pt x="479" y="360" on="1"/>
        <pt x="487" y="189" on="1"/>
        <pt x="470" y="169" on="0"/>
      </contour>
    </TTGlyph>
    <TTGlyph name="asterisk" xMin="19" yMin="340" xMax="390" yMax="730">
      <contour>
        <pt x="390" y="469" on="1"/>
        <pt x="289" y="476" on="1"/>
        <pt x="327" y="381" on="1"/>
        <pt x="202" y="340" on="1"/>
        <pt x="176" y="438" on="1"/>
        <pt x="98" y="373" on="1"/>
        <pt x="20" y="480" on="1"/>
        <pt x="105" y="534" on="1"/>
        <pt x="19" y="588" on="1"/>
        <pt x="97" y="696" on="1"/>
        <pt x="174" y="631" on="1"/>
        <pt x="199" y="730" on="1"/>
        <pt x="326" y="689" on="1"/>
        <pt x="288" y="595" on="1"/>
        <pt x="390" y="603" on="1"/>
      </contour>
    </TTGlyph>
    <TTGlyph name="at" xMin="23" yMin="-219" xMax="1008" yMax="729">
      <contour>
        <pt x="1008" y="315" on="1"/>
        <pt x="1008" y="298" on="1"/>
        <pt x="1008" y="126" on="0"/>
        <pt x="910" y="0" on="0"/>
        <pt x="655" y="0" on="0"/>
        <pt x="601" y="53" on="1"/>
        <pt x="531" y="0" on="0"/>
        <pt x="448" y="0" on="1"/>
        <pt x="337" y="0" on="0"/>
        <pt x="239" y="117" on="0"/>
        <pt x="239" y="245" on="1"/>
        <pt x="239" y="505" on="0"/>
        <pt x="423" y="505" on="1"/>
        <pt x="454" y="505" on="0"/>
        <pt x="513" y="486" on="0"/>
        <pt x="527" y="476" on="1"/>
        <pt x="541" y="467" on="1"/>
        <pt x="541" y="492" on="1"/>
        <pt x="765" y="492" on="1"/>
        <pt x="765" y="300" on="1"/>
        <pt x="765" y="221" on="0"/>
        <pt x="783" y="168" on="0"/>
        <pt x="828" y="168" on="0"/>
        <pt x="841" y="216" on="0"/>
        <pt x="841" y="298" on="1"/>
        <pt x="841" y="316" on="1"/>
        <pt x="841" y="397" on="0"/>
        <pt x="810" y="497" on="0"/>
        <pt x="731" y="556" on="0"/>
        <pt x="618" y="577" on="0"/>
        <pt x="454" y="577" on="0"/>
        <pt x="352" y="563" on="0"/>
        <pt x="262" y="523" on="0"/>
        <pt x="236" y="488" on="1"/>
        <pt x="180" y="413" on="0"/>
        <pt x="180" y="261" on="1"/>
        <pt x="180" y="116" on="0"/>
        <pt x="210" y="50" on="1"/>
        <pt x="228" y="13" on="0"/>
        <pt x="276" y="-31" on="0"/>
        <pt x="316" y="-44" on="1"/>
        <pt x="383" y="-67" on="0"/>
        <pt x="517" y="-67" on="1"/>
        <pt x="660" y="-57" on="1"/>
        <pt x="663" y="-210" on="1"/>
        <pt x="565" y="-219" on="0"/>
        <pt x="517" y="-219" on="1"/>
        <pt x="370" y="-219" on="0"/>
        <pt x="180" y="-167" on="0"/>
        <pt x="68" y="-46" on="0"/>
        <pt x="23" y="128" on="0"/>
        <pt x="23" y="393" on="0"/>
        <pt x="90" y="577" on="0"/>
        <pt x="224" y="683" on="0"/>
        <pt x="404" y="729" on="0"/>
        <pt x="527" y="729" on="1"/>
        <pt x="776" y="729" on="0"/>
        <pt x="1008" y="538" on="0"/>
      </contour>
      <contour>
        <pt x="465" y="209" on="0"/>
        <pt x="480" y="178" on="0"/>
        <pt x="518" y="178" on="0"/>
        <pt x="546" y="189" on="1"/>
        <pt x="541" y="223" on="0"/>
        <pt x="541" y="279" on="1"/>
        <pt x="541" y="320" on="1"/>
        <pt x="526" y="324" on="0"/>
        <pt x="485" y="324" on="0"/>
        <pt x="465" y="295" on="0"/>
      </contour>
    </TTGlyph>
    <TTGlyph name="at.cap" xMin="23" yMin="-159" xMax="1008" yMax="789">
      <contour>
        <pt x="1008" y="375" on="1"/>
        <pt x="1008" y="358" on="1"/>
        <pt x="1008" y="186" on="0"/>
        <pt x="910" y="60" on="0"/>
        <pt x="655" y="60" on="0"/>
        <pt x="601" y="113" on="1"/>
        <pt x="531" y="60" on="0"/>
        <pt x="448" y="60" on="1"/>
        <pt x="337" y="60" on="0"/>
        <pt x="239" y="177" on="0"/>
        <pt x="239" y="305" on="1"/>
        <pt x="239" y="565" on="0"/>
        <pt x="423" y="565" on="1"/>
        <pt x="454" y="565" on="0"/>
        <pt x="513" y="546" on="0"/>
        <pt x="527" y="536" on="1"/>
        <pt x="541" y="527" on="1"/>
        <pt x="541" y="552" on="1"/>
        <pt x="765" y="552" on="1"/>
        <pt x="765" y="360" on="1"/>
        <pt x="765" y="281" on="0"/>
        <pt x="783" y="228" on="0"/>
        <pt x="828" y="228" on="0"/>
        <pt x="841" y="276" on="0"/>
        <pt x="841" y="358" on="1"/>
        <pt x="841" y="376" on="1"/>
        <pt x="841" y="457" on="0"/>
        <pt x="810" y="557" on="0"/>
        <pt x="731" y="616" on="0"/>
        <pt x="618" y="637" on="0"/>
        <pt x="454" y="637" on="0"/>
        <pt x="352" y="623" on="0"/>
        <pt x="262" y="583" on="0"/>
        <pt x="236" y="548" on="1"/>
        <pt x="180" y="473" on="0"/>
        <pt x="180" y="321" on="1"/>
        <pt x="180" y="176" on="0"/>
        <pt x="210" y="110" on="1"/>
        <pt x="228" y="73" on="0"/>
        <pt x="276" y="29" on="0"/>
        <pt x="316" y="16" on="1"/>
        <pt x="383" y="-7" on="0"/>
        <pt x="517" y="-7" on="1"/>
        <pt x="660" y="3" on="1"/>
        <pt x="663" y="-150" on="1"/>
        <pt x="565" y="-159" on="0"/>
        <pt x="517" y="-159" on="1"/>
        <pt x="370" y="-159" on="0"/>
        <pt x="180" y="-107" on="0"/>
        <pt x="68" y="14" on="0"/>
        <pt x="23" y="188" on="0"/>
        <pt x="23" y="453" on="0"/>
        <pt x="90" y="637" on="0"/>
        <pt x="224" y="743" on="0"/>
        <pt x="404" y="789" on="0"/>
        <pt x="527" y="789" on="1"/>
        <pt x="776" y="789" on="0"/>
        <pt x="1008" y="598" on="0"/>
      </contour>
      <contour>
        <pt x="465" y="269" on="0"/>
        <pt x="480" y="238" on="0"/>
        <pt x="518" y="238" on="0"/>
        <pt x="546" y="249" on="1"/>
        <pt x="541" y="283" on="0"/>
        <pt x="541" y="339" on="1"/>
        <pt x="541" y="380" on="1"/>
        <pt x="526" y="384" on="0"/>
        <pt x="485" y="384" on="0"/>
        <pt x="465" y="355" on="0"/>
      </contour>
    </TTGlyph>
    <TTGlyph name="atilde" xMin="10" yMin="-13" xMax="542" yMax="731">
      <contour>
        <pt x="518" y="342" on="1"/>
        <pt x="518" y="152" on="1"/>
        <pt x="527" y="145" on="0"/>
        <pt x="542" y="141" on="1"/>
        <pt x="539" y="-1" on="1"/>
        <pt x="461" y="-13" on="0"/>
        <pt x="403" y="-13" on="0"/>
        <pt x="355" y="4" on="0"/>
        <pt x="347" y="13" on="1"/>
        <pt x="339" y="22" on="1"/>
        <pt x="277" y="-13" on="0"/>
        <pt x="100" y="-13" on="0"/>
        <pt x="10" y="68" on="0"/>
        <pt x="10" y="248" on="0"/>
        <pt x="112" y="309" on="0"/>
        <pt x="222" y="313" on="1"/>
        <pt x="294" y="316" on="1"/>
        <pt x="294" y="325" on="1"/>
        <pt x="294" y="344" on="0"/>
        <pt x="252" y="344" on="1"/>
        <pt x="161" y="344" on="0"/>
        <pt x="70" y="334" on="1"/>
        <pt x="37" y="331" on="1"/>
        <pt x="32" y="483" on="1"/>
        <pt x="164" y="518" on="0"/>
        <pt x="273" y="518" on="1"/>
        <pt x="387" y="518" on="0"/>
        <pt x="450" y="484" on="1"/>
        <pt x="518" y="448" on="0"/>
      </contour>
      <contour>
        <pt x="256" y="141" on="1"/>
        <pt x="275" y="141" on="0"/>
        <pt x="294" y="156" on="1"/>
        <pt x="294" y="193" on="1"/>
        <pt x="260" y="191" on="1"/>
        <pt x="234" y="189" on="0"/>
        <pt x="234" y="141" on="0"/>
      </contour>
      <contour>
        <pt x="376" y="547" on="0"/>
        <pt x="324" y="547" on="0"/>
        <pt x="217" y="591" on="0"/>
        <pt x="204" y="591" on="1"/>
        <pt x="179" y="591" on="0"/>
        <pt x="137" y="561" on="1"/>
        <pt x="123" y="551" on="1"/>
        <pt x="94" y="667" on="1"/>
        <pt x="114" y="691" on="0"/>
        <pt x="177" y="731" on="0"/>
        <pt x="236" y="731" on="0"/>
        <pt x="338" y="688" on="0"/>
        <pt x="349" y="688" on="1"/>
        <pt x="370" y="688" on="0"/>
        <pt x="416" y="718" on="1"/>
        <pt x="430" y="727" on="1"/>
        <pt x="459" y="610" on="1"/>
        <pt x="438" y="586" on="0"/>
      </contour>
    </TTGlyph>
    <TTGlyph name="b" xMin="27" yMin="-13" xMax="553" yMax="690">
      <contour>
        <pt x="355" y="518" on="1"/>
        <pt x="553" y="518" on="0"/>
        <pt x="553" y="261" on="1"/>
        <pt x="553" y="107" on="0"/>
        <pt x="435" y="-13" on="0"/>
        <pt x="279" y="-13" on="1"/>
        <pt x="215" y="-13" on="0"/>
        <pt x="72" y="4" on="1"/>
        <pt x="27" y="10" on="1"/>
        <pt x="27" y="690" on="1"/>
        <pt x="251" y="690" on="1"/>
        <pt x="251" y="502" on="1"/>
        <pt x="317" y="518" on="0"/>
      </contour>
      <contour>
        <pt x="283" y="168" on="1"/>
        <pt x="327" y="168" on="0"/>
        <pt x="327" y="256" on="1"/>
        <pt x="327" y="303" on="0"/>
        <pt x="307" y="337" on="0"/>
        <pt x="283" y="337" on="1"/>
        <pt x="251" y="330" on="1"/>
        <pt x="251" y="171" on="1"/>
        <pt x="264" y="168" on="0"/>
      </contour>
    </TTGlyph>
    <TTGlyph name="backslash" xMin="15" yMin="-74" xMax="535" yMax="720">
      <contour>
        <pt x="232" y="720" on="1"/>
        <pt x="535" y="-30" on="1"/>
        <pt x="318" y="-74" on="1"/>
        <pt x="15" y="676" on="1"/>
      </contour>
    </TTGlyph>
    <TTGlyph name="bar" xMin="34" yMin="-220" xMax="252" yMax="703">
      <contour>
        <pt x="34" y="-220" on="1"/>
        <pt x="34" y="703" on="1"/>
        <pt x="252" y="703" on="1"/>
        <pt x="252" y="-220" on="1"/>
      </contour>
    </TTGlyph>
    <TTGlyph name="braceleft" xMin="15" yMin="-134" xMax="344" yMax="761">
      <contour>
        <pt x="273" y="518" on="1"/>
        <pt x="276" y="437" on="1"/>
        <pt x="276" y="386" on="0"/>
        <pt x="253" y="339" on="0"/>
        <pt x="220" y="321" on="1"/>
        <pt x="252" y="303" on="0"/>
        <pt x="276" y="256" on="0"/>
        <pt x="276" y="211" on="1"/>
        <pt x="273" y="113" on="1"/>
        <pt x="273" y="75" on="0"/>
        <pt x="299" y="50" on="0"/>
        <pt x="344" y="46" on="1"/>
        <pt x="344" y="-134" on="1"/>
        <pt x="227" y="-134" on="0"/>
        <pt x="122" y="-108" on="0"/>
        <pt x="98" y="-90" on="1"/>
        <pt x="46" y="-48" on="0"/>
        <pt x="46" y="38" on="1"/>
        <pt x="46" y="59" on="0"/>
        <pt x="59" y="179" on="0"/>
        <pt x="59" y="190" on="1"/>
        <pt x="59" y="221" on="0"/>
        <pt x="15" y="230" on="1"/>
        <pt x="15" y="399" on="1"/>
        <pt x="59" y="407" on="0"/>
        <pt x="59" y="433" on="1"/>
        <pt x="46" y="586" on="1"/>
        <pt x="46" y="668" on="0"/>
        <pt x="84" y="704" on="1"/>
        <pt x="126" y="742" on="0"/>
        <pt x="188" y="752" on="1"/>
        <pt x="253" y="761" on="0"/>
        <pt x="344" y="761" on="1"/>
        <pt x="344" y="581" on="1"/>
        <pt x="298" y="577" on="0"/>
        <pt x="273" y="555" on="0"/>
      </contour>
    </TTGlyph>
    <TTGlyph name="braceleft.cap" xMin="15" yMin="-120" xMax="344" yMax="775">
      <contour>
        <pt x="273" y="532" on="1"/>
        <pt x="276" y="451" on="1"/>
        <pt x="276" y="400" on="0"/>
        <pt x="253" y="353" on="0"/>
        <pt x="220" y="335" on="1"/>
        <pt x="252" y="317" on="0"/>
        <pt x="276" y="270" on="0"/>
        <pt x="276" y="225" on="1"/>
        <pt x="273" y="127" on="1"/>
        <pt x="273" y="89" on="0"/>
        <pt x="299" y="64" on="0"/>
        <pt x="344" y="60" on="1"/>
        <pt x="344" y="-120" on="1"/>
        <pt x="227" y="-120" on="0"/>
        <pt x="122" y="-94" on="0"/>
        <pt x="98" y="-76" on="1"/>
        <pt x="46" y="-34" on="0"/>
        <pt x="46" y="52" on="1"/>
        <pt x="46" y="73" on="0"/>
        <pt x="59" y="193" on="0"/>
        <pt x="59" y="204" on="1"/>
        <pt x="59" y="235" on="0"/>
        <pt x="15" y="244" on="1"/>
        <pt x="15" y="413" on="1"/>
        <pt x="59" y="421" on="0"/>
        <pt x="59" y="447" on="1"/>
        <pt x="46" y="600" on="1"/>
        <pt x="46" y="682" on="0"/>
        <pt x="84" y="718" on="1"/>
        <pt x="126" y="756" on="0"/>
        <pt x="188" y="766" on="1"/>
        <pt x="253" y="775" on="0"/>
        <pt x="344" y="775" on="1"/>
        <pt x="344" y="595" on="1"/>
        <pt x="298" y="591" on="0"/>
        <pt x="273" y="569" on="0"/>
      </contour>
    </TTGlyph>
    <TTGlyph name="braceright" xMin="15" yMin="-138" xMax="344" yMax="757">
      <contour>
        <pt x="86" y="105" on="1"/>
        <pt x="83" y="186" on="1"/>
        <pt x="83" y="238" on="0"/>
        <pt x="106" y="284" on="0"/>
        <pt x="139" y="302" on="1"/>
        <pt x="107" y="320" on="0"/>
        <pt x="83" y="367" on="0"/>
        <pt x="83" y="412" on="1"/>
        <pt x="86" y="510" on="1"/>
        <pt x="86" y="548" on="0"/>
        <pt x="60" y="573" on="0"/>
        <pt x="15" y="577" on="1"/>
        <pt x="15" y="757" on="1"/>
        <pt x="132" y="757" on="0"/>
        <pt x="237" y="731" on="0"/>
        <pt x="260" y="712" on="1"/>
        <pt x="313" y="671" on="0"/>
        <pt x="313" y="585" on="1"/>
        <pt x="313" y="564" on="0"/>
        <pt x="300" y="444" on="0"/>
        <pt x="300" y="433" on="1"/>
        <pt x="300" y="402" on="0"/>
        <pt x="344" y="393" on="1"/>
        <pt x="344" y="224" on="1"/>
        <pt x="300" y="216" on="0"/>
        <pt x="300" y="190" on="1"/>
        <pt x="313" y="37" on="1"/>
        <pt x="313" y="-45" on="0"/>
        <pt x="275" y="-80" on="1"/>
        <pt x="233" y="-119" on="0"/>
        <pt x="170" y="-128" on="1"/>
        <pt x="106" y="-138" on="0"/>
        <pt x="15" y="-138" on="1"/>
        <pt x="15" y="42" on="1"/>
        <pt x="61" y="46" on="0"/>
        <pt x="86" y="68" on="0"/>
      </contour>
    </TTGlyph>
    <TTGlyph name="braceright.cap" xMin="16" yMin="-105" xMax="345" yMax="790">
      <contour>
        <pt x="87" y="138" on="1"/>
        <pt x="84" y="219" on="1"/>
        <pt x="84" y="270" on="0"/>
        <pt x="107" y="317" on="0"/>
        <pt x="140" y="335" on="1"/>
        <pt x="108" y="353" on="0"/>
        <pt x="84" y="400" on="0"/>
        <pt x="84" y="445" on="1"/>
        <pt x="87" y="543" on="1"/>
        <pt x="87" y="581" on="0"/>
        <pt x="61" y="606" on="0"/>
        <pt x="16" y="610" on="1"/>
        <pt x="16" y="790" on="1"/>
        <pt x="133" y="790" on="0"/>
        <pt x="238" y="764" on="0"/>
        <pt x="262" y="746" on="1"/>
        <pt x="314" y="704" on="0"/>
        <pt x="314" y="618" on="1"/>
        <pt x="314" y="597" on="0"/>
        <pt x="301" y="477" on="0"/>
        <pt x="301" y="466" on="1"/>
        <pt x="301" y="435" on="0"/>
        <pt x="345" y="426" on="1"/>
        <pt x="345" y="257" on="1"/>
        <pt x="301" y="249" on="0"/>
        <pt x="301" y="223" on="1"/>
        <pt x="314" y="70" on="1"/>
        <pt x="314" y="-12" on="0"/>
        <pt x="276" y="-48" on="1"/>
        <pt x="234" y="-86" on="0"/>
        <pt x="172" y="-96" on="1"/>
        <pt x="107" y="-105" on="0"/>
        <pt x="16" y="-105" on="1"/>
        <pt x="16" y="75" on="1"/>
        <pt x="62" y="79" on="0"/>
        <pt x="87" y="101" on="0"/>
      </contour>
    </TTGlyph>
    <TTGlyph name="bracketleft" xMin="33" yMin="-123" xMax="322" yMax="749">
      <contour>
        <pt x="322" y="749" on="1"/>
        <pt x="322" y="568" on="1"/>
        <pt x="258" y="568" on="1"/>
        <pt x="258" y="58" on="1"/>
        <pt x="322" y="58" on="1"/>
        <pt x="322" y="-123" on="1"/>
        <pt x="33" y="-123" on="1"/>
        <pt x="33" y="749" on="1"/>
      </contour>
    </TTGlyph>
    <TTGlyph name="bracketleft.cap" xMin="33" yMin="-101" xMax="322" yMax="771">
      <contour>
        <pt x="322" y="771" on="1"/>
        <pt x="322" y="590" on="1"/>
        <pt x="258" y="590" on="1"/>
        <pt x="258" y="80" on="1"/>
        <pt x="322" y="80" on="1"/>
        <pt x="322" y="-101" on="1"/>
        <pt x="33" y="-101" on="1"/>
        <pt x="33" y="771" on="1"/>
      </contour>
    </TTGlyph>
    <TTGlyph name="bracketright" xMin="17" yMin="-123" xMax="306" yMax="749">
      <contour>
        <pt x="17" y="568" on="1"/>
        <pt x="17" y="749" on="1"/>
        <pt x="306" y="749" on="1"/>
        <pt x="306" y="-123" on="1"/>
        <pt x="17" y="-123" on="1"/>
        <pt x="17" y="58" on="1"/>
        <pt x="81" y="58" on="1"/>
        <pt x="81" y="568" on="1"/>
      </contour>
    </TTGlyph>
    <TTGlyph name="bracketright.cap" xMin="17" yMin="-101" xMax="306" yMax="771">
      <contour>
        <pt x="17" y="590" on="1"/>
        <pt x="17" y="771" on="1"/>
        <pt x="306" y="771" on="1"/>
        <pt x="306" y="-101" on="1"/>
        <pt x="17" y="-101" on="1"/>
        <pt x="17" y="80" on="1"/>
        <pt x="81" y="80" on="1"/>
        <pt x="81" y="590" on="1"/>
      </contour>
    </TTGlyph>
    <TTGlyph name="breve" xMin="44" yMin="548" xMax="364" yMax="718">
      <contour>
        <pt x="364" y="548" on="0"/>
        <pt x="44" y="548" on="0"/>
        <pt x="44" y="708" on="1"/>
        <pt x="160" y="718" on="1"/>
        <pt x="165" y="673" on="0"/>
        <pt x="243" y="673" on="0"/>
        <pt x="248" y="718" on="1"/>
        <pt x="364" y="708" on="1"/>
      </contour>
    </TTGlyph>
    <TTGlyph name="breve.cap" xMin="44" yMin="712" xMax="364" yMax="872">
      <contour>
        <pt x="290" y="712" on="0"/>
        <pt x="118" y="712" on="0"/>
        <pt x="44" y="797" on="0"/>
        <pt x="44" y="862" on="1"/>
        <pt x="160" y="872" on="1"/>
        <pt x="165" y="827" on="0"/>
        <pt x="243" y="827" on="0"/>
        <pt x="248" y="872" on="1"/>
        <pt x="364" y="862" on="1"/>
        <pt x="364" y="797" on="0"/>
      </contour>
    </TTGlyph>
    <TTGlyph name="brokenbar" xMin="33" yMin="-220" xMax="251" yMax="703">
      <contour>
        <pt x="33" y="703" on="1"/>
        <pt x="251" y="703" on="1"/>
        <pt x="251" y="308" on="1"/>
        <pt x="33" y="308" on="1"/>
      </contour>
      <contour>
        <pt x="33" y="170" on="1"/>
        <pt x="251" y="170" on="1"/>
        <pt x="251" y="-220" on="1"/>
        <pt x="33" y="-220" on="1"/>
      </contour>
    </TTGlyph>
    <TTGlyph name="bullet" xMin="51" yMin="140" xMax="326" yMax="410">
      <contour>
        <pt x="51" y="140" on="1"/>
        <pt x="51" y="410" on="1"/>
        <pt x="326" y="410" on="1"/>
        <pt x="326" y="140" on="1"/>
      </contour>
    </TTGlyph>
    <TTGlyph name="c" xMin="16" yMin="-13" xMax="449" yMax="518">
      <contour>
        <pt x="266" y="518" on="1"/>
        <pt x="335" y="518" on="0"/>
        <pt x="419" y="498" on="1"/>
        <pt x="447" y="492" on="1"/>
        <pt x="440" y="315" on="1"/>
        <pt x="337" y="323" on="0"/>
        <pt x="267" y="323" on="0"/>
        <pt x="242" y="292" on="0"/>
        <pt x="242" y="213" on="0"/>
        <pt x="267" y="183" on="0"/>
        <pt x="299" y="183" on="1"/>
        <pt x="442" y="190" on="1"/>
        <pt x="449" y="15" on="1"/>
        <pt x="353" y="-13" on="0"/>
        <pt x="266" y="-13" on="1"/>
        <pt x="122" y="-13" on="0"/>
        <pt x="16" y="106" on="0"/>
        <pt x="16" y="403" on="0"/>
        <pt x="130" y="518" on="0"/>
      </contour>
    </TTGlyph>
    <TTGlyph name="cacute" xMin="16" yMin="-13" xMax="449" yMax="723">
      <contour>
        <pt x="266" y="518" on="1"/>
        <pt x="335" y="518" on="0"/>
        <pt x="419" y="498" on="1"/>
        <pt x="447" y="492" on="1"/>
        <pt x="440" y="315" on="1"/>
        <pt x="337" y="323" on="0"/>
        <pt x="267" y="323" on="0"/>
        <pt x="242" y="292" on="0"/>
        <pt x="242" y="213" on="0"/>
        <pt x="267" y="183" on="0"/>
        <pt x="299" y="183" on="1"/>
        <pt x="442" y="190" on="1"/>
        <pt x="449" y="15" on="1"/>
        <pt x="353" y="-13" on="0"/>
        <pt x="266" y="-13" on="1"/>
        <pt x="122" y="-13" on="0"/>
        <pt x="16" y="106" on="0"/>
        <pt x="16" y="403" on="0"/>
        <pt x="130" y="518" on="0"/>
      </contour>
      <contour>
        <pt x="161" y="723" on="1"/>
        <pt x="398" y="723" on="1"/>
        <pt x="289" y="557" on="1"/>
        <pt x="118" y="557" on="1"/>
      </contour>
    </TTGlyph>
    <TTGlyph name="caron" xMin="235" yMin="557" xMax="586" yMax="723">
      <contour>
        <pt x="326" y="557" on="1"/>
        <pt x="235" y="723" on="1"/>
        <pt x="397" y="723" on="1"/>
        <pt x="411" y="651" on="1"/>
        <pt x="424" y="723" on="1"/>
        <pt x="586" y="723" on="1"/>
        <pt x="484" y="557" on="1"/>
      </contour>
    </TTGlyph>
    <TTGlyph name="caron.cap" xMin="228" yMin="712" xMax="593" yMax="848">
      <contour>
        <pt x="329" y="712" on="1"/>
        <pt x="228" y="848" on="1"/>
        <pt x="397" y="848" on="1"/>
        <pt x="411" y="786" on="1"/>
        <pt x="424" y="848" on="1"/>
        <pt x="593" y="848" on="1"/>
        <pt x="481" y="712" on="1"/>
      </contour>
    </TTGlyph>
    <TTGlyph name="ccaron" xMin="16" yMin="-13" xMax="449" yMax="723">
      <contour>
        <pt x="266" y="518" on="1"/>
        <pt x="335" y="518" on="0"/>
        <pt x="419" y="498" on="1"/>
        <pt x="447" y="492" on="1"/>
        <pt x="440" y="315" on="1"/>
        <pt x="337" y="323" on="0"/>
        <pt x="267" y="323" on="0"/>
        <pt x="242" y="292" on="0"/>
        <pt x="242" y="213" on="0"/>
        <pt x="267" y="183" on="0"/>
        <pt x="299" y="183" on="1"/>
        <pt x="442" y="190" on="1"/>
        <pt x="449" y="15" on="1"/>
        <pt x="353" y="-13" on="0"/>
        <pt x="266" y="-13" on="1"/>
        <pt x="122" y="-13" on="0"/>
        <pt x="16" y="106" on="0"/>
        <pt x="16" y="403" on="0"/>
        <pt x="130" y="518" on="0"/>
      </contour>
      <contour>
        <pt x="148" y="557" on="1"/>
        <pt x="57" y="723" on="1"/>
        <pt x="219" y="723" on="1"/>
        <pt x="233" y="651" on="1"/>
        <pt x="246" y="723" on="1"/>
        <pt x="408" y="723" on="1"/>
        <pt x="306" y="557" on="1"/>
      </contour>
    </TTGlyph>
    <TTGlyph name="ccedilla" xMin="17" yMin="-231" xMax="450" yMax="518">
      <contour>
        <pt x="360" y="-34" on="0"/>
        <pt x="419" y="-69" on="0"/>
        <pt x="419" y="-179" on="0"/>
        <pt x="356" y="-231" on="0"/>
        <pt x="292" y="-231" on="1"/>
        <pt x="227" y="-231" on="0"/>
        <pt x="182" y="-223" on="1"/>
        <pt x="165" y="-220" on="1"/>
        <pt x="169" y="-142" on="1"/>
        <pt x="200" y="-143" on="0"/>
        <pt x="217" y="-143" on="1"/>
        <pt x="255" y="-143" on="0"/>
        <pt x="255" y="-121" on="1"/>
        <pt x="255" y="-109" on="0"/>
        <pt x="239" y="-101" on="0"/>
        <pt x="217" y="-101" on="1"/>
        <pt x="208" y="-101" on="1"/>
        <pt x="208" y="-10" on="1"/>
        <pt x="100" y="1" on="0"/>
        <pt x="17" y="122" on="0"/>
        <pt x="17" y="403" on="0"/>
        <pt x="131" y="518" on="0"/>
        <pt x="267" y="518" on="1"/>
        <pt x="336" y="518" on="0"/>
        <pt x="420" y="498" on="1"/>
        <pt x="448" y="492" on="1"/>
        <pt x="441" y="315" on="1"/>
        <pt x="338" y="323" on="0"/>
        <pt x="268" y="323" on="0"/>
        <pt x="243" y="292" on="0"/>
        <pt x="243" y="213" on="0"/>
        <pt x="268" y="183" on="0"/>
        <pt x="300" y="183" on="1"/>
        <pt x="443" y="190" on="1"/>
        <pt x="450" y="15" on="1"/>
        <pt x="364" y="-10" on="0"/>
        <pt x="281" y="-13" on="1"/>
        <pt x="281" y="-33" on="1"/>
      </contour>
    </TTGlyph>
    <TTGlyph name="ccircumflex" xMin="16" yMin="-13" xMax="449" yMax="723">
      <contour>
        <pt x="266" y="518" on="1"/>
        <pt x="335" y="518" on="0"/>
        <pt x="419" y="498" on="1"/>
        <pt x="447" y="492" on="1"/>
        <pt x="440" y="315" on="1"/>
        <pt x="337" y="323" on="0"/>
        <pt x="267" y="323" on="0"/>
        <pt x="242" y="292" on="0"/>
        <pt x="242" y="213" on="0"/>
        <pt x="267" y="183" on="0"/>
        <pt x="299" y="183" on="1"/>
        <pt x="442" y="190" on="1"/>
        <pt x="449" y="15" on="1"/>
        <pt x="353" y="-13" on="0"/>
        <pt x="266" y="-13" on="1"/>
        <pt x="122" y="-13" on="0"/>
        <pt x="16" y="106" on="0"/>
        <pt x="16" y="403" on="0"/>
        <pt x="130" y="518" on="0"/>
      </contour>
      <contour>
        <pt x="57" y="557" on="1"/>
        <pt x="148" y="723" on="1"/>
        <pt x="306" y="723" on="1"/>
        <pt x="408" y="557" on="1"/>
        <pt x="246" y="557" on="1"/>
        <pt x="231" y="629" on="1"/>
        <pt x="219" y="557" on="1"/>
      </contour>
    </TTGlyph>
    <TTGlyph name="cdotaccent" xMin="16" yMin="-13" xMax="449" yMax="716">
      <contour>
        <pt x="266" y="518" on="1"/>
        <pt x="335" y="518" on="0"/>
        <pt x="419" y="498" on="1"/>
        <pt x="447" y="492" on="1"/>
        <pt x="440" y="315" on="1"/>
        <pt x="337" y="323" on="0"/>
        <pt x="267" y="323" on="0"/>
        <pt x="242" y="292" on="0"/>
        <pt x="242" y="213" on="0"/>
        <pt x="267" y="183" on="0"/>
        <pt x="299" y="183" on="1"/>
        <pt x="442" y="190" on="1"/>
        <pt x="449" y="15" on="1"/>
        <pt x="353" y="-13" on="0"/>
        <pt x="266" y="-13" on="1"/>
        <pt x="122" y="-13" on="0"/>
        <pt x="16" y="106" on="0"/>
        <pt x="16" y="403" on="0"/>
        <pt x="130" y="518" on="0"/>
      </contour>
      <contour>
        <pt x="149" y="563" on="1"/>
        <pt x="149" y="716" on="1"/>
        <pt x="335" y="716" on="1"/>
        <pt x="335" y="563" on="1"/>
      </contour>
    </TTGlyph>
    <TTGlyph name="cedilla" xMin="360" yMin="-231" xMax="614" yMax="11">
      <contour>
        <pt x="555" y="-34" on="0"/>
        <pt x="614" y="-69" on="0"/>
        <pt x="614" y="-179" on="0"/>
        <pt x="551" y="-231" on="0"/>
        <pt x="487" y="-231" on="1"/>
        <pt x="422" y="-231" on="0"/>
        <pt x="377" y="-223" on="1"/>
        <pt x="360" y="-220" on="1"/>
        <pt x="364" y="-142" on="1"/>
        <pt x="395" y="-143" on="0"/>
        <pt x="412" y="-143" on="1"/>
        <pt x="450" y="-143" on="0"/>
        <pt x="450" y="-121" on="1"/>
        <pt x="450" y="-109" on="0"/>
        <pt x="434" y="-101" on="0"/>
        <pt x="412" y="-101" on="1"/>
        <pt x="403" y="-101" on="1"/>
        <pt x="403" y="11" on="1"/>
        <pt x="476" y="11" on="1"/>
        <pt x="476" y="-33" on="1"/>
      </contour>
    </TTGlyph>
    <TTGlyph name="cent" xMin="41" yMin="-86" xMax="502" yMax="591">
      <contour>
        <pt x="248" y="-86" on="1"/>
        <pt x="248" y="42" on="1"/>
        <pt x="133" y="45" on="0"/>
        <pt x="41" y="142" on="0"/>
        <pt x="41" y="369" on="0"/>
        <pt x="139" y="463" on="0"/>
        <pt x="248" y="466" on="1"/>
        <pt x="248" y="591" on="1"/>
        <pt x="308" y="591" on="1"/>
        <pt x="308" y="465" on="1"/>
        <pt x="395" y="463" on="0"/>
        <pt x="476" y="450" on="1"/>
        <pt x="500" y="446" on="1"/>
        <pt x="494" y="296" on="1"/>
        <pt x="392" y="300" on="0"/>
        <pt x="311" y="300" on="1"/>
        <pt x="284" y="300" on="0"/>
        <pt x="263" y="278" on="0"/>
        <pt x="263" y="229" on="0"/>
        <pt x="284" y="208" on="0"/>
        <pt x="311" y="208" on="1"/>
        <pt x="496" y="212" on="1"/>
        <pt x="502" y="64" on="1"/>
        <pt x="419" y="47" on="0"/>
        <pt x="308" y="43" on="1"/>
        <pt x="308" y="-86" on="1"/>
      </contour>
    </TTGlyph>
    <TTGlyph name="circumflex" xMin="239" yMin="557" xMax="590" yMax="723">
      <contour>
        <pt x="239" y="557" on="1"/>
        <pt x="330" y="723" on="1"/>
        <pt x="488" y="723" on="1"/>
        <pt x="590" y="557" on="1"/>
        <pt x="428" y="557" on="1"/>
        <pt x="413" y="629" on="1"/>
        <pt x="401" y="557" on="1"/>
      </contour>
    </TTGlyph>
    <TTGlyph name="circumflex.cap" xMin="232" yMin="713" xMax="597" yMax="849">
      <contour>
        <pt x="232" y="713" on="1"/>
        <pt x="333" y="849" on="1"/>
        <pt x="485" y="849" on="1"/>
        <pt x="597" y="713" on="1"/>
        <pt x="428" y="713" on="1"/>
        <pt x="413" y="775" on="1"/>
        <pt x="401" y="713" on="1"/>
      </contour>
    </TTGlyph>
    <TTGlyph name="colon" xMin="30" yMin="0" xMax="258" yMax="464">
      <contour>
        <pt x="30" y="0" on="1"/>
        <pt x="30" y="199" on="1"/>
        <pt x="258" y="199" on="1"/>
        <pt x="258" y="0" on="1"/>
      </contour>
      <contour>
        <pt x="30" y="265" on="1"/>
        <pt x="30" y="464" on="1"/>
        <pt x="258" y="464" on="1"/>
        <pt x="258" y="265" on="1"/>
      </contour>
    </TTGlyph>
    <TTGlyph name="comma" xMin="13" yMin="-103" xMax="277" yMax="193">
      <contour>
        <pt x="13" y="-103" on="1"/>
        <pt x="35" y="193" on="1"/>
        <pt x="277" y="193" on="1"/>
        <pt x="198" y="-103" on="1"/>
      </contour>
    </TTGlyph>
    <TTGlyph name="commaaccent" xMin="-24" yMin="-388" xMax="240" yMax="-92">
      <contour>
        <pt x="-24" y="-388" on="1"/>
        <pt x="-2" y="-92" on="1"/>
        <pt x="240" y="-92" on="1"/>
        <pt x="161" y="-388" on="1"/>
      </contour>
    </TTGlyph>
    <TTGlyph name="copyright" xMin="23" yMin="150" xMax="574" yMax="718">
      <contour>
        <pt x="180" y="150" on="0"/>
        <pt x="23" y="314" on="0"/>
        <pt x="23" y="557" on="0"/>
        <pt x="179" y="718" on="0"/>
        <pt x="422" y="718" on="0"/>
        <pt x="574" y="554" on="0"/>
        <pt x="574" y="311" on="0"/>
        <pt x="422" y="150" on="0"/>
      </contour>
      <contour>
        <pt x="85" y="527" on="0"/>
        <pt x="85" y="341" on="0"/>
        <pt x="207" y="210" on="0"/>
        <pt x="390" y="210" on="0"/>
        <pt x="512" y="340" on="0"/>
        <pt x="512" y="526" on="0"/>
        <pt x="389" y="658" on="0"/>
        <pt x="207" y="658" on="0"/>
      </contour>
      <contour>
        <pt x="238" y="269" on="0"/>
        <pt x="179" y="341" on="0"/>
        <pt x="179" y="529" on="0"/>
        <pt x="240" y="598" on="0"/>
        <pt x="311" y="598" on="1"/>
        <pt x="339" y="598" on="0"/>
        <pt x="369" y="590" on="1"/>
        <pt x="391" y="583" on="1"/>
        <pt x="384" y="497" on="1"/>
        <pt x="362" y="500" on="1"/>
        <pt x="323" y="503" on="0"/>
        <pt x="317" y="503" on="1"/>
        <pt x="297" y="503" on="0"/>
        <pt x="282" y="476" on="0"/>
        <pt x="282" y="439" on="1"/>
        <pt x="282" y="364" on="0"/>
        <pt x="317" y="364" on="1"/>
        <pt x="336" y="364" on="0"/>
        <pt x="362" y="366" on="1"/>
        <pt x="384" y="369" on="1"/>
        <pt x="391" y="287" on="1"/>
        <pt x="370" y="278" on="1"/>
        <pt x="343" y="269" on="0"/>
        <pt x="307" y="269" on="1"/>
      </contour>
    </TTGlyph>
    <TTGlyph name="currency" xMin="39" yMin="23" xMax="511" yMax="495">
      <contour>
        <pt x="138" y="438" on="1"/>
        <pt x="196" y="483" on="0"/>
        <pt x="349" y="483" on="0"/>
        <pt x="409" y="435" on="1"/>
        <pt x="468" y="495" on="1"/>
        <pt x="511" y="452" on="1"/>
        <pt x="451" y="393" on="1"/>
        <pt x="496" y="334" on="0"/>
        <pt x="496" y="184" on="0"/>
        <pt x="451" y="125" on="1"/>
        <pt x="511" y="66" on="1"/>
        <pt x="468" y="23" on="1"/>
        <pt x="409" y="82" on="1"/>
        <pt x="349" y="35" on="0"/>
        <pt x="196" y="35" on="0"/>
        <pt x="138" y="79" on="1"/>
        <pt x="82" y="23" on="1"/>
        <pt x="39" y="66" on="1"/>
        <pt x="95" y="121" on="1"/>
        <pt x="48" y="181" on="0"/>
        <pt x="48" y="336" on="0"/>
        <pt x="95" y="396" on="1"/>
        <pt x="39" y="452" on="1"/>
        <pt x="82" y="495" on="1"/>
      </contour>
      <contour>
        <pt x="232" y="168" on="0"/>
        <pt x="310" y="168" on="0"/>
        <pt x="363" y="220" on="0"/>
        <pt x="363" y="298" on="0"/>
        <pt x="336" y="323" on="1"/>
        <pt x="310" y="350" on="0"/>
        <pt x="232" y="350" on="0"/>
        <pt x="207" y="323" on="1"/>
        <pt x="181" y="298" on="0"/>
        <pt x="181" y="220" on="0"/>
      </contour>
    </TTGlyph>
    <TTGlyph name="d" xMin="16" yMin="-13" xMax="542" yMax="690">
      <contour>
        <pt x="542" y="690" on="1"/>
        <pt x="542" y="0" on="1"/>
        <pt x="321" y="0" on="1"/>
        <pt x="319" y="22" on="1"/>
        <pt x="264" y="-13" on="0"/>
        <pt x="214" y="-13" on="1"/>
        <pt x="104" y="-13" on="0"/>
        <pt x="16" y="122" on="0"/>
        <pt x="16" y="252" on="1"/>
        <pt x="16" y="518" on="0"/>
        <pt x="237" y="518" on="1"/>
        <pt x="318" y="512" on="1"/>
        <pt x="318" y="690" on="1"/>
      </contour>
      <contour>
        <pt x="286" y="337" on="1"/>
        <pt x="259" y="337" on="0"/>
        <pt x="242" y="293" on="0"/>
        <pt x="242" y="212" on="0"/>
        <pt x="260" y="168" on="0"/>
        <pt x="287" y="168" on="1"/>
        <pt x="318" y="171" on="1"/>
        <pt x="318" y="334" on="1"/>
        <pt x="296" y="337" on="0"/>
      </contour>
    </TTGlyph>
    <TTGlyph name="dagger" xMin="17" yMin="-195" xMax="517" yMax="670">
      <contour>
        <pt x="17" y="294" on="1"/>
        <pt x="17" y="492" on="1"/>
        <pt x="154" y="492" on="1"/>
        <pt x="154" y="670" on="1"/>
        <pt x="380" y="670" on="1"/>
        <pt x="380" y="492" on="1"/>
        <pt x="517" y="492" on="1"/>
        <pt x="517" y="294" on="1"/>
        <pt x="380" y="294" on="1"/>
        <pt x="380" y="-195" on="1"/>
        <pt x="154" y="-195" on="1"/>
        <pt x="154" y="294" on="1"/>
      </contour>
    </TTGlyph>
    <TTGlyph name="daggerdbl" xMin="24" yMin="-194" xMax="524" yMax="670">
      <contour>
        <pt x="161" y="-194" on="1"/>
        <pt x="161" y="-17" on="1"/>
        <pt x="24" y="-17" on="1"/>
        <pt x="24" y="181" on="1"/>
        <pt x="161" y="181" on="1"/>
        <pt x="161" y="294" on="1"/>
        <pt x="24" y="294" on="1"/>
        <pt x="24" y="492" on="1"/>
        <pt x="161" y="492" on="1"/>
        <pt x="161" y="670" on="1"/>
        <pt x="387" y="670" on="1"/>
        <pt x="387" y="492" on="1"/>
        <pt x="524" y="492" on="1"/>
        <pt x="524" y="294" on="1"/>
        <pt x="387" y="294" on="1"/>
        <pt x="387" y="181" on="1"/>
        <pt x="524" y="181" on="1"/>
        <pt x="524" y="-17" on="1"/>
        <pt x="387" y="-17" on="1"/>
        <pt x="387" y="-194" on="1"/>
      </contour>
    </TTGlyph>
    <TTGlyph name="dcaron" xMin="16" yMin="-13" xMax="805" yMax="690">
      <contour>
        <pt x="581" y="454" on="1"/>
        <pt x="601" y="669" on="1"/>
        <pt x="805" y="669" on="1"/>
        <pt x="743" y="454" on="1"/>
      </contour>
      <contour>
        <pt x="542" y="690" on="1"/>
        <pt x="542" y="0" on="1"/>
        <pt x="321" y="0" on="1"/>
        <pt x="319" y="22" on="1"/>
        <pt x="264" y="-13" on="0"/>
        <pt x="214" y="-13" on="1"/>
        <pt x="104" y="-13" on="0"/>
        <pt x="16" y="122" on="0"/>
        <pt x="16" y="252" on="1"/>
        <pt x="16" y="518" on="0"/>
        <pt x="237" y="518" on="1"/>
        <pt x="318" y="512" on="1"/>
        <pt x="318" y="690" on="1"/>
      </contour>
      <contour>
        <pt x="286" y="337" on="1"/>
        <pt x="259" y="337" on="0"/>
        <pt x="242" y="293" on="0"/>
        <pt x="242" y="212" on="0"/>
        <pt x="260" y="168" on="0"/>
        <pt x="287" y="168" on="1"/>
        <pt x="318" y="171" on="1"/>
        <pt x="318" y="334" on="1"/>
        <pt x="296" y="337" on="0"/>
      </contour>
    </TTGlyph>
    <TTGlyph name="dcroat" xMin="16" yMin="-13" xMax="582" yMax="690">
      <contour>
        <pt x="542" y="690" on="1"/>
        <pt x="542" y="652" on="1"/>
        <pt x="582" y="652" on="1"/>
        <pt x="582" y="545" on="1"/>
        <pt x="542" y="545" on="1"/>
        <pt x="542" y="0" on="1"/>
        <pt x="321" y="0" on="1"/>
        <pt x="319" y="22" on="1"/>
        <pt x="264" y="-13" on="0"/>
        <pt x="214" y="-13" on="1"/>
        <pt x="104" y="-13" on="0"/>
        <pt x="16" y="122" on="0"/>
        <pt x="16" y="252" on="1"/>
        <pt x="16" y="518" on="0"/>
        <pt x="237" y="518" on="1"/>
        <pt x="318" y="512" on="1"/>
        <pt x="318" y="545" on="1"/>
        <pt x="257" y="545" on="1"/>
        <pt x="257" y="652" on="1"/>
        <pt x="318" y="652" on="1"/>
        <pt x="318" y="690" on="1"/>
      </contour>
      <contour>
        <pt x="286" y="337" on="1"/>
        <pt x="259" y="337" on="0"/>
        <pt x="242" y="293" on="0"/>
        <pt x="242" y="212" on="0"/>
        <pt x="260" y="168" on="0"/>
        <pt x="287" y="168" on="1"/>
        <pt x="318" y="171" on="1"/>
        <pt x="318" y="334" on="1"/>
        <pt x="296" y="337" on="0"/>
      </contour>
    </TTGlyph>
    <TTGlyph name="degree" xMin="125" yMin="391" xMax="425" yMax="690">
      <contour>
        <pt x="125" y="473" on="0"/>
        <pt x="125" y="607" on="0"/>
        <pt x="208" y="690" on="0"/>
        <pt x="342" y="690" on="0"/>
        <pt x="425" y="607" on="0"/>
        <pt x="425" y="473" on="0"/>
        <pt x="342" y="391" on="0"/>
        <pt x="208" y="391" on="0"/>
      </contour>
      <contour>
        <pt x="259" y="577" on="0"/>
        <pt x="240" y="557" on="0"/>
        <pt x="240" y="524" on="0"/>
        <pt x="259" y="504" on="0"/>
        <pt x="291" y="504" on="0"/>
        <pt x="312" y="524" on="0"/>
        <pt x="312" y="556" on="0"/>
        <pt x="292" y="577" on="0"/>
      </contour>
    </TTGlyph>
    <TTGlyph name="dieresis" xMin="24" yMin="559" xMax="398" yMax="713">
      <contour>
        <pt x="234" y="559" on="1"/>
        <pt x="234" y="713" on="1"/>
        <pt x="398" y="713" on="1"/>
        <pt x="398" y="559" on="1"/>
      </contour>
      <contour>
        <pt x="24" y="559" on="1"/>
        <pt x="24" y="713" on="1"/>
        <pt x="188" y="713" on="1"/>
        <pt x="188" y="559" on="1"/>
      </contour>
    </TTGlyph>
    <TTGlyph name="dieresis.cap" xMin="27" yMin="713" xMax="395" yMax="857">
      <contour>
        <pt x="234" y="713" on="1"/>
        <pt x="234" y="857" on="1"/>
        <pt x="395" y="857" on="1"/>
        <pt x="395" y="713" on="1"/>
      </contour>
      <contour>
        <pt x="27" y="713" on="1"/>
        <pt x="27" y="857" on="1"/>
        <pt x="188" y="857" on="1"/>
        <pt x="188" y="713" on="1"/>
      </contour>
    </TTGlyph>
    <TTGlyph name="divide" xMin="43" yMin="10" xMax="507" yMax="500">
      <contour>
        <pt x="43" y="340" on="1"/>
        <pt x="507" y="340" on="1"/>
        <pt x="507" y="170" on="1"/>
        <pt x="43" y="170" on="1"/>
      </contour>
      <contour>
        <pt x="175" y="360" on="1"/>
        <pt x="175" y="500" on="1"/>
        <pt x="375" y="500" on="1"/>
        <pt x="375" y="360" on="1"/>
      </contour>
      <contour>
        <pt x="175" y="10" on="1"/>
        <pt x="175" y="150" on="1"/>
        <pt x="375" y="150" on="1"/>
        <pt x="375" y="10" on="1"/>
      </contour>
    </TTGlyph>
    <TTGlyph name="dollar" xMin="7" yMin="-85" xMax="548" yMax="751">
      <contour>
        <pt x="520" y="468" on="1"/>
        <pt x="382" y="483" on="0"/>
        <pt x="256" y="483" on="0"/>
        <pt x="236" y="476" on="0"/>
        <pt x="236" y="455" on="0"/>
        <pt x="260" y="443" on="0"/>
        <pt x="369" y="419" on="0"/>
        <pt x="439" y="398" on="0"/>
        <pt x="503" y="366" on="0"/>
        <pt x="518" y="344" on="1"/>
        <pt x="548" y="299" on="0"/>
        <pt x="548" y="213" on="1"/>
        <pt x="548" y="96" on="0"/>
        <pt x="429" y="-8" on="0"/>
        <pt x="309" y="-12" on="1"/>
        <pt x="309" y="-85" on="1"/>
        <pt x="247" y="-85" on="1"/>
        <pt x="247" y="-12" on="1"/>
        <pt x="131" y="-6" on="0"/>
        <pt x="43" y="16" on="1"/>
        <pt x="12" y="23" on="1"/>
        <pt x="21" y="196" on="1"/>
        <pt x="171" y="174" on="0"/>
        <pt x="267" y="174" on="1"/>
        <pt x="296" y="174" on="0"/>
        <pt x="318" y="185" on="0"/>
        <pt x="318" y="207" on="0"/>
        <pt x="295" y="215" on="0"/>
        <pt x="243" y="223" on="1"/>
        <pt x="106" y="245" on="0"/>
        <pt x="7" y="337" on="0"/>
        <pt x="7" y="440" on="1"/>
        <pt x="7" y="567" on="0"/>
        <pt x="125" y="667" on="0"/>
        <pt x="247" y="669" on="1"/>
        <pt x="247" y="751" on="1"/>
        <pt x="309" y="751" on="1"/>
        <pt x="309" y="669" on="1"/>
        <pt x="398" y="665" on="0"/>
        <pt x="494" y="650" on="1"/>
        <pt x="526" y="645" on="1"/>
      </contour>
    </TTGlyph>
    <TTGlyph name="dotaccent" xMin="80" yMin="563" xMax="266" yMax="716">
      <contour>
        <pt x="80" y="563" on="1"/>
        <pt x="80" y="716" on="1"/>
        <pt x="266" y="716" on="1"/>
        <pt x="266" y="563" on="1"/>
      </contour>
    </TTGlyph>
    <TTGlyph name="dotaccent.cap" xMin="83" yMin="713" xMax="263" yMax="856">
      <contour>
        <pt x="83" y="713" on="1"/>
        <pt x="83" y="856" on="1"/>
        <pt x="263" y="856" on="1"/>
        <pt x="263" y="713" on="1"/>
      </contour>
    </TTGlyph>
    <TTGlyph name="dotlessi" xMin="28" yMin="0" xMax="252" yMax="505">
      <contour>
        <pt x="28" y="0" on="1"/>
        <pt x="28" y="505" on="1"/>
        <pt x="252" y="505" on="1"/>
        <pt x="252" y="0" on="1"/>
      </contour>
    </TTGlyph>
    <TTGlyph name="dotlessj" xMin="-61" yMin="-220" xMax="252" yMax="505">
      <contour>
        <pt x="28" y="66" on="1"/>
        <pt x="28" y="505" on="1"/>
        <pt x="252" y="505" on="1"/>
        <pt x="252" y="73" on="1"/>
        <pt x="252" y="-32" on="0"/>
        <pt x="221" y="-108" on="0"/>
        <pt x="192" y="-144" on="0"/>
        <pt x="161" y="-162" on="1"/>
        <pt x="113" y="-188" on="0"/>
        <pt x="11" y="-220" on="1"/>
        <pt x="-61" y="-50" on="1"/>
        <pt x="1" y="-21" on="0"/>
        <pt x="28" y="13" on="0"/>
      </contour>
    </TTGlyph>
    <TTGlyph name="e" xMin="15" yMin="-13" xMax="538" yMax="518">
      <contour>
        <pt x="239" y="187" on="1"/>
        <pt x="240" y="152" on="0"/>
        <pt x="284" y="152" on="1"/>
        <pt x="384" y="152" on="0"/>
        <pt x="484" y="158" on="1"/>
        <pt x="523" y="161" on="1"/>
        <pt x="528" y="16" on="1"/>
        <pt x="395" y="-13" on="0"/>
        <pt x="132" y="-13" on="0"/>
        <pt x="15" y="108" on="0"/>
        <pt x="15" y="379" on="0"/>
        <pt x="141" y="518" on="0"/>
        <pt x="408" y="518" on="0"/>
        <pt x="538" y="404" on="0"/>
        <pt x="538" y="286" on="1"/>
        <pt x="528" y="187" on="1"/>
      </contour>
      <contour>
        <pt x="314" y="309" on="1"/>
        <pt x="314" y="338" on="0"/>
        <pt x="297" y="362" on="0"/>
        <pt x="255" y="362" on="0"/>
        <pt x="239" y="338" on="0"/>
        <pt x="238" y="309" on="1"/>
      </contour>
    </TTGlyph>
    <TTGlyph name="eacute" xMin="15" yMin="-13" xMax="538" yMax="723">
      <contour>
        <pt x="239" y="187" on="1"/>
        <pt x="240" y="152" on="0"/>
        <pt x="284" y="152" on="1"/>
        <pt x="384" y="152" on="0"/>
        <pt x="484" y="158" on="1"/>
        <pt x="523" y="161" on="1"/>
        <pt x="528" y="16" on="1"/>
        <pt x="395" y="-13" on="0"/>
        <pt x="132" y="-13" on="0"/>
        <pt x="15" y="108" on="0"/>
        <pt x="15" y="379" on="0"/>
        <pt x="141" y="518" on="0"/>
        <pt x="408" y="518" on="0"/>
        <pt x="538" y="404" on="0"/>
        <pt x="538" y="286" on="1"/>
        <pt x="528" y="187" on="1"/>
      </contour>
      <contour>
        <pt x="314" y="309" on="1"/>
        <pt x="314" y="338" on="0"/>
        <pt x="297" y="362" on="0"/>
        <pt x="255" y="362" on="0"/>
        <pt x="239" y="338" on="0"/>
        <pt x="238" y="309" on="1"/>
      </contour>
      <contour>
        <pt x="210" y="723" on="1"/>
        <pt x="447" y="723" on="1"/>
        <pt x="338" y="557" on="1"/>
        <pt x="167" y="557" on="1"/>
      </contour>
    </TTGlyph>
    <TTGlyph name="ebreve" xMin="15" yMin="-13" xMax="538" yMax="718">
      <contour>
        <pt x="239" y="187" on="1"/>
        <pt x="240" y="152" on="0"/>
        <pt x="284" y="152" on="1"/>
        <pt x="384" y="152" on="0"/>
        <pt x="484" y="158" on="1"/>
        <pt x="523" y="161" on="1"/>
        <pt x="528" y="16" on="1"/>
        <pt x="395" y="-13" on="0"/>
        <pt x="132" y="-13" on="0"/>
        <pt x="15" y="108" on="0"/>
        <pt x="15" y="379" on="0"/>
        <pt x="141" y="518" on="0"/>
        <pt x="408" y="518" on="0"/>
        <pt x="538" y="404" on="0"/>
        <pt x="538" y="286" on="1"/>
        <pt x="528" y="187" on="1"/>
      </contour>
      <contour>
        <pt x="314" y="309" on="1"/>
        <pt x="314" y="338" on="0"/>
        <pt x="297" y="362" on="0"/>
        <pt x="255" y="362" on="0"/>
        <pt x="239" y="338" on="0"/>
        <pt x="238" y="309" on="1"/>
      </contour>
      <contour>
        <pt x="437" y="548" on="0"/>
        <pt x="117" y="548" on="0"/>
        <pt x="117" y="708" on="1"/>
        <pt x="233" y="718" on="1"/>
        <pt x="238" y="673" on="0"/>
        <pt x="316" y="673" on="0"/>
        <pt x="321" y="718" on="1"/>
        <pt x="437" y="708" on="1"/>
      </contour>
    </TTGlyph>
    <TTGlyph name="ecaron" xMin="15" yMin="-13" xMax="538" yMax="723">
      <contour>
        <pt x="239" y="187" on="1"/>
        <pt x="240" y="152" on="0"/>
        <pt x="284" y="152" on="1"/>
        <pt x="384" y="152" on="0"/>
        <pt x="484" y="158" on="1"/>
        <pt x="523" y="161" on="1"/>
        <pt x="528" y="16" on="1"/>
        <pt x="395" y="-13" on="0"/>
        <pt x="132" y="-13" on="0"/>
        <pt x="15" y="108" on="0"/>
        <pt x="15" y="379" on="0"/>
        <pt x="141" y="518" on="0"/>
        <pt x="408" y="518" on="0"/>
        <pt x="538" y="404" on="0"/>
        <pt x="538" y="286" on="1"/>
        <pt x="528" y="187" on="1"/>
      </contour>
      <contour>
        <pt x="314" y="309" on="1"/>
        <pt x="314" y="338" on="0"/>
        <pt x="297" y="362" on="0"/>
        <pt x="255" y="362" on="0"/>
        <pt x="239" y="338" on="0"/>
        <pt x="238" y="309" on="1"/>
      </contour>
      <contour>
        <pt x="192" y="557" on="1"/>
        <pt x="101" y="723" on="1"/>
        <pt x="263" y="723" on="1"/>
        <pt x="277" y="651" on="1"/>
        <pt x="290" y="723" on="1"/>
        <pt x="452" y="723" on="1"/>
        <pt x="350" y="557" on="1"/>
      </contour>
    </TTGlyph>
    <TTGlyph name="ecircumflex" xMin="15" yMin="-13" xMax="538" yMax="723">
      <contour>
        <pt x="239" y="187" on="1"/>
        <pt x="240" y="152" on="0"/>
        <pt x="284" y="152" on="1"/>
        <pt x="384" y="152" on="0"/>
        <pt x="484" y="158" on="1"/>
        <pt x="523" y="161" on="1"/>
        <pt x="528" y="16" on="1"/>
        <pt x="395" y="-13" on="0"/>
        <pt x="132" y="-13" on="0"/>
        <pt x="15" y="108" on="0"/>
        <pt x="15" y="379" on="0"/>
        <pt x="141" y="518" on="0"/>
        <pt x="408" y="518" on="0"/>
        <pt x="538" y="404" on="0"/>
        <pt x="538" y="286" on="1"/>
        <pt x="528" y="187" on="1"/>
      </contour>
      <contour>
        <pt x="314" y="309" on="1"/>
        <pt x="314" y="338" on="0"/>
        <pt x="297" y="362" on="0"/>
        <pt x="255" y="362" on="0"/>
        <pt x="239" y="338" on="0"/>
        <pt x="238" y="309" on="1"/>
      </contour>
      <contour>
        <pt x="101" y="557" on="1"/>
        <pt x="192" y="723" on="1"/>
        <pt x="350" y="723" on="1"/>
        <pt x="452" y="557" on="1"/>
        <pt x="290" y="557" on="1"/>
        <pt x="275" y="629" on="1"/>
        <pt x="263" y="557" on="1"/>
      </contour>
    </TTGlyph>
    <TTGlyph name="edieresis" xMin="15" yMin="-13" xMax="538" yMax="713">
      <contour>
        <pt x="239" y="187" on="1"/>
        <pt x="240" y="152" on="0"/>
        <pt x="284" y="152" on="1"/>
        <pt x="384" y="152" on="0"/>
        <pt x="484" y="158" on="1"/>
        <pt x="523" y="161" on="1"/>
        <pt x="528" y="16" on="1"/>
        <pt x="395" y="-13" on="0"/>
        <pt x="132" y="-13" on="0"/>
        <pt x="15" y="108" on="0"/>
        <pt x="15" y="379" on="0"/>
        <pt x="141" y="518" on="0"/>
        <pt x="408" y="518" on="0"/>
        <pt x="538" y="404" on="0"/>
        <pt x="538" y="286" on="1"/>
        <pt x="528" y="187" on="1"/>
      </contour>
      <contour>
        <pt x="314" y="309" on="1"/>
        <pt x="314" y="338" on="0"/>
        <pt x="297" y="362" on="0"/>
        <pt x="255" y="362" on="0"/>
        <pt x="239" y="338" on="0"/>
        <pt x="238" y="309" on="1"/>
      </contour>
      <contour>
        <pt x="299" y="559" on="1"/>
        <pt x="299" y="713" on="1"/>
        <pt x="463" y="713" on="1"/>
        <pt x="463" y="559" on="1"/>
      </contour>
      <contour>
        <pt x="89" y="559" on="1"/>
        <pt x="89" y="713" on="1"/>
        <pt x="253" y="713" on="1"/>
        <pt x="253" y="559" on="1"/>
      </contour>
    </TTGlyph>
    <TTGlyph name="edotaccent" xMin="15" yMin="-13" xMax="538" yMax="716">
      <contour>
        <pt x="239" y="187" on="1"/>
        <pt x="240" y="152" on="0"/>
        <pt x="284" y="152" on="1"/>
        <pt x="384" y="152" on="0"/>
        <pt x="484" y="158" on="1"/>
        <pt x="523" y="161" on="1"/>
        <pt x="528" y="16" on="1"/>
        <pt x="395" y="-13" on="0"/>
        <pt x="132" y="-13" on="0"/>
        <pt x="15" y="108" on="0"/>
        <pt x="15" y="379" on="0"/>
        <pt x="141" y="518" on="0"/>
        <pt x="408" y="518" on="0"/>
        <pt x="538" y="404" on="0"/>
        <pt x="538" y="286" on="1"/>
        <pt x="528" y="187" on="1"/>
      </contour>
      <contour>
        <pt x="314" y="309" on="1"/>
        <pt x="314" y="338" on="0"/>
        <pt x="297" y="362" on="0"/>
        <pt x="255" y="362" on="0"/>
        <pt x="239" y="338" on="0"/>
        <pt x="238" y="309" on="1"/>
      </contour>
      <contour>
        <pt x="188" y="563" on="1"/>
        <pt x="188" y="716" on="1"/>
        <pt x="374" y="716" on="1"/>
        <pt x="374" y="563" on="1"/>
      </contour>
    </TTGlyph>
    <TTGlyph name="egrave" xMin="15" yMin="-13" xMax="538" yMax="723">
      <contour>
        <pt x="239" y="187" on="1"/>
        <pt x="240" y="152" on="0"/>
        <pt x="284" y="152" on="1"/>
        <pt x="384" y="152" on="0"/>
        <pt x="484" y="158" on="1"/>
        <pt x="523" y="161" on="1"/>
        <pt x="528" y="16" on="1"/>
        <pt x="395" y="-13" on="0"/>
        <pt x="132" y="-13" on="0"/>
        <pt x="15" y="108" on="0"/>
        <pt x="15" y="379" on="0"/>
        <pt x="141" y="518" on="0"/>
        <pt x="408" y="518" on="0"/>
        <pt x="538" y="404" on="0"/>
        <pt x="538" y="286" on="1"/>
        <pt x="528" y="187" on="1"/>
      </contour>
      <contour>
        <pt x="314" y="309" on="1"/>
        <pt x="314" y="338" on="0"/>
        <pt x="297" y="362" on="0"/>
        <pt x="255" y="362" on="0"/>
        <pt x="239" y="338" on="0"/>
        <pt x="238" y="309" on="1"/>
      </contour>
      <contour>
        <pt x="105" y="723" on="1"/>
        <pt x="342" y="723" on="1"/>
        <pt x="385" y="557" on="1"/>
        <pt x="214" y="557" on="1"/>
      </contour>
    </TTGlyph>
    <TTGlyph name="eight" xMin="12" yMin="-13" xMax="536" yMax="672">
      <contour>
        <pt x="274" y="672" on="1"/>
        <pt x="461" y="672" on="0"/>
        <pt x="508" y="582" on="1"/>
        <pt x="526" y="546" on="0"/>
        <pt x="526" y="429" on="0"/>
        <pt x="495" y="361" on="0"/>
        <pt x="450" y="335" on="1"/>
        <pt x="502" y="310" on="0"/>
        <pt x="536" y="245" on="0"/>
        <pt x="536" y="175" on="1"/>
        <pt x="536" y="-13" on="0"/>
        <pt x="12" y="-13" on="0"/>
        <pt x="12" y="177" on="1"/>
        <pt x="12" y="242" on="0"/>
        <pt x="50" y="307" on="0"/>
        <pt x="99" y="336" on="1"/>
        <pt x="56" y="362" on="0"/>
        <pt x="24" y="429" on="0"/>
        <pt x="24" y="494" on="1"/>
        <pt x="24" y="672" on="0"/>
      </contour>
      <contour>
        <pt x="295" y="156" on="0"/>
        <pt x="314" y="175" on="0"/>
        <pt x="314" y="233" on="0"/>
        <pt x="288" y="259" on="1"/>
        <pt x="261" y="259" on="1"/>
        <pt x="234" y="237" on="0"/>
        <pt x="234" y="156" on="0"/>
        <pt x="274" y="156" on="1"/>
      </contour>
      <contour>
        <pt x="255" y="505" on="0"/>
        <pt x="242" y="483" on="0"/>
        <pt x="242" y="433" on="0"/>
        <pt x="261" y="410" on="1"/>
        <pt x="288" y="410" on="1"/>
        <pt x="307" y="430" on="0"/>
        <pt x="307" y="460" on="1"/>
        <pt x="307" y="505" on="0"/>
        <pt x="273" y="505" on="1"/>
      </contour>
    </TTGlyph>
</ttFont>
